%TF.GenerationSoftware,KiCad,Pcbnew,5.1.10*%
%TF.CreationDate,2021-08-09T15:51:23+08:00*%
%TF.ProjectId,ymmepm,796d6d65-706d-42e6-9b69-6361645f7063,rev?*%
%TF.SameCoordinates,Original*%
%TF.FileFunction,Legend,Bot*%
%TF.FilePolarity,Positive*%
%FSLAX46Y46*%
G04 Gerber Fmt 4.6, Leading zero omitted, Abs format (unit mm)*
G04 Created by KiCad (PCBNEW 5.1.10) date 2021-08-09 15:51:23*
%MOMM*%
%LPD*%
G01*
G04 APERTURE LIST*
%ADD10C,0.120000*%
%ADD11C,0.254000*%
%ADD12C,0.150000*%
G04 APERTURE END LIST*
D10*
X159004000Y-104013000D02*
X159004000Y-105029000D01*
X160909000Y-105410000D02*
X160972500Y-106489500D01*
X159004000Y-105029000D02*
X158369000Y-104457500D01*
X158623000Y-103187500D02*
X157861000Y-104140000D01*
X161798000Y-105537000D02*
X161671000Y-105346500D01*
X159385000Y-103759000D02*
X159131000Y-103759000D01*
X161099500Y-105219500D02*
X160909000Y-105410000D01*
X161734500Y-105727500D02*
X161798000Y-105537000D01*
X159639000Y-103886000D02*
X159385000Y-103759000D01*
X158750000Y-105600500D02*
X157607000Y-107188000D01*
X158686500Y-105346500D02*
X158877000Y-105918000D01*
X161671000Y-105346500D02*
X161417000Y-105156000D01*
X157289500Y-104902000D02*
X157226000Y-105410000D01*
X159829500Y-108521500D02*
X158496000Y-107505500D01*
X159956500Y-105727500D02*
X159702500Y-105473500D01*
X159702500Y-105473500D02*
X159766000Y-105092500D01*
X158623000Y-103441500D02*
X158623000Y-103187500D01*
X160528000Y-104394000D02*
X160909000Y-104775000D01*
X160464500Y-105600500D02*
X159956500Y-105727500D01*
X160083500Y-104584500D02*
X160528000Y-104394000D01*
X159131000Y-103759000D02*
X159004000Y-104013000D01*
X159702500Y-104140000D02*
X159639000Y-103886000D01*
X157924500Y-104838500D02*
X157099000Y-105727500D01*
X157861000Y-104140000D02*
X157924500Y-104267000D01*
X158496000Y-105981500D02*
X158369000Y-106743500D01*
X157099000Y-105727500D02*
X155956000Y-105981500D01*
X157861000Y-105410000D02*
X157480000Y-105600500D01*
X158432500Y-105918000D02*
X157797500Y-106235500D01*
X161417000Y-105156000D02*
X161099500Y-105219500D01*
X160972500Y-106489500D02*
X160401000Y-106045000D01*
X157924500Y-104267000D02*
X157734000Y-104076500D01*
X160274000Y-106680000D02*
X159956500Y-106807000D01*
X157099000Y-105727500D02*
X157035500Y-106807000D01*
X159385000Y-106997500D02*
X159194500Y-107696000D01*
X160083500Y-107632500D02*
X159385000Y-107886500D01*
X159766000Y-105092500D02*
X160083500Y-104584500D01*
X158750000Y-106299000D02*
X158178500Y-105600500D01*
X160909000Y-104775000D02*
X160464500Y-105600500D01*
X160528000Y-107442000D02*
X159258000Y-106489500D01*
%TO.C,R36*%
X167996776Y-71804000D02*
X168506224Y-71804000D01*
X167996776Y-72849000D02*
X168506224Y-72849000D01*
%TO.C,R35*%
X168235724Y-108790000D02*
X167726276Y-108790000D01*
X168235724Y-107745000D02*
X167726276Y-107745000D01*
%TO.C,R34*%
X168212224Y-106440500D02*
X167702776Y-106440500D01*
X168212224Y-105395500D02*
X167702776Y-105395500D01*
%TO.C,R33*%
X165672224Y-101805000D02*
X165162776Y-101805000D01*
X165672224Y-100760000D02*
X165162776Y-100760000D01*
%TO.C,R32*%
X165648724Y-97995000D02*
X165139276Y-97995000D01*
X165648724Y-96950000D02*
X165139276Y-96950000D01*
%TO.C,R31*%
X132818400Y-149605276D02*
X132818400Y-150114724D01*
X131773400Y-149605276D02*
X131773400Y-150114724D01*
%TO.C,R30*%
X170867600Y-114045276D02*
X170867600Y-114554724D01*
X169822600Y-114045276D02*
X169822600Y-114554724D01*
%TO.C,R29*%
X124315750Y-149605276D02*
X124315750Y-150114724D01*
X123270750Y-149605276D02*
X123270750Y-150114724D01*
%TO.C,R28*%
X164537546Y-114045276D02*
X164537546Y-114554724D01*
X163492546Y-114045276D02*
X163492546Y-114554724D01*
%TO.C,R27*%
X166829000Y-149605276D02*
X166829000Y-150114724D01*
X165784000Y-149605276D02*
X165784000Y-150114724D01*
%TO.C,R26*%
X158207504Y-114045276D02*
X158207504Y-114554724D01*
X157162504Y-114045276D02*
X157162504Y-114554724D01*
%TO.C,R25*%
X158326350Y-149605276D02*
X158326350Y-150114724D01*
X157281350Y-149605276D02*
X157281350Y-150114724D01*
%TO.C,R24*%
X151877462Y-114045276D02*
X151877462Y-114554724D01*
X150832462Y-114045276D02*
X150832462Y-114554724D01*
%TO.C,R23*%
X149823700Y-149605276D02*
X149823700Y-150114724D01*
X148778700Y-149605276D02*
X148778700Y-150114724D01*
%TO.C,R22*%
X145547420Y-114045276D02*
X145547420Y-114554724D01*
X144502420Y-114045276D02*
X144502420Y-114554724D01*
%TO.C,R21*%
X141321050Y-149605276D02*
X141321050Y-150114724D01*
X140276050Y-149605276D02*
X140276050Y-150114724D01*
%TO.C,R20*%
X139217378Y-114045276D02*
X139217378Y-114554724D01*
X138172378Y-114045276D02*
X138172378Y-114554724D01*
%TO.C,R19*%
X115813100Y-149605276D02*
X115813100Y-150114724D01*
X114768100Y-149605276D02*
X114768100Y-150114724D01*
%TO.C,R18*%
X132887336Y-114045276D02*
X132887336Y-114554724D01*
X131842336Y-114045276D02*
X131842336Y-114554724D01*
%TO.C,R17*%
X107310450Y-149605276D02*
X107310450Y-150114724D01*
X106265450Y-149605276D02*
X106265450Y-150114724D01*
%TO.C,R16*%
X126557294Y-114045276D02*
X126557294Y-114554724D01*
X125512294Y-114045276D02*
X125512294Y-114554724D01*
%TO.C,R15*%
X98807800Y-149605276D02*
X98807800Y-150114724D01*
X97762800Y-149605276D02*
X97762800Y-150114724D01*
%TO.C,R14*%
X120227252Y-114045276D02*
X120227252Y-114554724D01*
X119182252Y-114045276D02*
X119182252Y-114554724D01*
%TO.C,R13*%
X90305150Y-149605276D02*
X90305150Y-150114724D01*
X89260150Y-149605276D02*
X89260150Y-150114724D01*
%TO.C,R12*%
X113897210Y-114045276D02*
X113897210Y-114554724D01*
X112852210Y-114045276D02*
X112852210Y-114554724D01*
%TO.C,R11*%
X81802500Y-149605276D02*
X81802500Y-150114724D01*
X80757500Y-149605276D02*
X80757500Y-150114724D01*
%TO.C,R10*%
X107567168Y-114045276D02*
X107567168Y-114554724D01*
X106522168Y-114045276D02*
X106522168Y-114554724D01*
%TO.C,R9*%
X101237126Y-114045276D02*
X101237126Y-114554724D01*
X100192126Y-114045276D02*
X100192126Y-114554724D01*
%TO.C,R8*%
X94907084Y-114045276D02*
X94907084Y-114554724D01*
X93862084Y-114045276D02*
X93862084Y-114554724D01*
%TO.C,R7*%
X88577042Y-114045276D02*
X88577042Y-114554724D01*
X87532042Y-114045276D02*
X87532042Y-114554724D01*
%TO.C,R6*%
X82247000Y-114045276D02*
X82247000Y-114554724D01*
X81202000Y-114045276D02*
X81202000Y-114554724D01*
%TO.C,J10*%
X136337500Y-71497000D02*
X136337500Y-104267000D01*
X136337500Y-104267000D02*
X133797500Y-106807000D01*
X133797500Y-106807000D02*
X133797500Y-109477000D01*
X133797500Y-109477000D02*
X67497500Y-109477000D01*
X67497500Y-109477000D02*
X67497500Y-106297000D01*
X67497500Y-106297000D02*
X65597500Y-106297000D01*
X65597500Y-106297000D02*
X65597500Y-97157000D01*
X65597500Y-97157000D02*
X67497500Y-97157000D01*
X67497500Y-97157000D02*
X67497500Y-77087000D01*
X67497500Y-77087000D02*
X61147500Y-77087000D01*
X61147500Y-77087000D02*
X61147500Y-65407000D01*
X61147500Y-65407000D02*
X67497500Y-65407000D01*
X67497500Y-65407000D02*
X67497500Y-55877000D01*
X67497500Y-55877000D02*
X132147500Y-55877000D01*
X132147500Y-55877000D02*
X133797500Y-57527000D01*
X133797500Y-57527000D02*
X133797500Y-68957000D01*
X133797500Y-68957000D02*
X136337500Y-71497000D01*
%TO.C,R4*%
X163663724Y-82027500D02*
X163154276Y-82027500D01*
X163663724Y-83072500D02*
X163154276Y-83072500D01*
%TO.C,R3*%
X163663724Y-83932500D02*
X163154276Y-83932500D01*
X163663724Y-84977500D02*
X163154276Y-84977500D01*
%TO.C,R2*%
X163663724Y-88949000D02*
X163154276Y-88949000D01*
X163663724Y-89994000D02*
X163154276Y-89994000D01*
%TO.C,R1*%
X163663724Y-91899000D02*
X163154276Y-91899000D01*
X163663724Y-90854000D02*
X163154276Y-90854000D01*
D11*
%TO.C,VR1*%
X164834500Y-72814000D02*
X164834500Y-70014000D01*
X158834500Y-72814000D02*
X164834500Y-72814000D01*
X158834500Y-72814000D02*
X158834500Y-70014000D01*
X158834500Y-70014000D02*
X164834500Y-70014000D01*
D10*
%TO.C,C14*%
X157101000Y-69398267D02*
X157101000Y-69105733D01*
X156081000Y-69398267D02*
X156081000Y-69105733D01*
%TO.C,C13*%
X166812500Y-69158733D02*
X166812500Y-69451267D01*
X167832500Y-69158733D02*
X167832500Y-69451267D01*
%TO.C,C12*%
X124204000Y-88892767D02*
X124204000Y-88600233D01*
X125224000Y-88892767D02*
X125224000Y-88600233D01*
%TO.C,C11*%
X133469767Y-80520000D02*
X133177233Y-80520000D01*
X133469767Y-79500000D02*
X133177233Y-79500000D01*
%TO.C,C10*%
X133469767Y-88521000D02*
X133177233Y-88521000D01*
X133469767Y-87501000D02*
X133177233Y-87501000D01*
%TO.C,C9*%
X119006233Y-83758500D02*
X119298767Y-83758500D01*
X119006233Y-82738500D02*
X119298767Y-82738500D01*
%TO.C,C8*%
X119006233Y-80770000D02*
X119298767Y-80770000D01*
X119006233Y-81790000D02*
X119298767Y-81790000D01*
%TO.C,C7*%
X120203500Y-88892767D02*
X120203500Y-88600233D01*
X121223500Y-88892767D02*
X121223500Y-88600233D01*
%TO.C,C6*%
X116032233Y-87501000D02*
X116324767Y-87501000D01*
X116032233Y-88521000D02*
X116324767Y-88521000D01*
%TO.C,C5*%
X121731500Y-77540733D02*
X121731500Y-77833267D01*
X120711500Y-77540733D02*
X120711500Y-77833267D01*
%TO.C,C4*%
X127188500Y-88892767D02*
X127188500Y-88600233D01*
X128208500Y-88892767D02*
X128208500Y-88600233D01*
%TO.C,C3*%
X130485267Y-83758500D02*
X130192733Y-83758500D01*
X130485267Y-82738500D02*
X130192733Y-82738500D01*
%TO.C,C2*%
X128716500Y-77540733D02*
X128716500Y-77833267D01*
X127696500Y-77540733D02*
X127696500Y-77833267D01*
%TO.C,C1*%
X124716000Y-77540733D02*
X124716000Y-77833267D01*
X123696000Y-77540733D02*
X123696000Y-77833267D01*
%TO.C,R36*%
D12*
X168894357Y-74208880D02*
X169227690Y-73732690D01*
X169465785Y-74208880D02*
X169465785Y-73208880D01*
X169084833Y-73208880D01*
X168989595Y-73256500D01*
X168941976Y-73304119D01*
X168894357Y-73399357D01*
X168894357Y-73542214D01*
X168941976Y-73637452D01*
X168989595Y-73685071D01*
X169084833Y-73732690D01*
X169465785Y-73732690D01*
X168561023Y-73208880D02*
X167941976Y-73208880D01*
X168275309Y-73589833D01*
X168132452Y-73589833D01*
X168037214Y-73637452D01*
X167989595Y-73685071D01*
X167941976Y-73780309D01*
X167941976Y-74018404D01*
X167989595Y-74113642D01*
X168037214Y-74161261D01*
X168132452Y-74208880D01*
X168418166Y-74208880D01*
X168513404Y-74161261D01*
X168561023Y-74113642D01*
X167084833Y-73208880D02*
X167275309Y-73208880D01*
X167370547Y-73256500D01*
X167418166Y-73304119D01*
X167513404Y-73446976D01*
X167561023Y-73637452D01*
X167561023Y-74018404D01*
X167513404Y-74113642D01*
X167465785Y-74161261D01*
X167370547Y-74208880D01*
X167180071Y-74208880D01*
X167084833Y-74161261D01*
X167037214Y-74113642D01*
X166989595Y-74018404D01*
X166989595Y-73780309D01*
X167037214Y-73685071D01*
X167084833Y-73637452D01*
X167180071Y-73589833D01*
X167370547Y-73589833D01*
X167465785Y-73637452D01*
X167513404Y-73685071D01*
X167561023Y-73780309D01*
%TO.C,R33*%
X166060357Y-100304880D02*
X166393690Y-99828690D01*
X166631785Y-100304880D02*
X166631785Y-99304880D01*
X166250833Y-99304880D01*
X166155595Y-99352500D01*
X166107976Y-99400119D01*
X166060357Y-99495357D01*
X166060357Y-99638214D01*
X166107976Y-99733452D01*
X166155595Y-99781071D01*
X166250833Y-99828690D01*
X166631785Y-99828690D01*
X165727023Y-99304880D02*
X165107976Y-99304880D01*
X165441309Y-99685833D01*
X165298452Y-99685833D01*
X165203214Y-99733452D01*
X165155595Y-99781071D01*
X165107976Y-99876309D01*
X165107976Y-100114404D01*
X165155595Y-100209642D01*
X165203214Y-100257261D01*
X165298452Y-100304880D01*
X165584166Y-100304880D01*
X165679404Y-100257261D01*
X165727023Y-100209642D01*
X164774642Y-99304880D02*
X164155595Y-99304880D01*
X164488928Y-99685833D01*
X164346071Y-99685833D01*
X164250833Y-99733452D01*
X164203214Y-99781071D01*
X164155595Y-99876309D01*
X164155595Y-100114404D01*
X164203214Y-100209642D01*
X164250833Y-100257261D01*
X164346071Y-100304880D01*
X164631785Y-100304880D01*
X164727023Y-100257261D01*
X164774642Y-100209642D01*
%TO.C,R32*%
X166036857Y-96494880D02*
X166370190Y-96018690D01*
X166608285Y-96494880D02*
X166608285Y-95494880D01*
X166227333Y-95494880D01*
X166132095Y-95542500D01*
X166084476Y-95590119D01*
X166036857Y-95685357D01*
X166036857Y-95828214D01*
X166084476Y-95923452D01*
X166132095Y-95971071D01*
X166227333Y-96018690D01*
X166608285Y-96018690D01*
X165703523Y-95494880D02*
X165084476Y-95494880D01*
X165417809Y-95875833D01*
X165274952Y-95875833D01*
X165179714Y-95923452D01*
X165132095Y-95971071D01*
X165084476Y-96066309D01*
X165084476Y-96304404D01*
X165132095Y-96399642D01*
X165179714Y-96447261D01*
X165274952Y-96494880D01*
X165560666Y-96494880D01*
X165655904Y-96447261D01*
X165703523Y-96399642D01*
X164703523Y-95590119D02*
X164655904Y-95542500D01*
X164560666Y-95494880D01*
X164322571Y-95494880D01*
X164227333Y-95542500D01*
X164179714Y-95590119D01*
X164132095Y-95685357D01*
X164132095Y-95780595D01*
X164179714Y-95923452D01*
X164751142Y-96494880D01*
X164132095Y-96494880D01*
%TO.C,C14*%
X158378142Y-68609142D02*
X158425761Y-68561523D01*
X158473380Y-68418666D01*
X158473380Y-68323428D01*
X158425761Y-68180571D01*
X158330523Y-68085333D01*
X158235285Y-68037714D01*
X158044809Y-67990095D01*
X157901952Y-67990095D01*
X157711476Y-68037714D01*
X157616238Y-68085333D01*
X157521000Y-68180571D01*
X157473380Y-68323428D01*
X157473380Y-68418666D01*
X157521000Y-68561523D01*
X157568619Y-68609142D01*
X158473380Y-69561523D02*
X158473380Y-68990095D01*
X158473380Y-69275809D02*
X157473380Y-69275809D01*
X157616238Y-69180571D01*
X157711476Y-69085333D01*
X157759095Y-68990095D01*
X157806714Y-70418666D02*
X158473380Y-70418666D01*
X157425761Y-70180571D02*
X158140047Y-69942476D01*
X158140047Y-70561523D01*
%TO.C,C13*%
X166249642Y-68662142D02*
X166297261Y-68614523D01*
X166344880Y-68471666D01*
X166344880Y-68376428D01*
X166297261Y-68233571D01*
X166202023Y-68138333D01*
X166106785Y-68090714D01*
X165916309Y-68043095D01*
X165773452Y-68043095D01*
X165582976Y-68090714D01*
X165487738Y-68138333D01*
X165392500Y-68233571D01*
X165344880Y-68376428D01*
X165344880Y-68471666D01*
X165392500Y-68614523D01*
X165440119Y-68662142D01*
X166344880Y-69614523D02*
X166344880Y-69043095D01*
X166344880Y-69328809D02*
X165344880Y-69328809D01*
X165487738Y-69233571D01*
X165582976Y-69138333D01*
X165630595Y-69043095D01*
X165344880Y-69947857D02*
X165344880Y-70566904D01*
X165725833Y-70233571D01*
X165725833Y-70376428D01*
X165773452Y-70471666D01*
X165821071Y-70519285D01*
X165916309Y-70566904D01*
X166154404Y-70566904D01*
X166249642Y-70519285D01*
X166297261Y-70471666D01*
X166344880Y-70376428D01*
X166344880Y-70090714D01*
X166297261Y-69995476D01*
X166249642Y-69947857D01*
%TD*%
M02*
