M48
; DRILL file {KiCad 5.1.10} date Mon Aug  9 15:51:55 2021
; FORMAT={-:-/ absolute / inch / decimal}
; #@! TF.CreationDate,2021-08-09T15:51:55+08:00
; #@! TF.GenerationSoftware,Kicad,Pcbnew,5.1.10
; #@! TF.FileFunction,Plated,1,2,PTH
FMAT,2
INCH
T1C0.0140
T2C0.0394
%
G90
G05
T1
X3.0523Y-4.715
X3.0523Y-5.215
X3.0523Y-5.715
X3.0525Y-4.965
X3.0525Y-5.4675
X3.1626Y-3.9004
X3.1699Y-3.9275
X3.1704Y-3.8735
X3.1739Y-3.8458
X3.1753Y-3.8178
X3.182Y-3.7906
X3.1828Y-3.7626
X3.1875Y-3.735
X3.2Y-5.9359
X3.2175Y-4.5359
X3.305Y-4.715
X3.33Y-4.37
X3.365Y-4.9625
X3.3738Y-5.715
X3.4015Y-2.341
X3.4115Y-2.421
X3.4273Y-5.215
X3.4315Y-2.471
X3.4315Y-2.516
X3.4667Y-4.5359
X3.49Y-5.465
X3.5347Y-5.9359
X3.5523Y-4.715
X3.6148Y-4.965
X3.6773Y-5.215
X3.6773Y-5.715
X3.7141Y-4.5445
X3.7398Y-5.465
X3.8023Y-4.715
X3.8648Y-4.965
X3.8695Y-5.9359
X3.9219Y-3.5275
X3.9222Y-3.2473
X3.9273Y-5.215
X3.9651Y-4.5359
X3.9898Y-5.465
X3.9898Y-5.715
X4.0125Y-3.4133
X4.0128Y-3.1332
X4.0523Y-4.715
X4.1148Y-4.965
X4.1175Y-3.2075
X4.1175Y-3.4925
X4.1773Y-5.215
X4.2043Y-5.9359
X4.2144Y-4.5359
X4.2398Y-5.465
X4.2825Y-3.0325
X4.3023Y-4.715
X4.3145Y-3.0452
X4.3275Y-3.07
X4.3425Y-3.115
X4.3625Y-5.715
X4.3648Y-4.965
X4.3725Y-3.13
X4.374Y-3.721
X4.3932Y-3.6274
X4.395Y-3.1075
X4.41Y-3.605
X4.425Y-3.1075
X4.4273Y-5.215
X4.4296Y-3.584
X4.4636Y-4.5359
X4.4898Y-5.465
X4.52Y-3.72
X4.539Y-5.9359
X4.54Y-3.465
X4.5523Y-4.715
X4.5557Y-3.4267
X4.5561Y-3.6568
X4.57Y-3.6325
X4.5915Y-3.5785
X4.6148Y-4.965
X4.6415Y-2.681
X4.6571Y-3.2
X4.6571Y-3.2775
X4.665Y-3.2375
X4.6773Y-5.215
X4.69Y-3.7585
X4.7128Y-4.5359
X4.7236Y-3.0423
X4.725Y-3.2775
X4.7398Y-5.465
X4.7525Y-3.46
X4.7525Y-3.5279
X4.7725Y-3.0246
X4.8023Y-4.715
X4.849Y-3.846
X4.8648Y-4.965
X4.8648Y-5.715
X4.8738Y-5.9359
X4.89Y-3.0246
X4.91Y-3.5279
X4.9273Y-5.215
X4.9334Y-3.03
X4.962Y-4.5359
X4.9625Y-3.5275
X4.9898Y-5.465
X4.9925Y-2.715
X5.0015Y-3.031
X5.0275Y-3.5279
X5.03Y-2.66
X5.0425Y-3.7705
X5.0486Y-3.025
X5.0523Y-4.715
X5.07Y-3.7825
X5.085Y-2.74
X5.096Y-3.7952
X5.1148Y-4.965
X5.1225Y-3.8065
X5.142Y-3.3242
X5.1525Y-3.8185
X5.1654Y-3.2775
X5.1773Y-5.215
X5.18Y-3.8305
X5.2105Y-5.9379
X5.2112Y-4.5359
X5.2398Y-5.465
X5.2398Y-5.715
X5.27Y-3.1125
X5.2829Y-3.15
X5.2829Y-3.465
X5.3023Y-4.715
X5.33Y-2.8425
X5.3648Y-4.965
X5.38Y-3.445
X5.3855Y-3.3117
X5.3875Y-3.0125
X5.39Y-3.0525
X5.3908Y-3.3392
X5.4173Y-3.0587
X5.4175Y-3.03
X5.4175Y-3.545
X5.4273Y-5.215
X5.436Y-3.524
X5.4424Y-3.0463
X5.4525Y-2.8775
X5.4604Y-4.5359
X5.4704Y-3.0478
X5.4898Y-5.465
X5.5165Y-3.6985
X5.5305Y-2.9524
X5.5425Y-3.0175
X5.5432Y-5.9359
X5.5523Y-4.715
X5.5523Y-5.715
X5.5525Y-2.9325
X5.5975Y-2.92
X5.6004Y-2.9521
X5.6148Y-4.965
X5.6773Y-5.215
X5.7096Y-4.5359
X5.7398Y-5.465
X5.8023Y-4.715
X5.8648Y-4.965
X5.8648Y-5.715
X5.878Y-5.9359
X5.9273Y-5.215
X5.9589Y-4.5359
X6.0523Y-4.715
X6.1148Y-4.965
X6.1148Y-5.465
X6.1148Y-5.715
X6.2081Y-4.5359
X6.2127Y-5.9359
X6.3648Y-4.715
X6.3648Y-4.965
X6.3648Y-5.215
X6.3648Y-5.715
X6.3975Y-3.25
X6.3975Y-3.325
X6.3975Y-3.5225
X6.3975Y-3.5975
X6.4573Y-4.5359
X6.4694Y-3.25
X6.4694Y-3.325
X6.4694Y-3.5225
X6.4694Y-3.5975
X6.535Y-2.77
X6.5475Y-5.9359
X6.56Y-3.7875
X6.5766Y-4.17
X6.5775Y-4.2625
X6.5875Y-2.7625
X6.6225Y-4.0725
X6.6238Y-4.715
X6.6238Y-4.965
X6.6238Y-5.215
X6.6238Y-5.465
X6.6238Y-5.715
X6.6484Y-4.17
X6.6494Y-4.2625
X6.7065Y-4.5359
X6.8025Y-4.365
X6.8394Y-4.2625
T2
X3.05Y-2.25
X3.05Y-2.35
X3.05Y-2.45
X3.05Y-2.55
X3.05Y-2.65
X3.05Y-2.75
X3.05Y-3.15
X3.05Y-3.25
X3.05Y-3.35
X3.05Y-3.45
X3.05Y-3.55
X3.05Y-3.65
X3.15Y-2.25
X3.15Y-2.35
X3.15Y-2.45
X3.15Y-2.55
X3.15Y-2.65
X3.15Y-2.75
X3.15Y-3.15
X3.15Y-3.25
X3.15Y-3.35
X3.15Y-3.45
X3.15Y-3.55
X3.15Y-3.65
X3.6027Y-2.305
X3.7027Y-2.305
X3.7625Y-4.205
X3.8027Y-2.305
X3.8625Y-4.205
X3.9027Y-2.305
X3.93Y-3.825
X3.9525Y-2.735
X3.9525Y-2.835
X3.9625Y-4.205
X4.0027Y-2.305
X4.03Y-3.825
X4.0525Y-2.835
X4.0625Y-4.205
X4.1027Y-2.305
X4.13Y-3.825
X4.1525Y-2.835
X4.1625Y-4.205
X4.2027Y-2.305
X4.23Y-3.825
X4.2625Y-4.205
X4.3027Y-2.305
X4.3625Y-4.205
X4.4625Y-2.305
X4.4625Y-4.205
X4.5625Y-2.305
X4.6625Y-2.305
X4.6625Y-4.205
X4.7625Y-2.305
X4.7625Y-4.205
X4.8625Y-2.305
X4.8625Y-4.205
X4.9625Y-2.305
X4.9625Y-4.205
X5.005Y-2.59
X5.0625Y-2.305
X5.0625Y-4.205
X5.105Y-2.59
X5.1625Y-2.305
X5.1625Y-4.205
X5.375Y-2.27
X5.375Y-2.37
X5.475Y-2.27
X5.475Y-2.37
X5.475Y-2.695
X5.5125Y-3.535
X5.575Y-2.27
X5.575Y-2.37
X5.575Y-2.695
X5.595Y-3.28
X5.6125Y-3.535
X5.675Y-2.27
X5.675Y-2.37
X5.675Y-2.595
X5.675Y-2.695
X5.695Y-3.28
X5.7125Y-3.535
X5.7125Y-3.635
X5.775Y-2.27
X5.775Y-2.37
X5.775Y-2.595
X5.8125Y-3.535
X5.8125Y-3.635
X5.875Y-2.27
X5.875Y-2.37
X5.915Y-2.995
X5.915Y-3.095
X6.275Y-2.27
X6.275Y-2.37
X6.375Y-2.27
X6.375Y-2.37
X6.475Y-2.27
X6.475Y-2.37
X6.575Y-2.27
X6.575Y-2.37
X6.675Y-2.27
X6.675Y-2.37
X6.6975Y-3.2125
X6.6975Y-3.3125
X6.6975Y-3.4125
X6.6975Y-3.5125
X6.6975Y-3.6125
X6.6975Y-3.8375
X6.6975Y-3.9875
X6.775Y-2.27
X6.775Y-2.37
X6.7975Y-2.5775
X6.7975Y-2.6775
X6.7975Y-2.86
X6.7975Y-2.96
X6.7975Y-3.2125
X6.7975Y-3.3125
X6.7975Y-3.4125
X6.7975Y-3.5125
X6.7975Y-3.6125
X6.7975Y-3.8375
X6.7975Y-3.9875
T0
M30
