%TF.GenerationSoftware,KiCad,Pcbnew,5.1.10*%
%TF.CreationDate,2021-08-09T15:51:23+08:00*%
%TF.ProjectId,ymmepm,796d6d65-706d-42e6-9b69-6361645f7063,rev?*%
%TF.SameCoordinates,Original*%
%TF.FileFunction,Paste,Top*%
%TF.FilePolarity,Positive*%
%FSLAX46Y46*%
G04 Gerber Fmt 4.6, Leading zero omitted, Abs format (unit mm)*
G04 Created by KiCad (PCBNEW 5.1.10) date 2021-08-09 15:51:23*
%MOMM*%
%LPD*%
G01*
G04 APERTURE LIST*
%ADD10R,1.200000X1.400000*%
G04 APERTURE END LIST*
%TO.C,D4*%
G36*
G01*
X166542000Y-70120500D02*
X166542000Y-70595500D01*
G75*
G02*
X166304500Y-70833000I-237500J0D01*
G01*
X165729500Y-70833000D01*
G75*
G02*
X165492000Y-70595500I0J237500D01*
G01*
X165492000Y-70120500D01*
G75*
G02*
X165729500Y-69883000I237500J0D01*
G01*
X166304500Y-69883000D01*
G75*
G02*
X166542000Y-70120500I0J-237500D01*
G01*
G37*
G36*
G01*
X168292000Y-70120500D02*
X168292000Y-70595500D01*
G75*
G02*
X168054500Y-70833000I-237500J0D01*
G01*
X167479500Y-70833000D01*
G75*
G02*
X167242000Y-70595500I0J237500D01*
G01*
X167242000Y-70120500D01*
G75*
G02*
X167479500Y-69883000I237500J0D01*
G01*
X168054500Y-69883000D01*
G75*
G02*
X168292000Y-70120500I0J-237500D01*
G01*
G37*
%TD*%
%TO.C,D3*%
G36*
G01*
X172497000Y-108030000D02*
X172497000Y-108505000D01*
G75*
G02*
X172259500Y-108742500I-237500J0D01*
G01*
X171684500Y-108742500D01*
G75*
G02*
X171447000Y-108505000I0J237500D01*
G01*
X171447000Y-108030000D01*
G75*
G02*
X171684500Y-107792500I237500J0D01*
G01*
X172259500Y-107792500D01*
G75*
G02*
X172497000Y-108030000I0J-237500D01*
G01*
G37*
G36*
G01*
X174247000Y-108030000D02*
X174247000Y-108505000D01*
G75*
G02*
X174009500Y-108742500I-237500J0D01*
G01*
X173434500Y-108742500D01*
G75*
G02*
X173197000Y-108505000I0J237500D01*
G01*
X173197000Y-108030000D01*
G75*
G02*
X173434500Y-107792500I237500J0D01*
G01*
X174009500Y-107792500D01*
G75*
G02*
X174247000Y-108030000I0J-237500D01*
G01*
G37*
%TD*%
%TO.C,D2*%
G36*
G01*
X172433500Y-105680500D02*
X172433500Y-106155500D01*
G75*
G02*
X172196000Y-106393000I-237500J0D01*
G01*
X171621000Y-106393000D01*
G75*
G02*
X171383500Y-106155500I0J237500D01*
G01*
X171383500Y-105680500D01*
G75*
G02*
X171621000Y-105443000I237500J0D01*
G01*
X172196000Y-105443000D01*
G75*
G02*
X172433500Y-105680500I0J-237500D01*
G01*
G37*
G36*
G01*
X174183500Y-105680500D02*
X174183500Y-106155500D01*
G75*
G02*
X173946000Y-106393000I-237500J0D01*
G01*
X173371000Y-106393000D01*
G75*
G02*
X173133500Y-106155500I0J237500D01*
G01*
X173133500Y-105680500D01*
G75*
G02*
X173371000Y-105443000I237500J0D01*
G01*
X173946000Y-105443000D01*
G75*
G02*
X174183500Y-105680500I0J-237500D01*
G01*
G37*
%TD*%
%TO.C,USRM2*%
G36*
G01*
X140629000Y-145961000D02*
X140629000Y-144361000D01*
G75*
G02*
X140829000Y-144161000I200000J0D01*
G01*
X141229000Y-144161000D01*
G75*
G02*
X141429000Y-144361000I0J-200000D01*
G01*
X141429000Y-145961000D01*
G75*
G02*
X141229000Y-146161000I-200000J0D01*
G01*
X140829000Y-146161000D01*
G75*
G02*
X140629000Y-145961000I0J200000D01*
G01*
G37*
G36*
G01*
X144829000Y-145961000D02*
X144829000Y-144361000D01*
G75*
G02*
X145029000Y-144161000I200000J0D01*
G01*
X145429000Y-144161000D01*
G75*
G02*
X145629000Y-144361000I0J-200000D01*
G01*
X145629000Y-145961000D01*
G75*
G02*
X145429000Y-146161000I-200000J0D01*
G01*
X145029000Y-146161000D01*
G75*
G02*
X144829000Y-145961000I0J200000D01*
G01*
G37*
%TD*%
D10*
%TO.C,X3*%
X101717500Y-86948500D03*
X101717500Y-89348500D03*
X99817500Y-89348500D03*
X99817500Y-86948500D03*
%TD*%
%TO.C,X1*%
X101724500Y-79832500D03*
X101724500Y-82232500D03*
X99824500Y-82232500D03*
X99824500Y-79832500D03*
%TD*%
%TO.C,C19*%
G36*
G01*
X104429500Y-88342000D02*
X104739500Y-88342000D01*
G75*
G02*
X104894500Y-88497000I0J-155000D01*
G01*
X104894500Y-88922000D01*
G75*
G02*
X104739500Y-89077000I-155000J0D01*
G01*
X104429500Y-89077000D01*
G75*
G02*
X104274500Y-88922000I0J155000D01*
G01*
X104274500Y-88497000D01*
G75*
G02*
X104429500Y-88342000I155000J0D01*
G01*
G37*
G36*
G01*
X104429500Y-87207000D02*
X104739500Y-87207000D01*
G75*
G02*
X104894500Y-87362000I0J-155000D01*
G01*
X104894500Y-87787000D01*
G75*
G02*
X104739500Y-87942000I-155000J0D01*
G01*
X104429500Y-87942000D01*
G75*
G02*
X104274500Y-87787000I0J155000D01*
G01*
X104274500Y-87362000D01*
G75*
G02*
X104429500Y-87207000I155000J0D01*
G01*
G37*
%TD*%
%TO.C,C18*%
G36*
G01*
X96727000Y-88426000D02*
X97202000Y-88426000D01*
G75*
G02*
X97439500Y-88663500I0J-237500D01*
G01*
X97439500Y-89263500D01*
G75*
G02*
X97202000Y-89501000I-237500J0D01*
G01*
X96727000Y-89501000D01*
G75*
G02*
X96489500Y-89263500I0J237500D01*
G01*
X96489500Y-88663500D01*
G75*
G02*
X96727000Y-88426000I237500J0D01*
G01*
G37*
G36*
G01*
X96727000Y-86701000D02*
X97202000Y-86701000D01*
G75*
G02*
X97439500Y-86938500I0J-237500D01*
G01*
X97439500Y-87538500D01*
G75*
G02*
X97202000Y-87776000I-237500J0D01*
G01*
X96727000Y-87776000D01*
G75*
G02*
X96489500Y-87538500I0J237500D01*
G01*
X96489500Y-86938500D01*
G75*
G02*
X96727000Y-86701000I237500J0D01*
G01*
G37*
%TD*%
%TO.C,U1*%
G36*
G01*
X136114000Y-91923500D02*
X136114000Y-92073500D01*
G75*
G02*
X136039000Y-92148500I-75000J0D01*
G01*
X134714000Y-92148500D01*
G75*
G02*
X134639000Y-92073500I0J75000D01*
G01*
X134639000Y-91923500D01*
G75*
G02*
X134714000Y-91848500I75000J0D01*
G01*
X136039000Y-91848500D01*
G75*
G02*
X136114000Y-91923500I0J-75000D01*
G01*
G37*
G36*
G01*
X136114000Y-91423500D02*
X136114000Y-91573500D01*
G75*
G02*
X136039000Y-91648500I-75000J0D01*
G01*
X134714000Y-91648500D01*
G75*
G02*
X134639000Y-91573500I0J75000D01*
G01*
X134639000Y-91423500D01*
G75*
G02*
X134714000Y-91348500I75000J0D01*
G01*
X136039000Y-91348500D01*
G75*
G02*
X136114000Y-91423500I0J-75000D01*
G01*
G37*
G36*
G01*
X136114000Y-90923500D02*
X136114000Y-91073500D01*
G75*
G02*
X136039000Y-91148500I-75000J0D01*
G01*
X134714000Y-91148500D01*
G75*
G02*
X134639000Y-91073500I0J75000D01*
G01*
X134639000Y-90923500D01*
G75*
G02*
X134714000Y-90848500I75000J0D01*
G01*
X136039000Y-90848500D01*
G75*
G02*
X136114000Y-90923500I0J-75000D01*
G01*
G37*
G36*
G01*
X136114000Y-90423500D02*
X136114000Y-90573500D01*
G75*
G02*
X136039000Y-90648500I-75000J0D01*
G01*
X134714000Y-90648500D01*
G75*
G02*
X134639000Y-90573500I0J75000D01*
G01*
X134639000Y-90423500D01*
G75*
G02*
X134714000Y-90348500I75000J0D01*
G01*
X136039000Y-90348500D01*
G75*
G02*
X136114000Y-90423500I0J-75000D01*
G01*
G37*
G36*
G01*
X136114000Y-89923500D02*
X136114000Y-90073500D01*
G75*
G02*
X136039000Y-90148500I-75000J0D01*
G01*
X134714000Y-90148500D01*
G75*
G02*
X134639000Y-90073500I0J75000D01*
G01*
X134639000Y-89923500D01*
G75*
G02*
X134714000Y-89848500I75000J0D01*
G01*
X136039000Y-89848500D01*
G75*
G02*
X136114000Y-89923500I0J-75000D01*
G01*
G37*
G36*
G01*
X136114000Y-89423500D02*
X136114000Y-89573500D01*
G75*
G02*
X136039000Y-89648500I-75000J0D01*
G01*
X134714000Y-89648500D01*
G75*
G02*
X134639000Y-89573500I0J75000D01*
G01*
X134639000Y-89423500D01*
G75*
G02*
X134714000Y-89348500I75000J0D01*
G01*
X136039000Y-89348500D01*
G75*
G02*
X136114000Y-89423500I0J-75000D01*
G01*
G37*
G36*
G01*
X136114000Y-88923500D02*
X136114000Y-89073500D01*
G75*
G02*
X136039000Y-89148500I-75000J0D01*
G01*
X134714000Y-89148500D01*
G75*
G02*
X134639000Y-89073500I0J75000D01*
G01*
X134639000Y-88923500D01*
G75*
G02*
X134714000Y-88848500I75000J0D01*
G01*
X136039000Y-88848500D01*
G75*
G02*
X136114000Y-88923500I0J-75000D01*
G01*
G37*
G36*
G01*
X136114000Y-88423500D02*
X136114000Y-88573500D01*
G75*
G02*
X136039000Y-88648500I-75000J0D01*
G01*
X134714000Y-88648500D01*
G75*
G02*
X134639000Y-88573500I0J75000D01*
G01*
X134639000Y-88423500D01*
G75*
G02*
X134714000Y-88348500I75000J0D01*
G01*
X136039000Y-88348500D01*
G75*
G02*
X136114000Y-88423500I0J-75000D01*
G01*
G37*
G36*
G01*
X136114000Y-87923500D02*
X136114000Y-88073500D01*
G75*
G02*
X136039000Y-88148500I-75000J0D01*
G01*
X134714000Y-88148500D01*
G75*
G02*
X134639000Y-88073500I0J75000D01*
G01*
X134639000Y-87923500D01*
G75*
G02*
X134714000Y-87848500I75000J0D01*
G01*
X136039000Y-87848500D01*
G75*
G02*
X136114000Y-87923500I0J-75000D01*
G01*
G37*
G36*
G01*
X136114000Y-87423500D02*
X136114000Y-87573500D01*
G75*
G02*
X136039000Y-87648500I-75000J0D01*
G01*
X134714000Y-87648500D01*
G75*
G02*
X134639000Y-87573500I0J75000D01*
G01*
X134639000Y-87423500D01*
G75*
G02*
X134714000Y-87348500I75000J0D01*
G01*
X136039000Y-87348500D01*
G75*
G02*
X136114000Y-87423500I0J-75000D01*
G01*
G37*
G36*
G01*
X136114000Y-86923500D02*
X136114000Y-87073500D01*
G75*
G02*
X136039000Y-87148500I-75000J0D01*
G01*
X134714000Y-87148500D01*
G75*
G02*
X134639000Y-87073500I0J75000D01*
G01*
X134639000Y-86923500D01*
G75*
G02*
X134714000Y-86848500I75000J0D01*
G01*
X136039000Y-86848500D01*
G75*
G02*
X136114000Y-86923500I0J-75000D01*
G01*
G37*
G36*
G01*
X136114000Y-86423500D02*
X136114000Y-86573500D01*
G75*
G02*
X136039000Y-86648500I-75000J0D01*
G01*
X134714000Y-86648500D01*
G75*
G02*
X134639000Y-86573500I0J75000D01*
G01*
X134639000Y-86423500D01*
G75*
G02*
X134714000Y-86348500I75000J0D01*
G01*
X136039000Y-86348500D01*
G75*
G02*
X136114000Y-86423500I0J-75000D01*
G01*
G37*
G36*
G01*
X136114000Y-85923500D02*
X136114000Y-86073500D01*
G75*
G02*
X136039000Y-86148500I-75000J0D01*
G01*
X134714000Y-86148500D01*
G75*
G02*
X134639000Y-86073500I0J75000D01*
G01*
X134639000Y-85923500D01*
G75*
G02*
X134714000Y-85848500I75000J0D01*
G01*
X136039000Y-85848500D01*
G75*
G02*
X136114000Y-85923500I0J-75000D01*
G01*
G37*
G36*
G01*
X136114000Y-85423500D02*
X136114000Y-85573500D01*
G75*
G02*
X136039000Y-85648500I-75000J0D01*
G01*
X134714000Y-85648500D01*
G75*
G02*
X134639000Y-85573500I0J75000D01*
G01*
X134639000Y-85423500D01*
G75*
G02*
X134714000Y-85348500I75000J0D01*
G01*
X136039000Y-85348500D01*
G75*
G02*
X136114000Y-85423500I0J-75000D01*
G01*
G37*
G36*
G01*
X136114000Y-84923500D02*
X136114000Y-85073500D01*
G75*
G02*
X136039000Y-85148500I-75000J0D01*
G01*
X134714000Y-85148500D01*
G75*
G02*
X134639000Y-85073500I0J75000D01*
G01*
X134639000Y-84923500D01*
G75*
G02*
X134714000Y-84848500I75000J0D01*
G01*
X136039000Y-84848500D01*
G75*
G02*
X136114000Y-84923500I0J-75000D01*
G01*
G37*
G36*
G01*
X136114000Y-84423500D02*
X136114000Y-84573500D01*
G75*
G02*
X136039000Y-84648500I-75000J0D01*
G01*
X134714000Y-84648500D01*
G75*
G02*
X134639000Y-84573500I0J75000D01*
G01*
X134639000Y-84423500D01*
G75*
G02*
X134714000Y-84348500I75000J0D01*
G01*
X136039000Y-84348500D01*
G75*
G02*
X136114000Y-84423500I0J-75000D01*
G01*
G37*
G36*
G01*
X136114000Y-83923500D02*
X136114000Y-84073500D01*
G75*
G02*
X136039000Y-84148500I-75000J0D01*
G01*
X134714000Y-84148500D01*
G75*
G02*
X134639000Y-84073500I0J75000D01*
G01*
X134639000Y-83923500D01*
G75*
G02*
X134714000Y-83848500I75000J0D01*
G01*
X136039000Y-83848500D01*
G75*
G02*
X136114000Y-83923500I0J-75000D01*
G01*
G37*
G36*
G01*
X136114000Y-83423500D02*
X136114000Y-83573500D01*
G75*
G02*
X136039000Y-83648500I-75000J0D01*
G01*
X134714000Y-83648500D01*
G75*
G02*
X134639000Y-83573500I0J75000D01*
G01*
X134639000Y-83423500D01*
G75*
G02*
X134714000Y-83348500I75000J0D01*
G01*
X136039000Y-83348500D01*
G75*
G02*
X136114000Y-83423500I0J-75000D01*
G01*
G37*
G36*
G01*
X136114000Y-82923500D02*
X136114000Y-83073500D01*
G75*
G02*
X136039000Y-83148500I-75000J0D01*
G01*
X134714000Y-83148500D01*
G75*
G02*
X134639000Y-83073500I0J75000D01*
G01*
X134639000Y-82923500D01*
G75*
G02*
X134714000Y-82848500I75000J0D01*
G01*
X136039000Y-82848500D01*
G75*
G02*
X136114000Y-82923500I0J-75000D01*
G01*
G37*
G36*
G01*
X136114000Y-82423500D02*
X136114000Y-82573500D01*
G75*
G02*
X136039000Y-82648500I-75000J0D01*
G01*
X134714000Y-82648500D01*
G75*
G02*
X134639000Y-82573500I0J75000D01*
G01*
X134639000Y-82423500D01*
G75*
G02*
X134714000Y-82348500I75000J0D01*
G01*
X136039000Y-82348500D01*
G75*
G02*
X136114000Y-82423500I0J-75000D01*
G01*
G37*
G36*
G01*
X136114000Y-81923500D02*
X136114000Y-82073500D01*
G75*
G02*
X136039000Y-82148500I-75000J0D01*
G01*
X134714000Y-82148500D01*
G75*
G02*
X134639000Y-82073500I0J75000D01*
G01*
X134639000Y-81923500D01*
G75*
G02*
X134714000Y-81848500I75000J0D01*
G01*
X136039000Y-81848500D01*
G75*
G02*
X136114000Y-81923500I0J-75000D01*
G01*
G37*
G36*
G01*
X136114000Y-81423500D02*
X136114000Y-81573500D01*
G75*
G02*
X136039000Y-81648500I-75000J0D01*
G01*
X134714000Y-81648500D01*
G75*
G02*
X134639000Y-81573500I0J75000D01*
G01*
X134639000Y-81423500D01*
G75*
G02*
X134714000Y-81348500I75000J0D01*
G01*
X136039000Y-81348500D01*
G75*
G02*
X136114000Y-81423500I0J-75000D01*
G01*
G37*
G36*
G01*
X136114000Y-80923500D02*
X136114000Y-81073500D01*
G75*
G02*
X136039000Y-81148500I-75000J0D01*
G01*
X134714000Y-81148500D01*
G75*
G02*
X134639000Y-81073500I0J75000D01*
G01*
X134639000Y-80923500D01*
G75*
G02*
X134714000Y-80848500I75000J0D01*
G01*
X136039000Y-80848500D01*
G75*
G02*
X136114000Y-80923500I0J-75000D01*
G01*
G37*
G36*
G01*
X136114000Y-80423500D02*
X136114000Y-80573500D01*
G75*
G02*
X136039000Y-80648500I-75000J0D01*
G01*
X134714000Y-80648500D01*
G75*
G02*
X134639000Y-80573500I0J75000D01*
G01*
X134639000Y-80423500D01*
G75*
G02*
X134714000Y-80348500I75000J0D01*
G01*
X136039000Y-80348500D01*
G75*
G02*
X136114000Y-80423500I0J-75000D01*
G01*
G37*
G36*
G01*
X136114000Y-79923500D02*
X136114000Y-80073500D01*
G75*
G02*
X136039000Y-80148500I-75000J0D01*
G01*
X134714000Y-80148500D01*
G75*
G02*
X134639000Y-80073500I0J75000D01*
G01*
X134639000Y-79923500D01*
G75*
G02*
X134714000Y-79848500I75000J0D01*
G01*
X136039000Y-79848500D01*
G75*
G02*
X136114000Y-79923500I0J-75000D01*
G01*
G37*
G36*
G01*
X136114000Y-79423500D02*
X136114000Y-79573500D01*
G75*
G02*
X136039000Y-79648500I-75000J0D01*
G01*
X134714000Y-79648500D01*
G75*
G02*
X134639000Y-79573500I0J75000D01*
G01*
X134639000Y-79423500D01*
G75*
G02*
X134714000Y-79348500I75000J0D01*
G01*
X136039000Y-79348500D01*
G75*
G02*
X136114000Y-79423500I0J-75000D01*
G01*
G37*
G36*
G01*
X136114000Y-78923500D02*
X136114000Y-79073500D01*
G75*
G02*
X136039000Y-79148500I-75000J0D01*
G01*
X134714000Y-79148500D01*
G75*
G02*
X134639000Y-79073500I0J75000D01*
G01*
X134639000Y-78923500D01*
G75*
G02*
X134714000Y-78848500I75000J0D01*
G01*
X136039000Y-78848500D01*
G75*
G02*
X136114000Y-78923500I0J-75000D01*
G01*
G37*
G36*
G01*
X136114000Y-78423500D02*
X136114000Y-78573500D01*
G75*
G02*
X136039000Y-78648500I-75000J0D01*
G01*
X134714000Y-78648500D01*
G75*
G02*
X134639000Y-78573500I0J75000D01*
G01*
X134639000Y-78423500D01*
G75*
G02*
X134714000Y-78348500I75000J0D01*
G01*
X136039000Y-78348500D01*
G75*
G02*
X136114000Y-78423500I0J-75000D01*
G01*
G37*
G36*
G01*
X136114000Y-77923500D02*
X136114000Y-78073500D01*
G75*
G02*
X136039000Y-78148500I-75000J0D01*
G01*
X134714000Y-78148500D01*
G75*
G02*
X134639000Y-78073500I0J75000D01*
G01*
X134639000Y-77923500D01*
G75*
G02*
X134714000Y-77848500I75000J0D01*
G01*
X136039000Y-77848500D01*
G75*
G02*
X136114000Y-77923500I0J-75000D01*
G01*
G37*
G36*
G01*
X136114000Y-77423500D02*
X136114000Y-77573500D01*
G75*
G02*
X136039000Y-77648500I-75000J0D01*
G01*
X134714000Y-77648500D01*
G75*
G02*
X134639000Y-77573500I0J75000D01*
G01*
X134639000Y-77423500D01*
G75*
G02*
X134714000Y-77348500I75000J0D01*
G01*
X136039000Y-77348500D01*
G75*
G02*
X136114000Y-77423500I0J-75000D01*
G01*
G37*
G36*
G01*
X136114000Y-76923500D02*
X136114000Y-77073500D01*
G75*
G02*
X136039000Y-77148500I-75000J0D01*
G01*
X134714000Y-77148500D01*
G75*
G02*
X134639000Y-77073500I0J75000D01*
G01*
X134639000Y-76923500D01*
G75*
G02*
X134714000Y-76848500I75000J0D01*
G01*
X136039000Y-76848500D01*
G75*
G02*
X136114000Y-76923500I0J-75000D01*
G01*
G37*
G36*
G01*
X136114000Y-76423500D02*
X136114000Y-76573500D01*
G75*
G02*
X136039000Y-76648500I-75000J0D01*
G01*
X134714000Y-76648500D01*
G75*
G02*
X134639000Y-76573500I0J75000D01*
G01*
X134639000Y-76423500D01*
G75*
G02*
X134714000Y-76348500I75000J0D01*
G01*
X136039000Y-76348500D01*
G75*
G02*
X136114000Y-76423500I0J-75000D01*
G01*
G37*
G36*
G01*
X136114000Y-75923500D02*
X136114000Y-76073500D01*
G75*
G02*
X136039000Y-76148500I-75000J0D01*
G01*
X134714000Y-76148500D01*
G75*
G02*
X134639000Y-76073500I0J75000D01*
G01*
X134639000Y-75923500D01*
G75*
G02*
X134714000Y-75848500I75000J0D01*
G01*
X136039000Y-75848500D01*
G75*
G02*
X136114000Y-75923500I0J-75000D01*
G01*
G37*
G36*
G01*
X136114000Y-75423500D02*
X136114000Y-75573500D01*
G75*
G02*
X136039000Y-75648500I-75000J0D01*
G01*
X134714000Y-75648500D01*
G75*
G02*
X134639000Y-75573500I0J75000D01*
G01*
X134639000Y-75423500D01*
G75*
G02*
X134714000Y-75348500I75000J0D01*
G01*
X136039000Y-75348500D01*
G75*
G02*
X136114000Y-75423500I0J-75000D01*
G01*
G37*
G36*
G01*
X136114000Y-74923500D02*
X136114000Y-75073500D01*
G75*
G02*
X136039000Y-75148500I-75000J0D01*
G01*
X134714000Y-75148500D01*
G75*
G02*
X134639000Y-75073500I0J75000D01*
G01*
X134639000Y-74923500D01*
G75*
G02*
X134714000Y-74848500I75000J0D01*
G01*
X136039000Y-74848500D01*
G75*
G02*
X136114000Y-74923500I0J-75000D01*
G01*
G37*
G36*
G01*
X136114000Y-74423500D02*
X136114000Y-74573500D01*
G75*
G02*
X136039000Y-74648500I-75000J0D01*
G01*
X134714000Y-74648500D01*
G75*
G02*
X134639000Y-74573500I0J75000D01*
G01*
X134639000Y-74423500D01*
G75*
G02*
X134714000Y-74348500I75000J0D01*
G01*
X136039000Y-74348500D01*
G75*
G02*
X136114000Y-74423500I0J-75000D01*
G01*
G37*
G36*
G01*
X133614000Y-71923500D02*
X133614000Y-73248500D01*
G75*
G02*
X133539000Y-73323500I-75000J0D01*
G01*
X133389000Y-73323500D01*
G75*
G02*
X133314000Y-73248500I0J75000D01*
G01*
X133314000Y-71923500D01*
G75*
G02*
X133389000Y-71848500I75000J0D01*
G01*
X133539000Y-71848500D01*
G75*
G02*
X133614000Y-71923500I0J-75000D01*
G01*
G37*
G36*
G01*
X133114000Y-71923500D02*
X133114000Y-73248500D01*
G75*
G02*
X133039000Y-73323500I-75000J0D01*
G01*
X132889000Y-73323500D01*
G75*
G02*
X132814000Y-73248500I0J75000D01*
G01*
X132814000Y-71923500D01*
G75*
G02*
X132889000Y-71848500I75000J0D01*
G01*
X133039000Y-71848500D01*
G75*
G02*
X133114000Y-71923500I0J-75000D01*
G01*
G37*
G36*
G01*
X132614000Y-71923500D02*
X132614000Y-73248500D01*
G75*
G02*
X132539000Y-73323500I-75000J0D01*
G01*
X132389000Y-73323500D01*
G75*
G02*
X132314000Y-73248500I0J75000D01*
G01*
X132314000Y-71923500D01*
G75*
G02*
X132389000Y-71848500I75000J0D01*
G01*
X132539000Y-71848500D01*
G75*
G02*
X132614000Y-71923500I0J-75000D01*
G01*
G37*
G36*
G01*
X132114000Y-71923500D02*
X132114000Y-73248500D01*
G75*
G02*
X132039000Y-73323500I-75000J0D01*
G01*
X131889000Y-73323500D01*
G75*
G02*
X131814000Y-73248500I0J75000D01*
G01*
X131814000Y-71923500D01*
G75*
G02*
X131889000Y-71848500I75000J0D01*
G01*
X132039000Y-71848500D01*
G75*
G02*
X132114000Y-71923500I0J-75000D01*
G01*
G37*
G36*
G01*
X131614000Y-71923500D02*
X131614000Y-73248500D01*
G75*
G02*
X131539000Y-73323500I-75000J0D01*
G01*
X131389000Y-73323500D01*
G75*
G02*
X131314000Y-73248500I0J75000D01*
G01*
X131314000Y-71923500D01*
G75*
G02*
X131389000Y-71848500I75000J0D01*
G01*
X131539000Y-71848500D01*
G75*
G02*
X131614000Y-71923500I0J-75000D01*
G01*
G37*
G36*
G01*
X131114000Y-71923500D02*
X131114000Y-73248500D01*
G75*
G02*
X131039000Y-73323500I-75000J0D01*
G01*
X130889000Y-73323500D01*
G75*
G02*
X130814000Y-73248500I0J75000D01*
G01*
X130814000Y-71923500D01*
G75*
G02*
X130889000Y-71848500I75000J0D01*
G01*
X131039000Y-71848500D01*
G75*
G02*
X131114000Y-71923500I0J-75000D01*
G01*
G37*
G36*
G01*
X130614000Y-71923500D02*
X130614000Y-73248500D01*
G75*
G02*
X130539000Y-73323500I-75000J0D01*
G01*
X130389000Y-73323500D01*
G75*
G02*
X130314000Y-73248500I0J75000D01*
G01*
X130314000Y-71923500D01*
G75*
G02*
X130389000Y-71848500I75000J0D01*
G01*
X130539000Y-71848500D01*
G75*
G02*
X130614000Y-71923500I0J-75000D01*
G01*
G37*
G36*
G01*
X130114000Y-71923500D02*
X130114000Y-73248500D01*
G75*
G02*
X130039000Y-73323500I-75000J0D01*
G01*
X129889000Y-73323500D01*
G75*
G02*
X129814000Y-73248500I0J75000D01*
G01*
X129814000Y-71923500D01*
G75*
G02*
X129889000Y-71848500I75000J0D01*
G01*
X130039000Y-71848500D01*
G75*
G02*
X130114000Y-71923500I0J-75000D01*
G01*
G37*
G36*
G01*
X129614000Y-71923500D02*
X129614000Y-73248500D01*
G75*
G02*
X129539000Y-73323500I-75000J0D01*
G01*
X129389000Y-73323500D01*
G75*
G02*
X129314000Y-73248500I0J75000D01*
G01*
X129314000Y-71923500D01*
G75*
G02*
X129389000Y-71848500I75000J0D01*
G01*
X129539000Y-71848500D01*
G75*
G02*
X129614000Y-71923500I0J-75000D01*
G01*
G37*
G36*
G01*
X129114000Y-71923500D02*
X129114000Y-73248500D01*
G75*
G02*
X129039000Y-73323500I-75000J0D01*
G01*
X128889000Y-73323500D01*
G75*
G02*
X128814000Y-73248500I0J75000D01*
G01*
X128814000Y-71923500D01*
G75*
G02*
X128889000Y-71848500I75000J0D01*
G01*
X129039000Y-71848500D01*
G75*
G02*
X129114000Y-71923500I0J-75000D01*
G01*
G37*
G36*
G01*
X128614000Y-71923500D02*
X128614000Y-73248500D01*
G75*
G02*
X128539000Y-73323500I-75000J0D01*
G01*
X128389000Y-73323500D01*
G75*
G02*
X128314000Y-73248500I0J75000D01*
G01*
X128314000Y-71923500D01*
G75*
G02*
X128389000Y-71848500I75000J0D01*
G01*
X128539000Y-71848500D01*
G75*
G02*
X128614000Y-71923500I0J-75000D01*
G01*
G37*
G36*
G01*
X128114000Y-71923500D02*
X128114000Y-73248500D01*
G75*
G02*
X128039000Y-73323500I-75000J0D01*
G01*
X127889000Y-73323500D01*
G75*
G02*
X127814000Y-73248500I0J75000D01*
G01*
X127814000Y-71923500D01*
G75*
G02*
X127889000Y-71848500I75000J0D01*
G01*
X128039000Y-71848500D01*
G75*
G02*
X128114000Y-71923500I0J-75000D01*
G01*
G37*
G36*
G01*
X127614000Y-71923500D02*
X127614000Y-73248500D01*
G75*
G02*
X127539000Y-73323500I-75000J0D01*
G01*
X127389000Y-73323500D01*
G75*
G02*
X127314000Y-73248500I0J75000D01*
G01*
X127314000Y-71923500D01*
G75*
G02*
X127389000Y-71848500I75000J0D01*
G01*
X127539000Y-71848500D01*
G75*
G02*
X127614000Y-71923500I0J-75000D01*
G01*
G37*
G36*
G01*
X127114000Y-71923500D02*
X127114000Y-73248500D01*
G75*
G02*
X127039000Y-73323500I-75000J0D01*
G01*
X126889000Y-73323500D01*
G75*
G02*
X126814000Y-73248500I0J75000D01*
G01*
X126814000Y-71923500D01*
G75*
G02*
X126889000Y-71848500I75000J0D01*
G01*
X127039000Y-71848500D01*
G75*
G02*
X127114000Y-71923500I0J-75000D01*
G01*
G37*
G36*
G01*
X126614000Y-71923500D02*
X126614000Y-73248500D01*
G75*
G02*
X126539000Y-73323500I-75000J0D01*
G01*
X126389000Y-73323500D01*
G75*
G02*
X126314000Y-73248500I0J75000D01*
G01*
X126314000Y-71923500D01*
G75*
G02*
X126389000Y-71848500I75000J0D01*
G01*
X126539000Y-71848500D01*
G75*
G02*
X126614000Y-71923500I0J-75000D01*
G01*
G37*
G36*
G01*
X126114000Y-71923500D02*
X126114000Y-73248500D01*
G75*
G02*
X126039000Y-73323500I-75000J0D01*
G01*
X125889000Y-73323500D01*
G75*
G02*
X125814000Y-73248500I0J75000D01*
G01*
X125814000Y-71923500D01*
G75*
G02*
X125889000Y-71848500I75000J0D01*
G01*
X126039000Y-71848500D01*
G75*
G02*
X126114000Y-71923500I0J-75000D01*
G01*
G37*
G36*
G01*
X125614000Y-71923500D02*
X125614000Y-73248500D01*
G75*
G02*
X125539000Y-73323500I-75000J0D01*
G01*
X125389000Y-73323500D01*
G75*
G02*
X125314000Y-73248500I0J75000D01*
G01*
X125314000Y-71923500D01*
G75*
G02*
X125389000Y-71848500I75000J0D01*
G01*
X125539000Y-71848500D01*
G75*
G02*
X125614000Y-71923500I0J-75000D01*
G01*
G37*
G36*
G01*
X125114000Y-71923500D02*
X125114000Y-73248500D01*
G75*
G02*
X125039000Y-73323500I-75000J0D01*
G01*
X124889000Y-73323500D01*
G75*
G02*
X124814000Y-73248500I0J75000D01*
G01*
X124814000Y-71923500D01*
G75*
G02*
X124889000Y-71848500I75000J0D01*
G01*
X125039000Y-71848500D01*
G75*
G02*
X125114000Y-71923500I0J-75000D01*
G01*
G37*
G36*
G01*
X124614000Y-71923500D02*
X124614000Y-73248500D01*
G75*
G02*
X124539000Y-73323500I-75000J0D01*
G01*
X124389000Y-73323500D01*
G75*
G02*
X124314000Y-73248500I0J75000D01*
G01*
X124314000Y-71923500D01*
G75*
G02*
X124389000Y-71848500I75000J0D01*
G01*
X124539000Y-71848500D01*
G75*
G02*
X124614000Y-71923500I0J-75000D01*
G01*
G37*
G36*
G01*
X124114000Y-71923500D02*
X124114000Y-73248500D01*
G75*
G02*
X124039000Y-73323500I-75000J0D01*
G01*
X123889000Y-73323500D01*
G75*
G02*
X123814000Y-73248500I0J75000D01*
G01*
X123814000Y-71923500D01*
G75*
G02*
X123889000Y-71848500I75000J0D01*
G01*
X124039000Y-71848500D01*
G75*
G02*
X124114000Y-71923500I0J-75000D01*
G01*
G37*
G36*
G01*
X123614000Y-71923500D02*
X123614000Y-73248500D01*
G75*
G02*
X123539000Y-73323500I-75000J0D01*
G01*
X123389000Y-73323500D01*
G75*
G02*
X123314000Y-73248500I0J75000D01*
G01*
X123314000Y-71923500D01*
G75*
G02*
X123389000Y-71848500I75000J0D01*
G01*
X123539000Y-71848500D01*
G75*
G02*
X123614000Y-71923500I0J-75000D01*
G01*
G37*
G36*
G01*
X123114000Y-71923500D02*
X123114000Y-73248500D01*
G75*
G02*
X123039000Y-73323500I-75000J0D01*
G01*
X122889000Y-73323500D01*
G75*
G02*
X122814000Y-73248500I0J75000D01*
G01*
X122814000Y-71923500D01*
G75*
G02*
X122889000Y-71848500I75000J0D01*
G01*
X123039000Y-71848500D01*
G75*
G02*
X123114000Y-71923500I0J-75000D01*
G01*
G37*
G36*
G01*
X122614000Y-71923500D02*
X122614000Y-73248500D01*
G75*
G02*
X122539000Y-73323500I-75000J0D01*
G01*
X122389000Y-73323500D01*
G75*
G02*
X122314000Y-73248500I0J75000D01*
G01*
X122314000Y-71923500D01*
G75*
G02*
X122389000Y-71848500I75000J0D01*
G01*
X122539000Y-71848500D01*
G75*
G02*
X122614000Y-71923500I0J-75000D01*
G01*
G37*
G36*
G01*
X122114000Y-71923500D02*
X122114000Y-73248500D01*
G75*
G02*
X122039000Y-73323500I-75000J0D01*
G01*
X121889000Y-73323500D01*
G75*
G02*
X121814000Y-73248500I0J75000D01*
G01*
X121814000Y-71923500D01*
G75*
G02*
X121889000Y-71848500I75000J0D01*
G01*
X122039000Y-71848500D01*
G75*
G02*
X122114000Y-71923500I0J-75000D01*
G01*
G37*
G36*
G01*
X121614000Y-71923500D02*
X121614000Y-73248500D01*
G75*
G02*
X121539000Y-73323500I-75000J0D01*
G01*
X121389000Y-73323500D01*
G75*
G02*
X121314000Y-73248500I0J75000D01*
G01*
X121314000Y-71923500D01*
G75*
G02*
X121389000Y-71848500I75000J0D01*
G01*
X121539000Y-71848500D01*
G75*
G02*
X121614000Y-71923500I0J-75000D01*
G01*
G37*
G36*
G01*
X121114000Y-71923500D02*
X121114000Y-73248500D01*
G75*
G02*
X121039000Y-73323500I-75000J0D01*
G01*
X120889000Y-73323500D01*
G75*
G02*
X120814000Y-73248500I0J75000D01*
G01*
X120814000Y-71923500D01*
G75*
G02*
X120889000Y-71848500I75000J0D01*
G01*
X121039000Y-71848500D01*
G75*
G02*
X121114000Y-71923500I0J-75000D01*
G01*
G37*
G36*
G01*
X120614000Y-71923500D02*
X120614000Y-73248500D01*
G75*
G02*
X120539000Y-73323500I-75000J0D01*
G01*
X120389000Y-73323500D01*
G75*
G02*
X120314000Y-73248500I0J75000D01*
G01*
X120314000Y-71923500D01*
G75*
G02*
X120389000Y-71848500I75000J0D01*
G01*
X120539000Y-71848500D01*
G75*
G02*
X120614000Y-71923500I0J-75000D01*
G01*
G37*
G36*
G01*
X120114000Y-71923500D02*
X120114000Y-73248500D01*
G75*
G02*
X120039000Y-73323500I-75000J0D01*
G01*
X119889000Y-73323500D01*
G75*
G02*
X119814000Y-73248500I0J75000D01*
G01*
X119814000Y-71923500D01*
G75*
G02*
X119889000Y-71848500I75000J0D01*
G01*
X120039000Y-71848500D01*
G75*
G02*
X120114000Y-71923500I0J-75000D01*
G01*
G37*
G36*
G01*
X119614000Y-71923500D02*
X119614000Y-73248500D01*
G75*
G02*
X119539000Y-73323500I-75000J0D01*
G01*
X119389000Y-73323500D01*
G75*
G02*
X119314000Y-73248500I0J75000D01*
G01*
X119314000Y-71923500D01*
G75*
G02*
X119389000Y-71848500I75000J0D01*
G01*
X119539000Y-71848500D01*
G75*
G02*
X119614000Y-71923500I0J-75000D01*
G01*
G37*
G36*
G01*
X119114000Y-71923500D02*
X119114000Y-73248500D01*
G75*
G02*
X119039000Y-73323500I-75000J0D01*
G01*
X118889000Y-73323500D01*
G75*
G02*
X118814000Y-73248500I0J75000D01*
G01*
X118814000Y-71923500D01*
G75*
G02*
X118889000Y-71848500I75000J0D01*
G01*
X119039000Y-71848500D01*
G75*
G02*
X119114000Y-71923500I0J-75000D01*
G01*
G37*
G36*
G01*
X118614000Y-71923500D02*
X118614000Y-73248500D01*
G75*
G02*
X118539000Y-73323500I-75000J0D01*
G01*
X118389000Y-73323500D01*
G75*
G02*
X118314000Y-73248500I0J75000D01*
G01*
X118314000Y-71923500D01*
G75*
G02*
X118389000Y-71848500I75000J0D01*
G01*
X118539000Y-71848500D01*
G75*
G02*
X118614000Y-71923500I0J-75000D01*
G01*
G37*
G36*
G01*
X118114000Y-71923500D02*
X118114000Y-73248500D01*
G75*
G02*
X118039000Y-73323500I-75000J0D01*
G01*
X117889000Y-73323500D01*
G75*
G02*
X117814000Y-73248500I0J75000D01*
G01*
X117814000Y-71923500D01*
G75*
G02*
X117889000Y-71848500I75000J0D01*
G01*
X118039000Y-71848500D01*
G75*
G02*
X118114000Y-71923500I0J-75000D01*
G01*
G37*
G36*
G01*
X117614000Y-71923500D02*
X117614000Y-73248500D01*
G75*
G02*
X117539000Y-73323500I-75000J0D01*
G01*
X117389000Y-73323500D01*
G75*
G02*
X117314000Y-73248500I0J75000D01*
G01*
X117314000Y-71923500D01*
G75*
G02*
X117389000Y-71848500I75000J0D01*
G01*
X117539000Y-71848500D01*
G75*
G02*
X117614000Y-71923500I0J-75000D01*
G01*
G37*
G36*
G01*
X117114000Y-71923500D02*
X117114000Y-73248500D01*
G75*
G02*
X117039000Y-73323500I-75000J0D01*
G01*
X116889000Y-73323500D01*
G75*
G02*
X116814000Y-73248500I0J75000D01*
G01*
X116814000Y-71923500D01*
G75*
G02*
X116889000Y-71848500I75000J0D01*
G01*
X117039000Y-71848500D01*
G75*
G02*
X117114000Y-71923500I0J-75000D01*
G01*
G37*
G36*
G01*
X116614000Y-71923500D02*
X116614000Y-73248500D01*
G75*
G02*
X116539000Y-73323500I-75000J0D01*
G01*
X116389000Y-73323500D01*
G75*
G02*
X116314000Y-73248500I0J75000D01*
G01*
X116314000Y-71923500D01*
G75*
G02*
X116389000Y-71848500I75000J0D01*
G01*
X116539000Y-71848500D01*
G75*
G02*
X116614000Y-71923500I0J-75000D01*
G01*
G37*
G36*
G01*
X116114000Y-71923500D02*
X116114000Y-73248500D01*
G75*
G02*
X116039000Y-73323500I-75000J0D01*
G01*
X115889000Y-73323500D01*
G75*
G02*
X115814000Y-73248500I0J75000D01*
G01*
X115814000Y-71923500D01*
G75*
G02*
X115889000Y-71848500I75000J0D01*
G01*
X116039000Y-71848500D01*
G75*
G02*
X116114000Y-71923500I0J-75000D01*
G01*
G37*
G36*
G01*
X114789000Y-74423500D02*
X114789000Y-74573500D01*
G75*
G02*
X114714000Y-74648500I-75000J0D01*
G01*
X113389000Y-74648500D01*
G75*
G02*
X113314000Y-74573500I0J75000D01*
G01*
X113314000Y-74423500D01*
G75*
G02*
X113389000Y-74348500I75000J0D01*
G01*
X114714000Y-74348500D01*
G75*
G02*
X114789000Y-74423500I0J-75000D01*
G01*
G37*
G36*
G01*
X114789000Y-74923500D02*
X114789000Y-75073500D01*
G75*
G02*
X114714000Y-75148500I-75000J0D01*
G01*
X113389000Y-75148500D01*
G75*
G02*
X113314000Y-75073500I0J75000D01*
G01*
X113314000Y-74923500D01*
G75*
G02*
X113389000Y-74848500I75000J0D01*
G01*
X114714000Y-74848500D01*
G75*
G02*
X114789000Y-74923500I0J-75000D01*
G01*
G37*
G36*
G01*
X114789000Y-75423500D02*
X114789000Y-75573500D01*
G75*
G02*
X114714000Y-75648500I-75000J0D01*
G01*
X113389000Y-75648500D01*
G75*
G02*
X113314000Y-75573500I0J75000D01*
G01*
X113314000Y-75423500D01*
G75*
G02*
X113389000Y-75348500I75000J0D01*
G01*
X114714000Y-75348500D01*
G75*
G02*
X114789000Y-75423500I0J-75000D01*
G01*
G37*
G36*
G01*
X114789000Y-75923500D02*
X114789000Y-76073500D01*
G75*
G02*
X114714000Y-76148500I-75000J0D01*
G01*
X113389000Y-76148500D01*
G75*
G02*
X113314000Y-76073500I0J75000D01*
G01*
X113314000Y-75923500D01*
G75*
G02*
X113389000Y-75848500I75000J0D01*
G01*
X114714000Y-75848500D01*
G75*
G02*
X114789000Y-75923500I0J-75000D01*
G01*
G37*
G36*
G01*
X114789000Y-76423500D02*
X114789000Y-76573500D01*
G75*
G02*
X114714000Y-76648500I-75000J0D01*
G01*
X113389000Y-76648500D01*
G75*
G02*
X113314000Y-76573500I0J75000D01*
G01*
X113314000Y-76423500D01*
G75*
G02*
X113389000Y-76348500I75000J0D01*
G01*
X114714000Y-76348500D01*
G75*
G02*
X114789000Y-76423500I0J-75000D01*
G01*
G37*
G36*
G01*
X114789000Y-76923500D02*
X114789000Y-77073500D01*
G75*
G02*
X114714000Y-77148500I-75000J0D01*
G01*
X113389000Y-77148500D01*
G75*
G02*
X113314000Y-77073500I0J75000D01*
G01*
X113314000Y-76923500D01*
G75*
G02*
X113389000Y-76848500I75000J0D01*
G01*
X114714000Y-76848500D01*
G75*
G02*
X114789000Y-76923500I0J-75000D01*
G01*
G37*
G36*
G01*
X114789000Y-77423500D02*
X114789000Y-77573500D01*
G75*
G02*
X114714000Y-77648500I-75000J0D01*
G01*
X113389000Y-77648500D01*
G75*
G02*
X113314000Y-77573500I0J75000D01*
G01*
X113314000Y-77423500D01*
G75*
G02*
X113389000Y-77348500I75000J0D01*
G01*
X114714000Y-77348500D01*
G75*
G02*
X114789000Y-77423500I0J-75000D01*
G01*
G37*
G36*
G01*
X114789000Y-77923500D02*
X114789000Y-78073500D01*
G75*
G02*
X114714000Y-78148500I-75000J0D01*
G01*
X113389000Y-78148500D01*
G75*
G02*
X113314000Y-78073500I0J75000D01*
G01*
X113314000Y-77923500D01*
G75*
G02*
X113389000Y-77848500I75000J0D01*
G01*
X114714000Y-77848500D01*
G75*
G02*
X114789000Y-77923500I0J-75000D01*
G01*
G37*
G36*
G01*
X114789000Y-78423500D02*
X114789000Y-78573500D01*
G75*
G02*
X114714000Y-78648500I-75000J0D01*
G01*
X113389000Y-78648500D01*
G75*
G02*
X113314000Y-78573500I0J75000D01*
G01*
X113314000Y-78423500D01*
G75*
G02*
X113389000Y-78348500I75000J0D01*
G01*
X114714000Y-78348500D01*
G75*
G02*
X114789000Y-78423500I0J-75000D01*
G01*
G37*
G36*
G01*
X114789000Y-78923500D02*
X114789000Y-79073500D01*
G75*
G02*
X114714000Y-79148500I-75000J0D01*
G01*
X113389000Y-79148500D01*
G75*
G02*
X113314000Y-79073500I0J75000D01*
G01*
X113314000Y-78923500D01*
G75*
G02*
X113389000Y-78848500I75000J0D01*
G01*
X114714000Y-78848500D01*
G75*
G02*
X114789000Y-78923500I0J-75000D01*
G01*
G37*
G36*
G01*
X114789000Y-79423500D02*
X114789000Y-79573500D01*
G75*
G02*
X114714000Y-79648500I-75000J0D01*
G01*
X113389000Y-79648500D01*
G75*
G02*
X113314000Y-79573500I0J75000D01*
G01*
X113314000Y-79423500D01*
G75*
G02*
X113389000Y-79348500I75000J0D01*
G01*
X114714000Y-79348500D01*
G75*
G02*
X114789000Y-79423500I0J-75000D01*
G01*
G37*
G36*
G01*
X114789000Y-79923500D02*
X114789000Y-80073500D01*
G75*
G02*
X114714000Y-80148500I-75000J0D01*
G01*
X113389000Y-80148500D01*
G75*
G02*
X113314000Y-80073500I0J75000D01*
G01*
X113314000Y-79923500D01*
G75*
G02*
X113389000Y-79848500I75000J0D01*
G01*
X114714000Y-79848500D01*
G75*
G02*
X114789000Y-79923500I0J-75000D01*
G01*
G37*
G36*
G01*
X114789000Y-80423500D02*
X114789000Y-80573500D01*
G75*
G02*
X114714000Y-80648500I-75000J0D01*
G01*
X113389000Y-80648500D01*
G75*
G02*
X113314000Y-80573500I0J75000D01*
G01*
X113314000Y-80423500D01*
G75*
G02*
X113389000Y-80348500I75000J0D01*
G01*
X114714000Y-80348500D01*
G75*
G02*
X114789000Y-80423500I0J-75000D01*
G01*
G37*
G36*
G01*
X114789000Y-80923500D02*
X114789000Y-81073500D01*
G75*
G02*
X114714000Y-81148500I-75000J0D01*
G01*
X113389000Y-81148500D01*
G75*
G02*
X113314000Y-81073500I0J75000D01*
G01*
X113314000Y-80923500D01*
G75*
G02*
X113389000Y-80848500I75000J0D01*
G01*
X114714000Y-80848500D01*
G75*
G02*
X114789000Y-80923500I0J-75000D01*
G01*
G37*
G36*
G01*
X114789000Y-81423500D02*
X114789000Y-81573500D01*
G75*
G02*
X114714000Y-81648500I-75000J0D01*
G01*
X113389000Y-81648500D01*
G75*
G02*
X113314000Y-81573500I0J75000D01*
G01*
X113314000Y-81423500D01*
G75*
G02*
X113389000Y-81348500I75000J0D01*
G01*
X114714000Y-81348500D01*
G75*
G02*
X114789000Y-81423500I0J-75000D01*
G01*
G37*
G36*
G01*
X114789000Y-81923500D02*
X114789000Y-82073500D01*
G75*
G02*
X114714000Y-82148500I-75000J0D01*
G01*
X113389000Y-82148500D01*
G75*
G02*
X113314000Y-82073500I0J75000D01*
G01*
X113314000Y-81923500D01*
G75*
G02*
X113389000Y-81848500I75000J0D01*
G01*
X114714000Y-81848500D01*
G75*
G02*
X114789000Y-81923500I0J-75000D01*
G01*
G37*
G36*
G01*
X114789000Y-82423500D02*
X114789000Y-82573500D01*
G75*
G02*
X114714000Y-82648500I-75000J0D01*
G01*
X113389000Y-82648500D01*
G75*
G02*
X113314000Y-82573500I0J75000D01*
G01*
X113314000Y-82423500D01*
G75*
G02*
X113389000Y-82348500I75000J0D01*
G01*
X114714000Y-82348500D01*
G75*
G02*
X114789000Y-82423500I0J-75000D01*
G01*
G37*
G36*
G01*
X114789000Y-82923500D02*
X114789000Y-83073500D01*
G75*
G02*
X114714000Y-83148500I-75000J0D01*
G01*
X113389000Y-83148500D01*
G75*
G02*
X113314000Y-83073500I0J75000D01*
G01*
X113314000Y-82923500D01*
G75*
G02*
X113389000Y-82848500I75000J0D01*
G01*
X114714000Y-82848500D01*
G75*
G02*
X114789000Y-82923500I0J-75000D01*
G01*
G37*
G36*
G01*
X114789000Y-83423500D02*
X114789000Y-83573500D01*
G75*
G02*
X114714000Y-83648500I-75000J0D01*
G01*
X113389000Y-83648500D01*
G75*
G02*
X113314000Y-83573500I0J75000D01*
G01*
X113314000Y-83423500D01*
G75*
G02*
X113389000Y-83348500I75000J0D01*
G01*
X114714000Y-83348500D01*
G75*
G02*
X114789000Y-83423500I0J-75000D01*
G01*
G37*
G36*
G01*
X114789000Y-83923500D02*
X114789000Y-84073500D01*
G75*
G02*
X114714000Y-84148500I-75000J0D01*
G01*
X113389000Y-84148500D01*
G75*
G02*
X113314000Y-84073500I0J75000D01*
G01*
X113314000Y-83923500D01*
G75*
G02*
X113389000Y-83848500I75000J0D01*
G01*
X114714000Y-83848500D01*
G75*
G02*
X114789000Y-83923500I0J-75000D01*
G01*
G37*
G36*
G01*
X114789000Y-84423500D02*
X114789000Y-84573500D01*
G75*
G02*
X114714000Y-84648500I-75000J0D01*
G01*
X113389000Y-84648500D01*
G75*
G02*
X113314000Y-84573500I0J75000D01*
G01*
X113314000Y-84423500D01*
G75*
G02*
X113389000Y-84348500I75000J0D01*
G01*
X114714000Y-84348500D01*
G75*
G02*
X114789000Y-84423500I0J-75000D01*
G01*
G37*
G36*
G01*
X114789000Y-84923500D02*
X114789000Y-85073500D01*
G75*
G02*
X114714000Y-85148500I-75000J0D01*
G01*
X113389000Y-85148500D01*
G75*
G02*
X113314000Y-85073500I0J75000D01*
G01*
X113314000Y-84923500D01*
G75*
G02*
X113389000Y-84848500I75000J0D01*
G01*
X114714000Y-84848500D01*
G75*
G02*
X114789000Y-84923500I0J-75000D01*
G01*
G37*
G36*
G01*
X114789000Y-85423500D02*
X114789000Y-85573500D01*
G75*
G02*
X114714000Y-85648500I-75000J0D01*
G01*
X113389000Y-85648500D01*
G75*
G02*
X113314000Y-85573500I0J75000D01*
G01*
X113314000Y-85423500D01*
G75*
G02*
X113389000Y-85348500I75000J0D01*
G01*
X114714000Y-85348500D01*
G75*
G02*
X114789000Y-85423500I0J-75000D01*
G01*
G37*
G36*
G01*
X114789000Y-85923500D02*
X114789000Y-86073500D01*
G75*
G02*
X114714000Y-86148500I-75000J0D01*
G01*
X113389000Y-86148500D01*
G75*
G02*
X113314000Y-86073500I0J75000D01*
G01*
X113314000Y-85923500D01*
G75*
G02*
X113389000Y-85848500I75000J0D01*
G01*
X114714000Y-85848500D01*
G75*
G02*
X114789000Y-85923500I0J-75000D01*
G01*
G37*
G36*
G01*
X114789000Y-86423500D02*
X114789000Y-86573500D01*
G75*
G02*
X114714000Y-86648500I-75000J0D01*
G01*
X113389000Y-86648500D01*
G75*
G02*
X113314000Y-86573500I0J75000D01*
G01*
X113314000Y-86423500D01*
G75*
G02*
X113389000Y-86348500I75000J0D01*
G01*
X114714000Y-86348500D01*
G75*
G02*
X114789000Y-86423500I0J-75000D01*
G01*
G37*
G36*
G01*
X114789000Y-86923500D02*
X114789000Y-87073500D01*
G75*
G02*
X114714000Y-87148500I-75000J0D01*
G01*
X113389000Y-87148500D01*
G75*
G02*
X113314000Y-87073500I0J75000D01*
G01*
X113314000Y-86923500D01*
G75*
G02*
X113389000Y-86848500I75000J0D01*
G01*
X114714000Y-86848500D01*
G75*
G02*
X114789000Y-86923500I0J-75000D01*
G01*
G37*
G36*
G01*
X114789000Y-87423500D02*
X114789000Y-87573500D01*
G75*
G02*
X114714000Y-87648500I-75000J0D01*
G01*
X113389000Y-87648500D01*
G75*
G02*
X113314000Y-87573500I0J75000D01*
G01*
X113314000Y-87423500D01*
G75*
G02*
X113389000Y-87348500I75000J0D01*
G01*
X114714000Y-87348500D01*
G75*
G02*
X114789000Y-87423500I0J-75000D01*
G01*
G37*
G36*
G01*
X114789000Y-87923500D02*
X114789000Y-88073500D01*
G75*
G02*
X114714000Y-88148500I-75000J0D01*
G01*
X113389000Y-88148500D01*
G75*
G02*
X113314000Y-88073500I0J75000D01*
G01*
X113314000Y-87923500D01*
G75*
G02*
X113389000Y-87848500I75000J0D01*
G01*
X114714000Y-87848500D01*
G75*
G02*
X114789000Y-87923500I0J-75000D01*
G01*
G37*
G36*
G01*
X114789000Y-88423500D02*
X114789000Y-88573500D01*
G75*
G02*
X114714000Y-88648500I-75000J0D01*
G01*
X113389000Y-88648500D01*
G75*
G02*
X113314000Y-88573500I0J75000D01*
G01*
X113314000Y-88423500D01*
G75*
G02*
X113389000Y-88348500I75000J0D01*
G01*
X114714000Y-88348500D01*
G75*
G02*
X114789000Y-88423500I0J-75000D01*
G01*
G37*
G36*
G01*
X114789000Y-88923500D02*
X114789000Y-89073500D01*
G75*
G02*
X114714000Y-89148500I-75000J0D01*
G01*
X113389000Y-89148500D01*
G75*
G02*
X113314000Y-89073500I0J75000D01*
G01*
X113314000Y-88923500D01*
G75*
G02*
X113389000Y-88848500I75000J0D01*
G01*
X114714000Y-88848500D01*
G75*
G02*
X114789000Y-88923500I0J-75000D01*
G01*
G37*
G36*
G01*
X114789000Y-89423500D02*
X114789000Y-89573500D01*
G75*
G02*
X114714000Y-89648500I-75000J0D01*
G01*
X113389000Y-89648500D01*
G75*
G02*
X113314000Y-89573500I0J75000D01*
G01*
X113314000Y-89423500D01*
G75*
G02*
X113389000Y-89348500I75000J0D01*
G01*
X114714000Y-89348500D01*
G75*
G02*
X114789000Y-89423500I0J-75000D01*
G01*
G37*
G36*
G01*
X114789000Y-89923500D02*
X114789000Y-90073500D01*
G75*
G02*
X114714000Y-90148500I-75000J0D01*
G01*
X113389000Y-90148500D01*
G75*
G02*
X113314000Y-90073500I0J75000D01*
G01*
X113314000Y-89923500D01*
G75*
G02*
X113389000Y-89848500I75000J0D01*
G01*
X114714000Y-89848500D01*
G75*
G02*
X114789000Y-89923500I0J-75000D01*
G01*
G37*
G36*
G01*
X114789000Y-90423500D02*
X114789000Y-90573500D01*
G75*
G02*
X114714000Y-90648500I-75000J0D01*
G01*
X113389000Y-90648500D01*
G75*
G02*
X113314000Y-90573500I0J75000D01*
G01*
X113314000Y-90423500D01*
G75*
G02*
X113389000Y-90348500I75000J0D01*
G01*
X114714000Y-90348500D01*
G75*
G02*
X114789000Y-90423500I0J-75000D01*
G01*
G37*
G36*
G01*
X114789000Y-90923500D02*
X114789000Y-91073500D01*
G75*
G02*
X114714000Y-91148500I-75000J0D01*
G01*
X113389000Y-91148500D01*
G75*
G02*
X113314000Y-91073500I0J75000D01*
G01*
X113314000Y-90923500D01*
G75*
G02*
X113389000Y-90848500I75000J0D01*
G01*
X114714000Y-90848500D01*
G75*
G02*
X114789000Y-90923500I0J-75000D01*
G01*
G37*
G36*
G01*
X114789000Y-91423500D02*
X114789000Y-91573500D01*
G75*
G02*
X114714000Y-91648500I-75000J0D01*
G01*
X113389000Y-91648500D01*
G75*
G02*
X113314000Y-91573500I0J75000D01*
G01*
X113314000Y-91423500D01*
G75*
G02*
X113389000Y-91348500I75000J0D01*
G01*
X114714000Y-91348500D01*
G75*
G02*
X114789000Y-91423500I0J-75000D01*
G01*
G37*
G36*
G01*
X114789000Y-91923500D02*
X114789000Y-92073500D01*
G75*
G02*
X114714000Y-92148500I-75000J0D01*
G01*
X113389000Y-92148500D01*
G75*
G02*
X113314000Y-92073500I0J75000D01*
G01*
X113314000Y-91923500D01*
G75*
G02*
X113389000Y-91848500I75000J0D01*
G01*
X114714000Y-91848500D01*
G75*
G02*
X114789000Y-91923500I0J-75000D01*
G01*
G37*
G36*
G01*
X116114000Y-93248500D02*
X116114000Y-94573500D01*
G75*
G02*
X116039000Y-94648500I-75000J0D01*
G01*
X115889000Y-94648500D01*
G75*
G02*
X115814000Y-94573500I0J75000D01*
G01*
X115814000Y-93248500D01*
G75*
G02*
X115889000Y-93173500I75000J0D01*
G01*
X116039000Y-93173500D01*
G75*
G02*
X116114000Y-93248500I0J-75000D01*
G01*
G37*
G36*
G01*
X116614000Y-93248500D02*
X116614000Y-94573500D01*
G75*
G02*
X116539000Y-94648500I-75000J0D01*
G01*
X116389000Y-94648500D01*
G75*
G02*
X116314000Y-94573500I0J75000D01*
G01*
X116314000Y-93248500D01*
G75*
G02*
X116389000Y-93173500I75000J0D01*
G01*
X116539000Y-93173500D01*
G75*
G02*
X116614000Y-93248500I0J-75000D01*
G01*
G37*
G36*
G01*
X117114000Y-93248500D02*
X117114000Y-94573500D01*
G75*
G02*
X117039000Y-94648500I-75000J0D01*
G01*
X116889000Y-94648500D01*
G75*
G02*
X116814000Y-94573500I0J75000D01*
G01*
X116814000Y-93248500D01*
G75*
G02*
X116889000Y-93173500I75000J0D01*
G01*
X117039000Y-93173500D01*
G75*
G02*
X117114000Y-93248500I0J-75000D01*
G01*
G37*
G36*
G01*
X117614000Y-93248500D02*
X117614000Y-94573500D01*
G75*
G02*
X117539000Y-94648500I-75000J0D01*
G01*
X117389000Y-94648500D01*
G75*
G02*
X117314000Y-94573500I0J75000D01*
G01*
X117314000Y-93248500D01*
G75*
G02*
X117389000Y-93173500I75000J0D01*
G01*
X117539000Y-93173500D01*
G75*
G02*
X117614000Y-93248500I0J-75000D01*
G01*
G37*
G36*
G01*
X118114000Y-93248500D02*
X118114000Y-94573500D01*
G75*
G02*
X118039000Y-94648500I-75000J0D01*
G01*
X117889000Y-94648500D01*
G75*
G02*
X117814000Y-94573500I0J75000D01*
G01*
X117814000Y-93248500D01*
G75*
G02*
X117889000Y-93173500I75000J0D01*
G01*
X118039000Y-93173500D01*
G75*
G02*
X118114000Y-93248500I0J-75000D01*
G01*
G37*
G36*
G01*
X118614000Y-93248500D02*
X118614000Y-94573500D01*
G75*
G02*
X118539000Y-94648500I-75000J0D01*
G01*
X118389000Y-94648500D01*
G75*
G02*
X118314000Y-94573500I0J75000D01*
G01*
X118314000Y-93248500D01*
G75*
G02*
X118389000Y-93173500I75000J0D01*
G01*
X118539000Y-93173500D01*
G75*
G02*
X118614000Y-93248500I0J-75000D01*
G01*
G37*
G36*
G01*
X119114000Y-93248500D02*
X119114000Y-94573500D01*
G75*
G02*
X119039000Y-94648500I-75000J0D01*
G01*
X118889000Y-94648500D01*
G75*
G02*
X118814000Y-94573500I0J75000D01*
G01*
X118814000Y-93248500D01*
G75*
G02*
X118889000Y-93173500I75000J0D01*
G01*
X119039000Y-93173500D01*
G75*
G02*
X119114000Y-93248500I0J-75000D01*
G01*
G37*
G36*
G01*
X119614000Y-93248500D02*
X119614000Y-94573500D01*
G75*
G02*
X119539000Y-94648500I-75000J0D01*
G01*
X119389000Y-94648500D01*
G75*
G02*
X119314000Y-94573500I0J75000D01*
G01*
X119314000Y-93248500D01*
G75*
G02*
X119389000Y-93173500I75000J0D01*
G01*
X119539000Y-93173500D01*
G75*
G02*
X119614000Y-93248500I0J-75000D01*
G01*
G37*
G36*
G01*
X120114000Y-93248500D02*
X120114000Y-94573500D01*
G75*
G02*
X120039000Y-94648500I-75000J0D01*
G01*
X119889000Y-94648500D01*
G75*
G02*
X119814000Y-94573500I0J75000D01*
G01*
X119814000Y-93248500D01*
G75*
G02*
X119889000Y-93173500I75000J0D01*
G01*
X120039000Y-93173500D01*
G75*
G02*
X120114000Y-93248500I0J-75000D01*
G01*
G37*
G36*
G01*
X120614000Y-93248500D02*
X120614000Y-94573500D01*
G75*
G02*
X120539000Y-94648500I-75000J0D01*
G01*
X120389000Y-94648500D01*
G75*
G02*
X120314000Y-94573500I0J75000D01*
G01*
X120314000Y-93248500D01*
G75*
G02*
X120389000Y-93173500I75000J0D01*
G01*
X120539000Y-93173500D01*
G75*
G02*
X120614000Y-93248500I0J-75000D01*
G01*
G37*
G36*
G01*
X121114000Y-93248500D02*
X121114000Y-94573500D01*
G75*
G02*
X121039000Y-94648500I-75000J0D01*
G01*
X120889000Y-94648500D01*
G75*
G02*
X120814000Y-94573500I0J75000D01*
G01*
X120814000Y-93248500D01*
G75*
G02*
X120889000Y-93173500I75000J0D01*
G01*
X121039000Y-93173500D01*
G75*
G02*
X121114000Y-93248500I0J-75000D01*
G01*
G37*
G36*
G01*
X121614000Y-93248500D02*
X121614000Y-94573500D01*
G75*
G02*
X121539000Y-94648500I-75000J0D01*
G01*
X121389000Y-94648500D01*
G75*
G02*
X121314000Y-94573500I0J75000D01*
G01*
X121314000Y-93248500D01*
G75*
G02*
X121389000Y-93173500I75000J0D01*
G01*
X121539000Y-93173500D01*
G75*
G02*
X121614000Y-93248500I0J-75000D01*
G01*
G37*
G36*
G01*
X122114000Y-93248500D02*
X122114000Y-94573500D01*
G75*
G02*
X122039000Y-94648500I-75000J0D01*
G01*
X121889000Y-94648500D01*
G75*
G02*
X121814000Y-94573500I0J75000D01*
G01*
X121814000Y-93248500D01*
G75*
G02*
X121889000Y-93173500I75000J0D01*
G01*
X122039000Y-93173500D01*
G75*
G02*
X122114000Y-93248500I0J-75000D01*
G01*
G37*
G36*
G01*
X122614000Y-93248500D02*
X122614000Y-94573500D01*
G75*
G02*
X122539000Y-94648500I-75000J0D01*
G01*
X122389000Y-94648500D01*
G75*
G02*
X122314000Y-94573500I0J75000D01*
G01*
X122314000Y-93248500D01*
G75*
G02*
X122389000Y-93173500I75000J0D01*
G01*
X122539000Y-93173500D01*
G75*
G02*
X122614000Y-93248500I0J-75000D01*
G01*
G37*
G36*
G01*
X123114000Y-93248500D02*
X123114000Y-94573500D01*
G75*
G02*
X123039000Y-94648500I-75000J0D01*
G01*
X122889000Y-94648500D01*
G75*
G02*
X122814000Y-94573500I0J75000D01*
G01*
X122814000Y-93248500D01*
G75*
G02*
X122889000Y-93173500I75000J0D01*
G01*
X123039000Y-93173500D01*
G75*
G02*
X123114000Y-93248500I0J-75000D01*
G01*
G37*
G36*
G01*
X123614000Y-93248500D02*
X123614000Y-94573500D01*
G75*
G02*
X123539000Y-94648500I-75000J0D01*
G01*
X123389000Y-94648500D01*
G75*
G02*
X123314000Y-94573500I0J75000D01*
G01*
X123314000Y-93248500D01*
G75*
G02*
X123389000Y-93173500I75000J0D01*
G01*
X123539000Y-93173500D01*
G75*
G02*
X123614000Y-93248500I0J-75000D01*
G01*
G37*
G36*
G01*
X124114000Y-93248500D02*
X124114000Y-94573500D01*
G75*
G02*
X124039000Y-94648500I-75000J0D01*
G01*
X123889000Y-94648500D01*
G75*
G02*
X123814000Y-94573500I0J75000D01*
G01*
X123814000Y-93248500D01*
G75*
G02*
X123889000Y-93173500I75000J0D01*
G01*
X124039000Y-93173500D01*
G75*
G02*
X124114000Y-93248500I0J-75000D01*
G01*
G37*
G36*
G01*
X124614000Y-93248500D02*
X124614000Y-94573500D01*
G75*
G02*
X124539000Y-94648500I-75000J0D01*
G01*
X124389000Y-94648500D01*
G75*
G02*
X124314000Y-94573500I0J75000D01*
G01*
X124314000Y-93248500D01*
G75*
G02*
X124389000Y-93173500I75000J0D01*
G01*
X124539000Y-93173500D01*
G75*
G02*
X124614000Y-93248500I0J-75000D01*
G01*
G37*
G36*
G01*
X125114000Y-93248500D02*
X125114000Y-94573500D01*
G75*
G02*
X125039000Y-94648500I-75000J0D01*
G01*
X124889000Y-94648500D01*
G75*
G02*
X124814000Y-94573500I0J75000D01*
G01*
X124814000Y-93248500D01*
G75*
G02*
X124889000Y-93173500I75000J0D01*
G01*
X125039000Y-93173500D01*
G75*
G02*
X125114000Y-93248500I0J-75000D01*
G01*
G37*
G36*
G01*
X125614000Y-93248500D02*
X125614000Y-94573500D01*
G75*
G02*
X125539000Y-94648500I-75000J0D01*
G01*
X125389000Y-94648500D01*
G75*
G02*
X125314000Y-94573500I0J75000D01*
G01*
X125314000Y-93248500D01*
G75*
G02*
X125389000Y-93173500I75000J0D01*
G01*
X125539000Y-93173500D01*
G75*
G02*
X125614000Y-93248500I0J-75000D01*
G01*
G37*
G36*
G01*
X126114000Y-93248500D02*
X126114000Y-94573500D01*
G75*
G02*
X126039000Y-94648500I-75000J0D01*
G01*
X125889000Y-94648500D01*
G75*
G02*
X125814000Y-94573500I0J75000D01*
G01*
X125814000Y-93248500D01*
G75*
G02*
X125889000Y-93173500I75000J0D01*
G01*
X126039000Y-93173500D01*
G75*
G02*
X126114000Y-93248500I0J-75000D01*
G01*
G37*
G36*
G01*
X126614000Y-93248500D02*
X126614000Y-94573500D01*
G75*
G02*
X126539000Y-94648500I-75000J0D01*
G01*
X126389000Y-94648500D01*
G75*
G02*
X126314000Y-94573500I0J75000D01*
G01*
X126314000Y-93248500D01*
G75*
G02*
X126389000Y-93173500I75000J0D01*
G01*
X126539000Y-93173500D01*
G75*
G02*
X126614000Y-93248500I0J-75000D01*
G01*
G37*
G36*
G01*
X127114000Y-93248500D02*
X127114000Y-94573500D01*
G75*
G02*
X127039000Y-94648500I-75000J0D01*
G01*
X126889000Y-94648500D01*
G75*
G02*
X126814000Y-94573500I0J75000D01*
G01*
X126814000Y-93248500D01*
G75*
G02*
X126889000Y-93173500I75000J0D01*
G01*
X127039000Y-93173500D01*
G75*
G02*
X127114000Y-93248500I0J-75000D01*
G01*
G37*
G36*
G01*
X127614000Y-93248500D02*
X127614000Y-94573500D01*
G75*
G02*
X127539000Y-94648500I-75000J0D01*
G01*
X127389000Y-94648500D01*
G75*
G02*
X127314000Y-94573500I0J75000D01*
G01*
X127314000Y-93248500D01*
G75*
G02*
X127389000Y-93173500I75000J0D01*
G01*
X127539000Y-93173500D01*
G75*
G02*
X127614000Y-93248500I0J-75000D01*
G01*
G37*
G36*
G01*
X128114000Y-93248500D02*
X128114000Y-94573500D01*
G75*
G02*
X128039000Y-94648500I-75000J0D01*
G01*
X127889000Y-94648500D01*
G75*
G02*
X127814000Y-94573500I0J75000D01*
G01*
X127814000Y-93248500D01*
G75*
G02*
X127889000Y-93173500I75000J0D01*
G01*
X128039000Y-93173500D01*
G75*
G02*
X128114000Y-93248500I0J-75000D01*
G01*
G37*
G36*
G01*
X128614000Y-93248500D02*
X128614000Y-94573500D01*
G75*
G02*
X128539000Y-94648500I-75000J0D01*
G01*
X128389000Y-94648500D01*
G75*
G02*
X128314000Y-94573500I0J75000D01*
G01*
X128314000Y-93248500D01*
G75*
G02*
X128389000Y-93173500I75000J0D01*
G01*
X128539000Y-93173500D01*
G75*
G02*
X128614000Y-93248500I0J-75000D01*
G01*
G37*
G36*
G01*
X129114000Y-93248500D02*
X129114000Y-94573500D01*
G75*
G02*
X129039000Y-94648500I-75000J0D01*
G01*
X128889000Y-94648500D01*
G75*
G02*
X128814000Y-94573500I0J75000D01*
G01*
X128814000Y-93248500D01*
G75*
G02*
X128889000Y-93173500I75000J0D01*
G01*
X129039000Y-93173500D01*
G75*
G02*
X129114000Y-93248500I0J-75000D01*
G01*
G37*
G36*
G01*
X129614000Y-93248500D02*
X129614000Y-94573500D01*
G75*
G02*
X129539000Y-94648500I-75000J0D01*
G01*
X129389000Y-94648500D01*
G75*
G02*
X129314000Y-94573500I0J75000D01*
G01*
X129314000Y-93248500D01*
G75*
G02*
X129389000Y-93173500I75000J0D01*
G01*
X129539000Y-93173500D01*
G75*
G02*
X129614000Y-93248500I0J-75000D01*
G01*
G37*
G36*
G01*
X130114000Y-93248500D02*
X130114000Y-94573500D01*
G75*
G02*
X130039000Y-94648500I-75000J0D01*
G01*
X129889000Y-94648500D01*
G75*
G02*
X129814000Y-94573500I0J75000D01*
G01*
X129814000Y-93248500D01*
G75*
G02*
X129889000Y-93173500I75000J0D01*
G01*
X130039000Y-93173500D01*
G75*
G02*
X130114000Y-93248500I0J-75000D01*
G01*
G37*
G36*
G01*
X130614000Y-93248500D02*
X130614000Y-94573500D01*
G75*
G02*
X130539000Y-94648500I-75000J0D01*
G01*
X130389000Y-94648500D01*
G75*
G02*
X130314000Y-94573500I0J75000D01*
G01*
X130314000Y-93248500D01*
G75*
G02*
X130389000Y-93173500I75000J0D01*
G01*
X130539000Y-93173500D01*
G75*
G02*
X130614000Y-93248500I0J-75000D01*
G01*
G37*
G36*
G01*
X131114000Y-93248500D02*
X131114000Y-94573500D01*
G75*
G02*
X131039000Y-94648500I-75000J0D01*
G01*
X130889000Y-94648500D01*
G75*
G02*
X130814000Y-94573500I0J75000D01*
G01*
X130814000Y-93248500D01*
G75*
G02*
X130889000Y-93173500I75000J0D01*
G01*
X131039000Y-93173500D01*
G75*
G02*
X131114000Y-93248500I0J-75000D01*
G01*
G37*
G36*
G01*
X131614000Y-93248500D02*
X131614000Y-94573500D01*
G75*
G02*
X131539000Y-94648500I-75000J0D01*
G01*
X131389000Y-94648500D01*
G75*
G02*
X131314000Y-94573500I0J75000D01*
G01*
X131314000Y-93248500D01*
G75*
G02*
X131389000Y-93173500I75000J0D01*
G01*
X131539000Y-93173500D01*
G75*
G02*
X131614000Y-93248500I0J-75000D01*
G01*
G37*
G36*
G01*
X132114000Y-93248500D02*
X132114000Y-94573500D01*
G75*
G02*
X132039000Y-94648500I-75000J0D01*
G01*
X131889000Y-94648500D01*
G75*
G02*
X131814000Y-94573500I0J75000D01*
G01*
X131814000Y-93248500D01*
G75*
G02*
X131889000Y-93173500I75000J0D01*
G01*
X132039000Y-93173500D01*
G75*
G02*
X132114000Y-93248500I0J-75000D01*
G01*
G37*
G36*
G01*
X132614000Y-93248500D02*
X132614000Y-94573500D01*
G75*
G02*
X132539000Y-94648500I-75000J0D01*
G01*
X132389000Y-94648500D01*
G75*
G02*
X132314000Y-94573500I0J75000D01*
G01*
X132314000Y-93248500D01*
G75*
G02*
X132389000Y-93173500I75000J0D01*
G01*
X132539000Y-93173500D01*
G75*
G02*
X132614000Y-93248500I0J-75000D01*
G01*
G37*
G36*
G01*
X133114000Y-93248500D02*
X133114000Y-94573500D01*
G75*
G02*
X133039000Y-94648500I-75000J0D01*
G01*
X132889000Y-94648500D01*
G75*
G02*
X132814000Y-94573500I0J75000D01*
G01*
X132814000Y-93248500D01*
G75*
G02*
X132889000Y-93173500I75000J0D01*
G01*
X133039000Y-93173500D01*
G75*
G02*
X133114000Y-93248500I0J-75000D01*
G01*
G37*
G36*
G01*
X133614000Y-93248500D02*
X133614000Y-94573500D01*
G75*
G02*
X133539000Y-94648500I-75000J0D01*
G01*
X133389000Y-94648500D01*
G75*
G02*
X133314000Y-94573500I0J75000D01*
G01*
X133314000Y-93248500D01*
G75*
G02*
X133389000Y-93173500I75000J0D01*
G01*
X133539000Y-93173500D01*
G75*
G02*
X133614000Y-93248500I0J-75000D01*
G01*
G37*
%TD*%
%TO.C,Z1*%
G36*
G01*
X88241500Y-139611000D02*
X88241500Y-138011000D01*
G75*
G02*
X88441500Y-137811000I200000J0D01*
G01*
X88841500Y-137811000D01*
G75*
G02*
X89041500Y-138011000I0J-200000D01*
G01*
X89041500Y-139611000D01*
G75*
G02*
X88841500Y-139811000I-200000J0D01*
G01*
X88441500Y-139811000D01*
G75*
G02*
X88241500Y-139611000I0J200000D01*
G01*
G37*
G36*
G01*
X92441500Y-139611000D02*
X92441500Y-138011000D01*
G75*
G02*
X92641500Y-137811000I200000J0D01*
G01*
X93041500Y-137811000D01*
G75*
G02*
X93241500Y-138011000I0J-200000D01*
G01*
X93241500Y-139611000D01*
G75*
G02*
X93041500Y-139811000I-200000J0D01*
G01*
X92641500Y-139811000D01*
G75*
G02*
X92441500Y-139611000I0J200000D01*
G01*
G37*
%TD*%
%TO.C,Y1*%
G36*
G01*
X121016500Y-126911000D02*
X121016500Y-125311000D01*
G75*
G02*
X121216500Y-125111000I200000J0D01*
G01*
X121616500Y-125111000D01*
G75*
G02*
X121816500Y-125311000I0J-200000D01*
G01*
X121816500Y-126911000D01*
G75*
G02*
X121616500Y-127111000I-200000J0D01*
G01*
X121216500Y-127111000D01*
G75*
G02*
X121016500Y-126911000I0J200000D01*
G01*
G37*
G36*
G01*
X116816500Y-126911000D02*
X116816500Y-125311000D01*
G75*
G02*
X117016500Y-125111000I200000J0D01*
G01*
X117416500Y-125111000D01*
G75*
G02*
X117616500Y-125311000I0J-200000D01*
G01*
X117616500Y-126911000D01*
G75*
G02*
X117416500Y-127111000I-200000J0D01*
G01*
X117016500Y-127111000D01*
G75*
G02*
X116816500Y-126911000I0J200000D01*
G01*
G37*
%TD*%
%TO.C,X2*%
G36*
G01*
X94591500Y-139611000D02*
X94591500Y-138011000D01*
G75*
G02*
X94791500Y-137811000I200000J0D01*
G01*
X95191500Y-137811000D01*
G75*
G02*
X95391500Y-138011000I0J-200000D01*
G01*
X95391500Y-139611000D01*
G75*
G02*
X95191500Y-139811000I-200000J0D01*
G01*
X94791500Y-139811000D01*
G75*
G02*
X94591500Y-139611000I0J200000D01*
G01*
G37*
G36*
G01*
X98791500Y-139611000D02*
X98791500Y-138011000D01*
G75*
G02*
X98991500Y-137811000I200000J0D01*
G01*
X99391500Y-137811000D01*
G75*
G02*
X99591500Y-138011000I0J-200000D01*
G01*
X99591500Y-139611000D01*
G75*
G02*
X99391500Y-139811000I-200000J0D01*
G01*
X98991500Y-139811000D01*
G75*
G02*
X98791500Y-139611000I0J200000D01*
G01*
G37*
%TD*%
%TO.C,W1*%
G36*
G01*
X91416500Y-126911000D02*
X91416500Y-125311000D01*
G75*
G02*
X91616500Y-125111000I200000J0D01*
G01*
X92016500Y-125111000D01*
G75*
G02*
X92216500Y-125311000I0J-200000D01*
G01*
X92216500Y-126911000D01*
G75*
G02*
X92016500Y-127111000I-200000J0D01*
G01*
X91616500Y-127111000D01*
G75*
G02*
X91416500Y-126911000I0J200000D01*
G01*
G37*
G36*
G01*
X95616500Y-126911000D02*
X95616500Y-125311000D01*
G75*
G02*
X95816500Y-125111000I200000J0D01*
G01*
X96216500Y-125111000D01*
G75*
G02*
X96416500Y-125311000I0J-200000D01*
G01*
X96416500Y-126911000D01*
G75*
G02*
X96216500Y-127111000I-200000J0D01*
G01*
X95816500Y-127111000D01*
G75*
G02*
X95616500Y-126911000I0J200000D01*
G01*
G37*
%TD*%
%TO.C,V1*%
G36*
G01*
X107291500Y-139611000D02*
X107291500Y-138011000D01*
G75*
G02*
X107491500Y-137811000I200000J0D01*
G01*
X107891500Y-137811000D01*
G75*
G02*
X108091500Y-138011000I0J-200000D01*
G01*
X108091500Y-139611000D01*
G75*
G02*
X107891500Y-139811000I-200000J0D01*
G01*
X107491500Y-139811000D01*
G75*
G02*
X107291500Y-139611000I0J200000D01*
G01*
G37*
G36*
G01*
X111491500Y-139611000D02*
X111491500Y-138011000D01*
G75*
G02*
X111691500Y-137811000I200000J0D01*
G01*
X112091500Y-137811000D01*
G75*
G02*
X112291500Y-138011000I0J-200000D01*
G01*
X112291500Y-139611000D01*
G75*
G02*
X112091500Y-139811000I-200000J0D01*
G01*
X111691500Y-139811000D01*
G75*
G02*
X111491500Y-139611000I0J200000D01*
G01*
G37*
%TD*%
%TO.C,USR5*%
G36*
G01*
X167845100Y-145961000D02*
X167845100Y-144361000D01*
G75*
G02*
X168045100Y-144161000I200000J0D01*
G01*
X168445100Y-144161000D01*
G75*
G02*
X168645100Y-144361000I0J-200000D01*
G01*
X168645100Y-145961000D01*
G75*
G02*
X168445100Y-146161000I-200000J0D01*
G01*
X168045100Y-146161000D01*
G75*
G02*
X167845100Y-145961000I0J200000D01*
G01*
G37*
G36*
G01*
X172045100Y-145961000D02*
X172045100Y-144361000D01*
G75*
G02*
X172245100Y-144161000I200000J0D01*
G01*
X172645100Y-144161000D01*
G75*
G02*
X172845100Y-144361000I0J-200000D01*
G01*
X172845100Y-145961000D01*
G75*
G02*
X172645100Y-146161000I-200000J0D01*
G01*
X172245100Y-146161000D01*
G75*
G02*
X172045100Y-145961000I0J200000D01*
G01*
G37*
%TD*%
%TO.C,USR4*%
G36*
G01*
X167845100Y-139611000D02*
X167845100Y-138011000D01*
G75*
G02*
X168045100Y-137811000I200000J0D01*
G01*
X168445100Y-137811000D01*
G75*
G02*
X168645100Y-138011000I0J-200000D01*
G01*
X168645100Y-139611000D01*
G75*
G02*
X168445100Y-139811000I-200000J0D01*
G01*
X168045100Y-139811000D01*
G75*
G02*
X167845100Y-139611000I0J200000D01*
G01*
G37*
G36*
G01*
X172045100Y-139611000D02*
X172045100Y-138011000D01*
G75*
G02*
X172245100Y-137811000I200000J0D01*
G01*
X172645100Y-137811000D01*
G75*
G02*
X172845100Y-138011000I0J-200000D01*
G01*
X172845100Y-139611000D01*
G75*
G02*
X172645100Y-139811000I-200000J0D01*
G01*
X172245100Y-139811000D01*
G75*
G02*
X172045100Y-139611000I0J200000D01*
G01*
G37*
%TD*%
%TO.C,USR3*%
G36*
G01*
X167845100Y-133261000D02*
X167845100Y-131661000D01*
G75*
G02*
X168045100Y-131461000I200000J0D01*
G01*
X168445100Y-131461000D01*
G75*
G02*
X168645100Y-131661000I0J-200000D01*
G01*
X168645100Y-133261000D01*
G75*
G02*
X168445100Y-133461000I-200000J0D01*
G01*
X168045100Y-133461000D01*
G75*
G02*
X167845100Y-133261000I0J200000D01*
G01*
G37*
G36*
G01*
X172045100Y-133261000D02*
X172045100Y-131661000D01*
G75*
G02*
X172245100Y-131461000I200000J0D01*
G01*
X172645100Y-131461000D01*
G75*
G02*
X172845100Y-131661000I0J-200000D01*
G01*
X172845100Y-133261000D01*
G75*
G02*
X172645100Y-133461000I-200000J0D01*
G01*
X172245100Y-133461000D01*
G75*
G02*
X172045100Y-133261000I0J200000D01*
G01*
G37*
%TD*%
%TO.C,USR2*%
G36*
G01*
X167845100Y-126911000D02*
X167845100Y-125311000D01*
G75*
G02*
X168045100Y-125111000I200000J0D01*
G01*
X168445100Y-125111000D01*
G75*
G02*
X168645100Y-125311000I0J-200000D01*
G01*
X168645100Y-126911000D01*
G75*
G02*
X168445100Y-127111000I-200000J0D01*
G01*
X168045100Y-127111000D01*
G75*
G02*
X167845100Y-126911000I0J200000D01*
G01*
G37*
G36*
G01*
X172045100Y-126911000D02*
X172045100Y-125311000D01*
G75*
G02*
X172245100Y-125111000I200000J0D01*
G01*
X172645100Y-125111000D01*
G75*
G02*
X172845100Y-125311000I0J-200000D01*
G01*
X172845100Y-126911000D01*
G75*
G02*
X172645100Y-127111000I-200000J0D01*
G01*
X172245100Y-127111000D01*
G75*
G02*
X172045100Y-126911000I0J200000D01*
G01*
G37*
%TD*%
%TO.C,USR1*%
G36*
G01*
X167845100Y-120561000D02*
X167845100Y-118961000D01*
G75*
G02*
X168045100Y-118761000I200000J0D01*
G01*
X168445100Y-118761000D01*
G75*
G02*
X168645100Y-118961000I0J-200000D01*
G01*
X168645100Y-120561000D01*
G75*
G02*
X168445100Y-120761000I-200000J0D01*
G01*
X168045100Y-120761000D01*
G75*
G02*
X167845100Y-120561000I0J200000D01*
G01*
G37*
G36*
G01*
X172045100Y-120561000D02*
X172045100Y-118961000D01*
G75*
G02*
X172245100Y-118761000I200000J0D01*
G01*
X172645100Y-118761000D01*
G75*
G02*
X172845100Y-118961000I0J-200000D01*
G01*
X172845100Y-120561000D01*
G75*
G02*
X172645100Y-120761000I-200000J0D01*
G01*
X172245100Y-120761000D01*
G75*
G02*
X172045100Y-120561000I0J200000D01*
G01*
G37*
%TD*%
%TO.C,U3*%
G36*
G01*
X127366500Y-126911000D02*
X127366500Y-125311000D01*
G75*
G02*
X127566500Y-125111000I200000J0D01*
G01*
X127966500Y-125111000D01*
G75*
G02*
X128166500Y-125311000I0J-200000D01*
G01*
X128166500Y-126911000D01*
G75*
G02*
X127966500Y-127111000I-200000J0D01*
G01*
X127566500Y-127111000D01*
G75*
G02*
X127366500Y-126911000I0J200000D01*
G01*
G37*
G36*
G01*
X123166500Y-126911000D02*
X123166500Y-125311000D01*
G75*
G02*
X123366500Y-125111000I200000J0D01*
G01*
X123766500Y-125111000D01*
G75*
G02*
X123966500Y-125311000I0J-200000D01*
G01*
X123966500Y-126911000D01*
G75*
G02*
X123766500Y-127111000I-200000J0D01*
G01*
X123366500Y-127111000D01*
G75*
G02*
X123166500Y-126911000I0J200000D01*
G01*
G37*
%TD*%
%TO.C,TAB1*%
G36*
G01*
X77129000Y-126911000D02*
X77129000Y-125311000D01*
G75*
G02*
X77329000Y-125111000I200000J0D01*
G01*
X77729000Y-125111000D01*
G75*
G02*
X77929000Y-125311000I0J-200000D01*
G01*
X77929000Y-126911000D01*
G75*
G02*
X77729000Y-127111000I-200000J0D01*
G01*
X77329000Y-127111000D01*
G75*
G02*
X77129000Y-126911000I0J200000D01*
G01*
G37*
G36*
G01*
X81329000Y-126911000D02*
X81329000Y-125311000D01*
G75*
G02*
X81529000Y-125111000I200000J0D01*
G01*
X81929000Y-125111000D01*
G75*
G02*
X82129000Y-125311000I0J-200000D01*
G01*
X82129000Y-126911000D01*
G75*
G02*
X81929000Y-127111000I-200000J0D01*
G01*
X81529000Y-127111000D01*
G75*
G02*
X81329000Y-126911000I0J200000D01*
G01*
G37*
%TD*%
%TO.C,T1*%
G36*
G01*
X114666500Y-126911000D02*
X114666500Y-125311000D01*
G75*
G02*
X114866500Y-125111000I200000J0D01*
G01*
X115266500Y-125111000D01*
G75*
G02*
X115466500Y-125311000I0J-200000D01*
G01*
X115466500Y-126911000D01*
G75*
G02*
X115266500Y-127111000I-200000J0D01*
G01*
X114866500Y-127111000D01*
G75*
G02*
X114666500Y-126911000I0J200000D01*
G01*
G37*
G36*
G01*
X110466500Y-126911000D02*
X110466500Y-125311000D01*
G75*
G02*
X110666500Y-125111000I200000J0D01*
G01*
X111066500Y-125111000D01*
G75*
G02*
X111266500Y-125311000I0J-200000D01*
G01*
X111266500Y-126911000D01*
G75*
G02*
X111066500Y-127111000I-200000J0D01*
G01*
X110666500Y-127111000D01*
G75*
G02*
X110466500Y-126911000I0J200000D01*
G01*
G37*
%TD*%
%TO.C,USRM1*%
G36*
G01*
X132691500Y-145961000D02*
X132691500Y-144361000D01*
G75*
G02*
X132891500Y-144161000I200000J0D01*
G01*
X133291500Y-144161000D01*
G75*
G02*
X133491500Y-144361000I0J-200000D01*
G01*
X133491500Y-145961000D01*
G75*
G02*
X133291500Y-146161000I-200000J0D01*
G01*
X132891500Y-146161000D01*
G75*
G02*
X132691500Y-145961000I0J200000D01*
G01*
G37*
G36*
G01*
X136891500Y-145961000D02*
X136891500Y-144361000D01*
G75*
G02*
X137091500Y-144161000I200000J0D01*
G01*
X137491500Y-144161000D01*
G75*
G02*
X137691500Y-144361000I0J-200000D01*
G01*
X137691500Y-145961000D01*
G75*
G02*
X137491500Y-146161000I-200000J0D01*
G01*
X137091500Y-146161000D01*
G75*
G02*
X136891500Y-145961000I0J200000D01*
G01*
G37*
%TD*%
%TO.C,SUPER1*%
G36*
G01*
X85295100Y-145961000D02*
X85295100Y-144361000D01*
G75*
G02*
X85495100Y-144161000I200000J0D01*
G01*
X85895100Y-144161000D01*
G75*
G02*
X86095100Y-144361000I0J-200000D01*
G01*
X86095100Y-145961000D01*
G75*
G02*
X85895100Y-146161000I-200000J0D01*
G01*
X85495100Y-146161000D01*
G75*
G02*
X85295100Y-145961000I0J200000D01*
G01*
G37*
G36*
G01*
X89495100Y-145961000D02*
X89495100Y-144361000D01*
G75*
G02*
X89695100Y-144161000I200000J0D01*
G01*
X90095100Y-144161000D01*
G75*
G02*
X90295100Y-144361000I0J-200000D01*
G01*
X90295100Y-145961000D01*
G75*
G02*
X90095100Y-146161000I-200000J0D01*
G01*
X89695100Y-146161000D01*
G75*
G02*
X89495100Y-145961000I0J200000D01*
G01*
G37*
%TD*%
%TO.C,SP2*%
G36*
G01*
X110466500Y-145961000D02*
X110466500Y-144361000D01*
G75*
G02*
X110666500Y-144161000I200000J0D01*
G01*
X111066500Y-144161000D01*
G75*
G02*
X111266500Y-144361000I0J-200000D01*
G01*
X111266500Y-145961000D01*
G75*
G02*
X111066500Y-146161000I-200000J0D01*
G01*
X110666500Y-146161000D01*
G75*
G02*
X110466500Y-145961000I0J200000D01*
G01*
G37*
G36*
G01*
X114666500Y-145961000D02*
X114666500Y-144361000D01*
G75*
G02*
X114866500Y-144161000I200000J0D01*
G01*
X115266500Y-144161000D01*
G75*
G02*
X115466500Y-144361000I0J-200000D01*
G01*
X115466500Y-145961000D01*
G75*
G02*
X115266500Y-146161000I-200000J0D01*
G01*
X114866500Y-146161000D01*
G75*
G02*
X114666500Y-145961000I0J200000D01*
G01*
G37*
%TD*%
%TO.C,SP1*%
G36*
G01*
X123166500Y-145961000D02*
X123166500Y-144361000D01*
G75*
G02*
X123366500Y-144161000I200000J0D01*
G01*
X123766500Y-144161000D01*
G75*
G02*
X123966500Y-144361000I0J-200000D01*
G01*
X123966500Y-145961000D01*
G75*
G02*
X123766500Y-146161000I-200000J0D01*
G01*
X123366500Y-146161000D01*
G75*
G02*
X123166500Y-145961000I0J200000D01*
G01*
G37*
G36*
G01*
X127366500Y-145961000D02*
X127366500Y-144361000D01*
G75*
G02*
X127566500Y-144161000I200000J0D01*
G01*
X127966500Y-144161000D01*
G75*
G02*
X128166500Y-144361000I0J-200000D01*
G01*
X128166500Y-145961000D01*
G75*
G02*
X127966500Y-146161000I-200000J0D01*
G01*
X127566500Y-146161000D01*
G75*
G02*
X127366500Y-145961000I0J200000D01*
G01*
G37*
%TD*%
%TO.C,SHIFT1*%
G36*
G01*
X77129000Y-139611000D02*
X77129000Y-138011000D01*
G75*
G02*
X77329000Y-137811000I200000J0D01*
G01*
X77729000Y-137811000D01*
G75*
G02*
X77929000Y-138011000I0J-200000D01*
G01*
X77929000Y-139611000D01*
G75*
G02*
X77729000Y-139811000I-200000J0D01*
G01*
X77329000Y-139811000D01*
G75*
G02*
X77129000Y-139611000I0J200000D01*
G01*
G37*
G36*
G01*
X81329000Y-139611000D02*
X81329000Y-138011000D01*
G75*
G02*
X81529000Y-137811000I200000J0D01*
G01*
X81929000Y-137811000D01*
G75*
G02*
X82129000Y-138011000I0J-200000D01*
G01*
X82129000Y-139611000D01*
G75*
G02*
X81929000Y-139811000I-200000J0D01*
G01*
X81529000Y-139811000D01*
G75*
G02*
X81329000Y-139611000I0J200000D01*
G01*
G37*
%TD*%
%TO.C,S1*%
G36*
G01*
X97204000Y-133261000D02*
X97204000Y-131661000D01*
G75*
G02*
X97404000Y-131461000I200000J0D01*
G01*
X97804000Y-131461000D01*
G75*
G02*
X98004000Y-131661000I0J-200000D01*
G01*
X98004000Y-133261000D01*
G75*
G02*
X97804000Y-133461000I-200000J0D01*
G01*
X97404000Y-133461000D01*
G75*
G02*
X97204000Y-133261000I0J200000D01*
G01*
G37*
G36*
G01*
X93004000Y-133261000D02*
X93004000Y-131661000D01*
G75*
G02*
X93204000Y-131461000I200000J0D01*
G01*
X93604000Y-131461000D01*
G75*
G02*
X93804000Y-131661000I0J-200000D01*
G01*
X93804000Y-133261000D01*
G75*
G02*
X93604000Y-133461000I-200000J0D01*
G01*
X93204000Y-133461000D01*
G75*
G02*
X93004000Y-133261000I0J200000D01*
G01*
G37*
%TD*%
%TO.C,R5*%
G36*
G01*
X108316500Y-126911000D02*
X108316500Y-125311000D01*
G75*
G02*
X108516500Y-125111000I200000J0D01*
G01*
X108916500Y-125111000D01*
G75*
G02*
X109116500Y-125311000I0J-200000D01*
G01*
X109116500Y-126911000D01*
G75*
G02*
X108916500Y-127111000I-200000J0D01*
G01*
X108516500Y-127111000D01*
G75*
G02*
X108316500Y-126911000I0J200000D01*
G01*
G37*
G36*
G01*
X104116500Y-126911000D02*
X104116500Y-125311000D01*
G75*
G02*
X104316500Y-125111000I200000J0D01*
G01*
X104716500Y-125111000D01*
G75*
G02*
X104916500Y-125311000I0J-200000D01*
G01*
X104916500Y-126911000D01*
G75*
G02*
X104716500Y-127111000I-200000J0D01*
G01*
X104316500Y-127111000D01*
G75*
G02*
X104116500Y-126911000I0J200000D01*
G01*
G37*
%TD*%
%TO.C,Q1*%
G36*
G01*
X89266500Y-126911000D02*
X89266500Y-125311000D01*
G75*
G02*
X89466500Y-125111000I200000J0D01*
G01*
X89866500Y-125111000D01*
G75*
G02*
X90066500Y-125311000I0J-200000D01*
G01*
X90066500Y-126911000D01*
G75*
G02*
X89866500Y-127111000I-200000J0D01*
G01*
X89466500Y-127111000D01*
G75*
G02*
X89266500Y-126911000I0J200000D01*
G01*
G37*
G36*
G01*
X85066500Y-126911000D02*
X85066500Y-125311000D01*
G75*
G02*
X85266500Y-125111000I200000J0D01*
G01*
X85666500Y-125111000D01*
G75*
G02*
X85866500Y-125311000I0J-200000D01*
G01*
X85866500Y-126911000D01*
G75*
G02*
X85666500Y-127111000I-200000J0D01*
G01*
X85266500Y-127111000D01*
G75*
G02*
X85066500Y-126911000I0J200000D01*
G01*
G37*
%TD*%
%TO.C,P1*%
G36*
G01*
X146416500Y-126911000D02*
X146416500Y-125311000D01*
G75*
G02*
X146616500Y-125111000I200000J0D01*
G01*
X147016500Y-125111000D01*
G75*
G02*
X147216500Y-125311000I0J-200000D01*
G01*
X147216500Y-126911000D01*
G75*
G02*
X147016500Y-127111000I-200000J0D01*
G01*
X146616500Y-127111000D01*
G75*
G02*
X146416500Y-126911000I0J200000D01*
G01*
G37*
G36*
G01*
X142216500Y-126911000D02*
X142216500Y-125311000D01*
G75*
G02*
X142416500Y-125111000I200000J0D01*
G01*
X142816500Y-125111000D01*
G75*
G02*
X143016500Y-125311000I0J-200000D01*
G01*
X143016500Y-126911000D01*
G75*
G02*
X142816500Y-127111000I-200000J0D01*
G01*
X142416500Y-127111000D01*
G75*
G02*
X142216500Y-126911000I0J200000D01*
G01*
G37*
%TD*%
%TO.C,O1*%
G36*
G01*
X140066500Y-126911000D02*
X140066500Y-125311000D01*
G75*
G02*
X140266500Y-125111000I200000J0D01*
G01*
X140666500Y-125111000D01*
G75*
G02*
X140866500Y-125311000I0J-200000D01*
G01*
X140866500Y-126911000D01*
G75*
G02*
X140666500Y-127111000I-200000J0D01*
G01*
X140266500Y-127111000D01*
G75*
G02*
X140066500Y-126911000I0J200000D01*
G01*
G37*
G36*
G01*
X135866500Y-126911000D02*
X135866500Y-125311000D01*
G75*
G02*
X136066500Y-125111000I200000J0D01*
G01*
X136466500Y-125111000D01*
G75*
G02*
X136666500Y-125311000I0J-200000D01*
G01*
X136666500Y-126911000D01*
G75*
G02*
X136466500Y-127111000I-200000J0D01*
G01*
X136066500Y-127111000D01*
G75*
G02*
X135866500Y-126911000I0J200000D01*
G01*
G37*
%TD*%
%TO.C,N1*%
G36*
G01*
X119991500Y-139611000D02*
X119991500Y-138011000D01*
G75*
G02*
X120191500Y-137811000I200000J0D01*
G01*
X120591500Y-137811000D01*
G75*
G02*
X120791500Y-138011000I0J-200000D01*
G01*
X120791500Y-139611000D01*
G75*
G02*
X120591500Y-139811000I-200000J0D01*
G01*
X120191500Y-139811000D01*
G75*
G02*
X119991500Y-139611000I0J200000D01*
G01*
G37*
G36*
G01*
X124191500Y-139611000D02*
X124191500Y-138011000D01*
G75*
G02*
X124391500Y-137811000I200000J0D01*
G01*
X124791500Y-137811000D01*
G75*
G02*
X124991500Y-138011000I0J-200000D01*
G01*
X124991500Y-139611000D01*
G75*
G02*
X124791500Y-139811000I-200000J0D01*
G01*
X124391500Y-139811000D01*
G75*
G02*
X124191500Y-139611000I0J200000D01*
G01*
G37*
%TD*%
%TO.C,M1*%
G36*
G01*
X126341500Y-139611000D02*
X126341500Y-138011000D01*
G75*
G02*
X126541500Y-137811000I200000J0D01*
G01*
X126941500Y-137811000D01*
G75*
G02*
X127141500Y-138011000I0J-200000D01*
G01*
X127141500Y-139611000D01*
G75*
G02*
X126941500Y-139811000I-200000J0D01*
G01*
X126541500Y-139811000D01*
G75*
G02*
X126341500Y-139611000I0J200000D01*
G01*
G37*
G36*
G01*
X130541500Y-139611000D02*
X130541500Y-138011000D01*
G75*
G02*
X130741500Y-137811000I200000J0D01*
G01*
X131141500Y-137811000D01*
G75*
G02*
X131341500Y-138011000I0J-200000D01*
G01*
X131341500Y-139611000D01*
G75*
G02*
X131141500Y-139811000I-200000J0D01*
G01*
X130741500Y-139811000D01*
G75*
G02*
X130541500Y-139611000I0J200000D01*
G01*
G37*
%TD*%
%TO.C,L1*%
G36*
G01*
X141654000Y-133261000D02*
X141654000Y-131661000D01*
G75*
G02*
X141854000Y-131461000I200000J0D01*
G01*
X142254000Y-131461000D01*
G75*
G02*
X142454000Y-131661000I0J-200000D01*
G01*
X142454000Y-133261000D01*
G75*
G02*
X142254000Y-133461000I-200000J0D01*
G01*
X141854000Y-133461000D01*
G75*
G02*
X141654000Y-133261000I0J200000D01*
G01*
G37*
G36*
G01*
X137454000Y-133261000D02*
X137454000Y-131661000D01*
G75*
G02*
X137654000Y-131461000I200000J0D01*
G01*
X138054000Y-131461000D01*
G75*
G02*
X138254000Y-131661000I0J-200000D01*
G01*
X138254000Y-133261000D01*
G75*
G02*
X138054000Y-133461000I-200000J0D01*
G01*
X137654000Y-133461000D01*
G75*
G02*
X137454000Y-133261000I0J200000D01*
G01*
G37*
%TD*%
%TO.C,K1*%
G36*
G01*
X135304000Y-133261000D02*
X135304000Y-131661000D01*
G75*
G02*
X135504000Y-131461000I200000J0D01*
G01*
X135904000Y-131461000D01*
G75*
G02*
X136104000Y-131661000I0J-200000D01*
G01*
X136104000Y-133261000D01*
G75*
G02*
X135904000Y-133461000I-200000J0D01*
G01*
X135504000Y-133461000D01*
G75*
G02*
X135304000Y-133261000I0J200000D01*
G01*
G37*
G36*
G01*
X131104000Y-133261000D02*
X131104000Y-131661000D01*
G75*
G02*
X131304000Y-131461000I200000J0D01*
G01*
X131704000Y-131461000D01*
G75*
G02*
X131904000Y-131661000I0J-200000D01*
G01*
X131904000Y-133261000D01*
G75*
G02*
X131704000Y-133461000I-200000J0D01*
G01*
X131304000Y-133461000D01*
G75*
G02*
X131104000Y-133261000I0J200000D01*
G01*
G37*
%TD*%
%TO.C,J11*%
G36*
G01*
X128954000Y-133261000D02*
X128954000Y-131661000D01*
G75*
G02*
X129154000Y-131461000I200000J0D01*
G01*
X129554000Y-131461000D01*
G75*
G02*
X129754000Y-131661000I0J-200000D01*
G01*
X129754000Y-133261000D01*
G75*
G02*
X129554000Y-133461000I-200000J0D01*
G01*
X129154000Y-133461000D01*
G75*
G02*
X128954000Y-133261000I0J200000D01*
G01*
G37*
G36*
G01*
X124754000Y-133261000D02*
X124754000Y-131661000D01*
G75*
G02*
X124954000Y-131461000I200000J0D01*
G01*
X125354000Y-131461000D01*
G75*
G02*
X125554000Y-131661000I0J-200000D01*
G01*
X125554000Y-133261000D01*
G75*
G02*
X125354000Y-133461000I-200000J0D01*
G01*
X124954000Y-133461000D01*
G75*
G02*
X124754000Y-133261000I0J200000D01*
G01*
G37*
%TD*%
%TO.C,I1*%
G36*
G01*
X133716500Y-126911000D02*
X133716500Y-125311000D01*
G75*
G02*
X133916500Y-125111000I200000J0D01*
G01*
X134316500Y-125111000D01*
G75*
G02*
X134516500Y-125311000I0J-200000D01*
G01*
X134516500Y-126911000D01*
G75*
G02*
X134316500Y-127111000I-200000J0D01*
G01*
X133916500Y-127111000D01*
G75*
G02*
X133716500Y-126911000I0J200000D01*
G01*
G37*
G36*
G01*
X129516500Y-126911000D02*
X129516500Y-125311000D01*
G75*
G02*
X129716500Y-125111000I200000J0D01*
G01*
X130116500Y-125111000D01*
G75*
G02*
X130316500Y-125311000I0J-200000D01*
G01*
X130316500Y-126911000D01*
G75*
G02*
X130116500Y-127111000I-200000J0D01*
G01*
X129716500Y-127111000D01*
G75*
G02*
X129516500Y-126911000I0J200000D01*
G01*
G37*
%TD*%
%TO.C,H1*%
G36*
G01*
X122604000Y-133261000D02*
X122604000Y-131661000D01*
G75*
G02*
X122804000Y-131461000I200000J0D01*
G01*
X123204000Y-131461000D01*
G75*
G02*
X123404000Y-131661000I0J-200000D01*
G01*
X123404000Y-133261000D01*
G75*
G02*
X123204000Y-133461000I-200000J0D01*
G01*
X122804000Y-133461000D01*
G75*
G02*
X122604000Y-133261000I0J200000D01*
G01*
G37*
G36*
G01*
X118404000Y-133261000D02*
X118404000Y-131661000D01*
G75*
G02*
X118604000Y-131461000I200000J0D01*
G01*
X119004000Y-131461000D01*
G75*
G02*
X119204000Y-131661000I0J-200000D01*
G01*
X119204000Y-133261000D01*
G75*
G02*
X119004000Y-133461000I-200000J0D01*
G01*
X118604000Y-133461000D01*
G75*
G02*
X118404000Y-133261000I0J200000D01*
G01*
G37*
%TD*%
%TO.C,G1*%
G36*
G01*
X116254000Y-133261000D02*
X116254000Y-131661000D01*
G75*
G02*
X116454000Y-131461000I200000J0D01*
G01*
X116854000Y-131461000D01*
G75*
G02*
X117054000Y-131661000I0J-200000D01*
G01*
X117054000Y-133261000D01*
G75*
G02*
X116854000Y-133461000I-200000J0D01*
G01*
X116454000Y-133461000D01*
G75*
G02*
X116254000Y-133261000I0J200000D01*
G01*
G37*
G36*
G01*
X112054000Y-133261000D02*
X112054000Y-131661000D01*
G75*
G02*
X112254000Y-131461000I200000J0D01*
G01*
X112654000Y-131461000D01*
G75*
G02*
X112854000Y-131661000I0J-200000D01*
G01*
X112854000Y-133261000D01*
G75*
G02*
X112654000Y-133461000I-200000J0D01*
G01*
X112254000Y-133461000D01*
G75*
G02*
X112054000Y-133261000I0J200000D01*
G01*
G37*
%TD*%
%TO.C,FN1*%
G36*
G01*
X100941500Y-145961000D02*
X100941500Y-144361000D01*
G75*
G02*
X101141500Y-144161000I200000J0D01*
G01*
X101541500Y-144161000D01*
G75*
G02*
X101741500Y-144361000I0J-200000D01*
G01*
X101741500Y-145961000D01*
G75*
G02*
X101541500Y-146161000I-200000J0D01*
G01*
X101141500Y-146161000D01*
G75*
G02*
X100941500Y-145961000I0J200000D01*
G01*
G37*
G36*
G01*
X105141500Y-145961000D02*
X105141500Y-144361000D01*
G75*
G02*
X105341500Y-144161000I200000J0D01*
G01*
X105741500Y-144161000D01*
G75*
G02*
X105941500Y-144361000I0J-200000D01*
G01*
X105941500Y-145961000D01*
G75*
G02*
X105741500Y-146161000I-200000J0D01*
G01*
X105341500Y-146161000D01*
G75*
G02*
X105141500Y-145961000I0J200000D01*
G01*
G37*
%TD*%
%TO.C,F1*%
G36*
G01*
X109904000Y-133261000D02*
X109904000Y-131661000D01*
G75*
G02*
X110104000Y-131461000I200000J0D01*
G01*
X110504000Y-131461000D01*
G75*
G02*
X110704000Y-131661000I0J-200000D01*
G01*
X110704000Y-133261000D01*
G75*
G02*
X110504000Y-133461000I-200000J0D01*
G01*
X110104000Y-133461000D01*
G75*
G02*
X109904000Y-133261000I0J200000D01*
G01*
G37*
G36*
G01*
X105704000Y-133261000D02*
X105704000Y-131661000D01*
G75*
G02*
X105904000Y-131461000I200000J0D01*
G01*
X106304000Y-131461000D01*
G75*
G02*
X106504000Y-131661000I0J-200000D01*
G01*
X106504000Y-133261000D01*
G75*
G02*
X106304000Y-133461000I-200000J0D01*
G01*
X105904000Y-133461000D01*
G75*
G02*
X105704000Y-133261000I0J200000D01*
G01*
G37*
%TD*%
%TO.C,ETR1*%
G36*
G01*
X165466500Y-133261000D02*
X165466500Y-131661000D01*
G75*
G02*
X165666500Y-131461000I200000J0D01*
G01*
X166066500Y-131461000D01*
G75*
G02*
X166266500Y-131661000I0J-200000D01*
G01*
X166266500Y-133261000D01*
G75*
G02*
X166066500Y-133461000I-200000J0D01*
G01*
X165666500Y-133461000D01*
G75*
G02*
X165466500Y-133261000I0J200000D01*
G01*
G37*
G36*
G01*
X161266500Y-133261000D02*
X161266500Y-131661000D01*
G75*
G02*
X161466500Y-131461000I200000J0D01*
G01*
X161866500Y-131461000D01*
G75*
G02*
X162066500Y-131661000I0J-200000D01*
G01*
X162066500Y-133261000D01*
G75*
G02*
X161866500Y-133461000I-200000J0D01*
G01*
X161466500Y-133461000D01*
G75*
G02*
X161266500Y-133261000I0J200000D01*
G01*
G37*
%TD*%
%TO.C,ESC1*%
G36*
G01*
X77129000Y-133261000D02*
X77129000Y-131661000D01*
G75*
G02*
X77329000Y-131461000I200000J0D01*
G01*
X77729000Y-131461000D01*
G75*
G02*
X77929000Y-131661000I0J-200000D01*
G01*
X77929000Y-133261000D01*
G75*
G02*
X77729000Y-133461000I-200000J0D01*
G01*
X77329000Y-133461000D01*
G75*
G02*
X77129000Y-133261000I0J200000D01*
G01*
G37*
G36*
G01*
X81329000Y-133261000D02*
X81329000Y-131661000D01*
G75*
G02*
X81529000Y-131461000I200000J0D01*
G01*
X81929000Y-131461000D01*
G75*
G02*
X82129000Y-131661000I0J-200000D01*
G01*
X82129000Y-133261000D01*
G75*
G02*
X81929000Y-133461000I-200000J0D01*
G01*
X81529000Y-133461000D01*
G75*
G02*
X81329000Y-133261000I0J200000D01*
G01*
G37*
%TD*%
%TO.C,E1*%
G36*
G01*
X101966500Y-126911000D02*
X101966500Y-125311000D01*
G75*
G02*
X102166500Y-125111000I200000J0D01*
G01*
X102566500Y-125111000D01*
G75*
G02*
X102766500Y-125311000I0J-200000D01*
G01*
X102766500Y-126911000D01*
G75*
G02*
X102566500Y-127111000I-200000J0D01*
G01*
X102166500Y-127111000D01*
G75*
G02*
X101966500Y-126911000I0J200000D01*
G01*
G37*
G36*
G01*
X97766500Y-126911000D02*
X97766500Y-125311000D01*
G75*
G02*
X97966500Y-125111000I200000J0D01*
G01*
X98366500Y-125111000D01*
G75*
G02*
X98566500Y-125311000I0J-200000D01*
G01*
X98566500Y-126911000D01*
G75*
G02*
X98366500Y-127111000I-200000J0D01*
G01*
X97966500Y-127111000D01*
G75*
G02*
X97766500Y-126911000I0J200000D01*
G01*
G37*
%TD*%
%TO.C,D1*%
G36*
G01*
X103554000Y-133261000D02*
X103554000Y-131661000D01*
G75*
G02*
X103754000Y-131461000I200000J0D01*
G01*
X104154000Y-131461000D01*
G75*
G02*
X104354000Y-131661000I0J-200000D01*
G01*
X104354000Y-133261000D01*
G75*
G02*
X104154000Y-133461000I-200000J0D01*
G01*
X103754000Y-133461000D01*
G75*
G02*
X103554000Y-133261000I0J200000D01*
G01*
G37*
G36*
G01*
X99354000Y-133261000D02*
X99354000Y-131661000D01*
G75*
G02*
X99554000Y-131461000I200000J0D01*
G01*
X99954000Y-131461000D01*
G75*
G02*
X100154000Y-131661000I0J-200000D01*
G01*
X100154000Y-133261000D01*
G75*
G02*
X99954000Y-133461000I-200000J0D01*
G01*
X99554000Y-133461000D01*
G75*
G02*
X99354000Y-133261000I0J200000D01*
G01*
G37*
%TD*%
%TO.C,CTRL1*%
G36*
G01*
X77129000Y-145961000D02*
X77129000Y-144361000D01*
G75*
G02*
X77329000Y-144161000I200000J0D01*
G01*
X77729000Y-144161000D01*
G75*
G02*
X77929000Y-144361000I0J-200000D01*
G01*
X77929000Y-145961000D01*
G75*
G02*
X77729000Y-146161000I-200000J0D01*
G01*
X77329000Y-146161000D01*
G75*
G02*
X77129000Y-145961000I0J200000D01*
G01*
G37*
G36*
G01*
X81329000Y-145961000D02*
X81329000Y-144361000D01*
G75*
G02*
X81529000Y-144161000I200000J0D01*
G01*
X81929000Y-144161000D01*
G75*
G02*
X82129000Y-144361000I0J-200000D01*
G01*
X82129000Y-145961000D01*
G75*
G02*
X81929000Y-146161000I-200000J0D01*
G01*
X81529000Y-146161000D01*
G75*
G02*
X81329000Y-145961000I0J200000D01*
G01*
G37*
%TD*%
%TO.C,C17*%
G36*
G01*
X100941500Y-139611000D02*
X100941500Y-138011000D01*
G75*
G02*
X101141500Y-137811000I200000J0D01*
G01*
X101541500Y-137811000D01*
G75*
G02*
X101741500Y-138011000I0J-200000D01*
G01*
X101741500Y-139611000D01*
G75*
G02*
X101541500Y-139811000I-200000J0D01*
G01*
X101141500Y-139811000D01*
G75*
G02*
X100941500Y-139611000I0J200000D01*
G01*
G37*
G36*
G01*
X105141500Y-139611000D02*
X105141500Y-138011000D01*
G75*
G02*
X105341500Y-137811000I200000J0D01*
G01*
X105741500Y-137811000D01*
G75*
G02*
X105941500Y-138011000I0J-200000D01*
G01*
X105941500Y-139611000D01*
G75*
G02*
X105741500Y-139811000I-200000J0D01*
G01*
X105341500Y-139811000D01*
G75*
G02*
X105141500Y-139611000I0J200000D01*
G01*
G37*
%TD*%
%TO.C,BS1*%
G36*
G01*
X165466500Y-120561000D02*
X165466500Y-118961000D01*
G75*
G02*
X165666500Y-118761000I200000J0D01*
G01*
X166066500Y-118761000D01*
G75*
G02*
X166266500Y-118961000I0J-200000D01*
G01*
X166266500Y-120561000D01*
G75*
G02*
X166066500Y-120761000I-200000J0D01*
G01*
X165666500Y-120761000D01*
G75*
G02*
X165466500Y-120561000I0J200000D01*
G01*
G37*
G36*
G01*
X161266500Y-120561000D02*
X161266500Y-118961000D01*
G75*
G02*
X161466500Y-118761000I200000J0D01*
G01*
X161866500Y-118761000D01*
G75*
G02*
X162066500Y-118961000I0J-200000D01*
G01*
X162066500Y-120561000D01*
G75*
G02*
X161866500Y-120761000I-200000J0D01*
G01*
X161466500Y-120761000D01*
G75*
G02*
X161266500Y-120561000I0J200000D01*
G01*
G37*
%TD*%
%TO.C,B1*%
G36*
G01*
X113641500Y-139611000D02*
X113641500Y-138011000D01*
G75*
G02*
X113841500Y-137811000I200000J0D01*
G01*
X114241500Y-137811000D01*
G75*
G02*
X114441500Y-138011000I0J-200000D01*
G01*
X114441500Y-139611000D01*
G75*
G02*
X114241500Y-139811000I-200000J0D01*
G01*
X113841500Y-139811000D01*
G75*
G02*
X113641500Y-139611000I0J200000D01*
G01*
G37*
G36*
G01*
X117841500Y-139611000D02*
X117841500Y-138011000D01*
G75*
G02*
X118041500Y-137811000I200000J0D01*
G01*
X118441500Y-137811000D01*
G75*
G02*
X118641500Y-138011000I0J-200000D01*
G01*
X118641500Y-139611000D01*
G75*
G02*
X118441500Y-139811000I-200000J0D01*
G01*
X118041500Y-139811000D01*
G75*
G02*
X117841500Y-139611000I0J200000D01*
G01*
G37*
%TD*%
%TO.C,AU1*%
G36*
G01*
X154916500Y-139611000D02*
X154916500Y-138011000D01*
G75*
G02*
X155116500Y-137811000I200000J0D01*
G01*
X155516500Y-137811000D01*
G75*
G02*
X155716500Y-138011000I0J-200000D01*
G01*
X155716500Y-139611000D01*
G75*
G02*
X155516500Y-139811000I-200000J0D01*
G01*
X155116500Y-139811000D01*
G75*
G02*
X154916500Y-139611000I0J200000D01*
G01*
G37*
G36*
G01*
X159116500Y-139611000D02*
X159116500Y-138011000D01*
G75*
G02*
X159316500Y-137811000I200000J0D01*
G01*
X159716500Y-137811000D01*
G75*
G02*
X159916500Y-138011000I0J-200000D01*
G01*
X159916500Y-139611000D01*
G75*
G02*
X159716500Y-139811000I-200000J0D01*
G01*
X159316500Y-139811000D01*
G75*
G02*
X159116500Y-139611000I0J200000D01*
G01*
G37*
%TD*%
%TO.C,AR1*%
G36*
G01*
X161266500Y-145961000D02*
X161266500Y-144361000D01*
G75*
G02*
X161466500Y-144161000I200000J0D01*
G01*
X161866500Y-144161000D01*
G75*
G02*
X162066500Y-144361000I0J-200000D01*
G01*
X162066500Y-145961000D01*
G75*
G02*
X161866500Y-146161000I-200000J0D01*
G01*
X161466500Y-146161000D01*
G75*
G02*
X161266500Y-145961000I0J200000D01*
G01*
G37*
G36*
G01*
X165466500Y-145961000D02*
X165466500Y-144361000D01*
G75*
G02*
X165666500Y-144161000I200000J0D01*
G01*
X166066500Y-144161000D01*
G75*
G02*
X166266500Y-144361000I0J-200000D01*
G01*
X166266500Y-145961000D01*
G75*
G02*
X166066500Y-146161000I-200000J0D01*
G01*
X165666500Y-146161000D01*
G75*
G02*
X165466500Y-145961000I0J200000D01*
G01*
G37*
%TD*%
%TO.C,ALT1*%
G36*
G01*
X93004000Y-145961000D02*
X93004000Y-144361000D01*
G75*
G02*
X93204000Y-144161000I200000J0D01*
G01*
X93604000Y-144161000D01*
G75*
G02*
X93804000Y-144361000I0J-200000D01*
G01*
X93804000Y-145961000D01*
G75*
G02*
X93604000Y-146161000I-200000J0D01*
G01*
X93204000Y-146161000D01*
G75*
G02*
X93004000Y-145961000I0J200000D01*
G01*
G37*
G36*
G01*
X97204000Y-145961000D02*
X97204000Y-144361000D01*
G75*
G02*
X97404000Y-144161000I200000J0D01*
G01*
X97804000Y-144161000D01*
G75*
G02*
X98004000Y-144361000I0J-200000D01*
G01*
X98004000Y-145961000D01*
G75*
G02*
X97804000Y-146161000I-200000J0D01*
G01*
X97404000Y-146161000D01*
G75*
G02*
X97204000Y-145961000I0J200000D01*
G01*
G37*
%TD*%
%TO.C,AL1*%
G36*
G01*
X148566500Y-145961000D02*
X148566500Y-144361000D01*
G75*
G02*
X148766500Y-144161000I200000J0D01*
G01*
X149166500Y-144161000D01*
G75*
G02*
X149366500Y-144361000I0J-200000D01*
G01*
X149366500Y-145961000D01*
G75*
G02*
X149166500Y-146161000I-200000J0D01*
G01*
X148766500Y-146161000D01*
G75*
G02*
X148566500Y-145961000I0J200000D01*
G01*
G37*
G36*
G01*
X152766500Y-145961000D02*
X152766500Y-144361000D01*
G75*
G02*
X152966500Y-144161000I200000J0D01*
G01*
X153366500Y-144161000D01*
G75*
G02*
X153566500Y-144361000I0J-200000D01*
G01*
X153566500Y-145961000D01*
G75*
G02*
X153366500Y-146161000I-200000J0D01*
G01*
X152966500Y-146161000D01*
G75*
G02*
X152766500Y-145961000I0J200000D01*
G01*
G37*
%TD*%
%TO.C,AD1*%
G36*
G01*
X154916500Y-145961000D02*
X154916500Y-144361000D01*
G75*
G02*
X155116500Y-144161000I200000J0D01*
G01*
X155516500Y-144161000D01*
G75*
G02*
X155716500Y-144361000I0J-200000D01*
G01*
X155716500Y-145961000D01*
G75*
G02*
X155516500Y-146161000I-200000J0D01*
G01*
X155116500Y-146161000D01*
G75*
G02*
X154916500Y-145961000I0J200000D01*
G01*
G37*
G36*
G01*
X159116500Y-145961000D02*
X159116500Y-144361000D01*
G75*
G02*
X159316500Y-144161000I200000J0D01*
G01*
X159716500Y-144161000D01*
G75*
G02*
X159916500Y-144361000I0J-200000D01*
G01*
X159916500Y-145961000D01*
G75*
G02*
X159716500Y-146161000I-200000J0D01*
G01*
X159316500Y-146161000D01*
G75*
G02*
X159116500Y-145961000I0J200000D01*
G01*
G37*
%TD*%
%TO.C,A1*%
G36*
G01*
X90854000Y-133261000D02*
X90854000Y-131661000D01*
G75*
G02*
X91054000Y-131461000I200000J0D01*
G01*
X91454000Y-131461000D01*
G75*
G02*
X91654000Y-131661000I0J-200000D01*
G01*
X91654000Y-133261000D01*
G75*
G02*
X91454000Y-133461000I-200000J0D01*
G01*
X91054000Y-133461000D01*
G75*
G02*
X90854000Y-133261000I0J200000D01*
G01*
G37*
G36*
G01*
X86654000Y-133261000D02*
X86654000Y-131661000D01*
G75*
G02*
X86854000Y-131461000I200000J0D01*
G01*
X87254000Y-131461000D01*
G75*
G02*
X87454000Y-131661000I0J-200000D01*
G01*
X87454000Y-133261000D01*
G75*
G02*
X87254000Y-133461000I-200000J0D01*
G01*
X86854000Y-133461000D01*
G75*
G02*
X86654000Y-133261000I0J200000D01*
G01*
G37*
%TD*%
%TO.C,`1*%
G36*
G01*
X81329000Y-120561000D02*
X81329000Y-118961000D01*
G75*
G02*
X81529000Y-118761000I200000J0D01*
G01*
X81929000Y-118761000D01*
G75*
G02*
X82129000Y-118961000I0J-200000D01*
G01*
X82129000Y-120561000D01*
G75*
G02*
X81929000Y-120761000I-200000J0D01*
G01*
X81529000Y-120761000D01*
G75*
G02*
X81329000Y-120561000I0J200000D01*
G01*
G37*
G36*
G01*
X77129000Y-120561000D02*
X77129000Y-118961000D01*
G75*
G02*
X77329000Y-118761000I200000J0D01*
G01*
X77729000Y-118761000D01*
G75*
G02*
X77929000Y-118961000I0J-200000D01*
G01*
X77929000Y-120561000D01*
G75*
G02*
X77729000Y-120761000I-200000J0D01*
G01*
X77329000Y-120761000D01*
G75*
G02*
X77129000Y-120561000I0J200000D01*
G01*
G37*
%TD*%
%TO.C,]1*%
G36*
G01*
X159116500Y-126911000D02*
X159116500Y-125311000D01*
G75*
G02*
X159316500Y-125111000I200000J0D01*
G01*
X159716500Y-125111000D01*
G75*
G02*
X159916500Y-125311000I0J-200000D01*
G01*
X159916500Y-126911000D01*
G75*
G02*
X159716500Y-127111000I-200000J0D01*
G01*
X159316500Y-127111000D01*
G75*
G02*
X159116500Y-126911000I0J200000D01*
G01*
G37*
G36*
G01*
X154916500Y-126911000D02*
X154916500Y-125311000D01*
G75*
G02*
X155116500Y-125111000I200000J0D01*
G01*
X155516500Y-125111000D01*
G75*
G02*
X155716500Y-125311000I0J-200000D01*
G01*
X155716500Y-126911000D01*
G75*
G02*
X155516500Y-127111000I-200000J0D01*
G01*
X155116500Y-127111000D01*
G75*
G02*
X154916500Y-126911000I0J200000D01*
G01*
G37*
%TD*%
%TO.C,\u005C1*%
G36*
G01*
X165466500Y-126911000D02*
X165466500Y-125311000D01*
G75*
G02*
X165666500Y-125111000I200000J0D01*
G01*
X166066500Y-125111000D01*
G75*
G02*
X166266500Y-125311000I0J-200000D01*
G01*
X166266500Y-126911000D01*
G75*
G02*
X166066500Y-127111000I-200000J0D01*
G01*
X165666500Y-127111000D01*
G75*
G02*
X165466500Y-126911000I0J200000D01*
G01*
G37*
G36*
G01*
X161266500Y-126911000D02*
X161266500Y-125311000D01*
G75*
G02*
X161466500Y-125111000I200000J0D01*
G01*
X161866500Y-125111000D01*
G75*
G02*
X162066500Y-125311000I0J-200000D01*
G01*
X162066500Y-126911000D01*
G75*
G02*
X161866500Y-127111000I-200000J0D01*
G01*
X161466500Y-127111000D01*
G75*
G02*
X161266500Y-126911000I0J200000D01*
G01*
G37*
%TD*%
%TO.C,[1*%
G36*
G01*
X152766500Y-126911000D02*
X152766500Y-125311000D01*
G75*
G02*
X152966500Y-125111000I200000J0D01*
G01*
X153366500Y-125111000D01*
G75*
G02*
X153566500Y-125311000I0J-200000D01*
G01*
X153566500Y-126911000D01*
G75*
G02*
X153366500Y-127111000I-200000J0D01*
G01*
X152966500Y-127111000D01*
G75*
G02*
X152766500Y-126911000I0J200000D01*
G01*
G37*
G36*
G01*
X148566500Y-126911000D02*
X148566500Y-125311000D01*
G75*
G02*
X148766500Y-125111000I200000J0D01*
G01*
X149166500Y-125111000D01*
G75*
G02*
X149366500Y-125311000I0J-200000D01*
G01*
X149366500Y-126911000D01*
G75*
G02*
X149166500Y-127111000I-200000J0D01*
G01*
X148766500Y-127111000D01*
G75*
G02*
X148566500Y-126911000I0J200000D01*
G01*
G37*
%TD*%
%TO.C,=1*%
G36*
G01*
X157529000Y-120561000D02*
X157529000Y-118961000D01*
G75*
G02*
X157729000Y-118761000I200000J0D01*
G01*
X158129000Y-118761000D01*
G75*
G02*
X158329000Y-118961000I0J-200000D01*
G01*
X158329000Y-120561000D01*
G75*
G02*
X158129000Y-120761000I-200000J0D01*
G01*
X157729000Y-120761000D01*
G75*
G02*
X157529000Y-120561000I0J200000D01*
G01*
G37*
G36*
G01*
X153329000Y-120561000D02*
X153329000Y-118961000D01*
G75*
G02*
X153529000Y-118761000I200000J0D01*
G01*
X153929000Y-118761000D01*
G75*
G02*
X154129000Y-118961000I0J-200000D01*
G01*
X154129000Y-120561000D01*
G75*
G02*
X153929000Y-120761000I-200000J0D01*
G01*
X153529000Y-120761000D01*
G75*
G02*
X153329000Y-120561000I0J200000D01*
G01*
G37*
%TD*%
%TO.C,;1*%
G36*
G01*
X148004000Y-133261000D02*
X148004000Y-131661000D01*
G75*
G02*
X148204000Y-131461000I200000J0D01*
G01*
X148604000Y-131461000D01*
G75*
G02*
X148804000Y-131661000I0J-200000D01*
G01*
X148804000Y-133261000D01*
G75*
G02*
X148604000Y-133461000I-200000J0D01*
G01*
X148204000Y-133461000D01*
G75*
G02*
X148004000Y-133261000I0J200000D01*
G01*
G37*
G36*
G01*
X143804000Y-133261000D02*
X143804000Y-131661000D01*
G75*
G02*
X144004000Y-131461000I200000J0D01*
G01*
X144404000Y-131461000D01*
G75*
G02*
X144604000Y-131661000I0J-200000D01*
G01*
X144604000Y-133261000D01*
G75*
G02*
X144404000Y-133461000I-200000J0D01*
G01*
X144004000Y-133461000D01*
G75*
G02*
X143804000Y-133261000I0J200000D01*
G01*
G37*
%TD*%
%TO.C,/1*%
G36*
G01*
X145391500Y-139611000D02*
X145391500Y-138011000D01*
G75*
G02*
X145591500Y-137811000I200000J0D01*
G01*
X145991500Y-137811000D01*
G75*
G02*
X146191500Y-138011000I0J-200000D01*
G01*
X146191500Y-139611000D01*
G75*
G02*
X145991500Y-139811000I-200000J0D01*
G01*
X145591500Y-139811000D01*
G75*
G02*
X145391500Y-139611000I0J200000D01*
G01*
G37*
G36*
G01*
X149591500Y-139611000D02*
X149591500Y-138011000D01*
G75*
G02*
X149791500Y-137811000I200000J0D01*
G01*
X150191500Y-137811000D01*
G75*
G02*
X150391500Y-138011000I0J-200000D01*
G01*
X150391500Y-139611000D01*
G75*
G02*
X150191500Y-139811000I-200000J0D01*
G01*
X149791500Y-139811000D01*
G75*
G02*
X149591500Y-139611000I0J200000D01*
G01*
G37*
%TD*%
%TO.C,-1*%
G36*
G01*
X151179000Y-120561000D02*
X151179000Y-118961000D01*
G75*
G02*
X151379000Y-118761000I200000J0D01*
G01*
X151779000Y-118761000D01*
G75*
G02*
X151979000Y-118961000I0J-200000D01*
G01*
X151979000Y-120561000D01*
G75*
G02*
X151779000Y-120761000I-200000J0D01*
G01*
X151379000Y-120761000D01*
G75*
G02*
X151179000Y-120561000I0J200000D01*
G01*
G37*
G36*
G01*
X146979000Y-120561000D02*
X146979000Y-118961000D01*
G75*
G02*
X147179000Y-118761000I200000J0D01*
G01*
X147579000Y-118761000D01*
G75*
G02*
X147779000Y-118961000I0J-200000D01*
G01*
X147779000Y-120561000D01*
G75*
G02*
X147579000Y-120761000I-200000J0D01*
G01*
X147179000Y-120761000D01*
G75*
G02*
X146979000Y-120561000I0J200000D01*
G01*
G37*
%TD*%
%TO.C,'1*%
G36*
G01*
X154354000Y-133261000D02*
X154354000Y-131661000D01*
G75*
G02*
X154554000Y-131461000I200000J0D01*
G01*
X154954000Y-131461000D01*
G75*
G02*
X155154000Y-131661000I0J-200000D01*
G01*
X155154000Y-133261000D01*
G75*
G02*
X154954000Y-133461000I-200000J0D01*
G01*
X154554000Y-133461000D01*
G75*
G02*
X154354000Y-133261000I0J200000D01*
G01*
G37*
G36*
G01*
X150154000Y-133261000D02*
X150154000Y-131661000D01*
G75*
G02*
X150354000Y-131461000I200000J0D01*
G01*
X150754000Y-131461000D01*
G75*
G02*
X150954000Y-131661000I0J-200000D01*
G01*
X150954000Y-133261000D01*
G75*
G02*
X150754000Y-133461000I-200000J0D01*
G01*
X150354000Y-133461000D01*
G75*
G02*
X150154000Y-133261000I0J200000D01*
G01*
G37*
%TD*%
%TO.C,.2*%
G36*
G01*
X94029000Y-120561000D02*
X94029000Y-118961000D01*
G75*
G02*
X94229000Y-118761000I200000J0D01*
G01*
X94629000Y-118761000D01*
G75*
G02*
X94829000Y-118961000I0J-200000D01*
G01*
X94829000Y-120561000D01*
G75*
G02*
X94629000Y-120761000I-200000J0D01*
G01*
X94229000Y-120761000D01*
G75*
G02*
X94029000Y-120561000I0J200000D01*
G01*
G37*
G36*
G01*
X89829000Y-120561000D02*
X89829000Y-118961000D01*
G75*
G02*
X90029000Y-118761000I200000J0D01*
G01*
X90429000Y-118761000D01*
G75*
G02*
X90629000Y-118961000I0J-200000D01*
G01*
X90629000Y-120561000D01*
G75*
G02*
X90429000Y-120761000I-200000J0D01*
G01*
X90029000Y-120761000D01*
G75*
G02*
X89829000Y-120561000I0J200000D01*
G01*
G37*
%TD*%
%TO.C,.7*%
G36*
G01*
X125779000Y-120561000D02*
X125779000Y-118961000D01*
G75*
G02*
X125979000Y-118761000I200000J0D01*
G01*
X126379000Y-118761000D01*
G75*
G02*
X126579000Y-118961000I0J-200000D01*
G01*
X126579000Y-120561000D01*
G75*
G02*
X126379000Y-120761000I-200000J0D01*
G01*
X125979000Y-120761000D01*
G75*
G02*
X125779000Y-120561000I0J200000D01*
G01*
G37*
G36*
G01*
X121579000Y-120561000D02*
X121579000Y-118961000D01*
G75*
G02*
X121779000Y-118761000I200000J0D01*
G01*
X122179000Y-118761000D01*
G75*
G02*
X122379000Y-118961000I0J-200000D01*
G01*
X122379000Y-120561000D01*
G75*
G02*
X122179000Y-120761000I-200000J0D01*
G01*
X121779000Y-120761000D01*
G75*
G02*
X121579000Y-120561000I0J200000D01*
G01*
G37*
%TD*%
%TO.C,.6*%
G36*
G01*
X119429000Y-120561000D02*
X119429000Y-118961000D01*
G75*
G02*
X119629000Y-118761000I200000J0D01*
G01*
X120029000Y-118761000D01*
G75*
G02*
X120229000Y-118961000I0J-200000D01*
G01*
X120229000Y-120561000D01*
G75*
G02*
X120029000Y-120761000I-200000J0D01*
G01*
X119629000Y-120761000D01*
G75*
G02*
X119429000Y-120561000I0J200000D01*
G01*
G37*
G36*
G01*
X115229000Y-120561000D02*
X115229000Y-118961000D01*
G75*
G02*
X115429000Y-118761000I200000J0D01*
G01*
X115829000Y-118761000D01*
G75*
G02*
X116029000Y-118961000I0J-200000D01*
G01*
X116029000Y-120561000D01*
G75*
G02*
X115829000Y-120761000I-200000J0D01*
G01*
X115429000Y-120761000D01*
G75*
G02*
X115229000Y-120561000I0J200000D01*
G01*
G37*
%TD*%
%TO.C,.5*%
G36*
G01*
X113079000Y-120561000D02*
X113079000Y-118961000D01*
G75*
G02*
X113279000Y-118761000I200000J0D01*
G01*
X113679000Y-118761000D01*
G75*
G02*
X113879000Y-118961000I0J-200000D01*
G01*
X113879000Y-120561000D01*
G75*
G02*
X113679000Y-120761000I-200000J0D01*
G01*
X113279000Y-120761000D01*
G75*
G02*
X113079000Y-120561000I0J200000D01*
G01*
G37*
G36*
G01*
X108879000Y-120561000D02*
X108879000Y-118961000D01*
G75*
G02*
X109079000Y-118761000I200000J0D01*
G01*
X109479000Y-118761000D01*
G75*
G02*
X109679000Y-118961000I0J-200000D01*
G01*
X109679000Y-120561000D01*
G75*
G02*
X109479000Y-120761000I-200000J0D01*
G01*
X109079000Y-120761000D01*
G75*
G02*
X108879000Y-120561000I0J200000D01*
G01*
G37*
%TD*%
%TO.C,.4*%
G36*
G01*
X106729000Y-120561000D02*
X106729000Y-118961000D01*
G75*
G02*
X106929000Y-118761000I200000J0D01*
G01*
X107329000Y-118761000D01*
G75*
G02*
X107529000Y-118961000I0J-200000D01*
G01*
X107529000Y-120561000D01*
G75*
G02*
X107329000Y-120761000I-200000J0D01*
G01*
X106929000Y-120761000D01*
G75*
G02*
X106729000Y-120561000I0J200000D01*
G01*
G37*
G36*
G01*
X102529000Y-120561000D02*
X102529000Y-118961000D01*
G75*
G02*
X102729000Y-118761000I200000J0D01*
G01*
X103129000Y-118761000D01*
G75*
G02*
X103329000Y-118961000I0J-200000D01*
G01*
X103329000Y-120561000D01*
G75*
G02*
X103129000Y-120761000I-200000J0D01*
G01*
X102729000Y-120761000D01*
G75*
G02*
X102529000Y-120561000I0J200000D01*
G01*
G37*
%TD*%
%TO.C,.1*%
G36*
G01*
X87679000Y-120561000D02*
X87679000Y-118961000D01*
G75*
G02*
X87879000Y-118761000I200000J0D01*
G01*
X88279000Y-118761000D01*
G75*
G02*
X88479000Y-118961000I0J-200000D01*
G01*
X88479000Y-120561000D01*
G75*
G02*
X88279000Y-120761000I-200000J0D01*
G01*
X87879000Y-120761000D01*
G75*
G02*
X87679000Y-120561000I0J200000D01*
G01*
G37*
G36*
G01*
X83479000Y-120561000D02*
X83479000Y-118961000D01*
G75*
G02*
X83679000Y-118761000I200000J0D01*
G01*
X84079000Y-118761000D01*
G75*
G02*
X84279000Y-118961000I0J-200000D01*
G01*
X84279000Y-120561000D01*
G75*
G02*
X84079000Y-120761000I-200000J0D01*
G01*
X83679000Y-120761000D01*
G75*
G02*
X83479000Y-120561000I0J200000D01*
G01*
G37*
%TD*%
%TO.C,.0*%
G36*
G01*
X144829000Y-120561000D02*
X144829000Y-118961000D01*
G75*
G02*
X145029000Y-118761000I200000J0D01*
G01*
X145429000Y-118761000D01*
G75*
G02*
X145629000Y-118961000I0J-200000D01*
G01*
X145629000Y-120561000D01*
G75*
G02*
X145429000Y-120761000I-200000J0D01*
G01*
X145029000Y-120761000D01*
G75*
G02*
X144829000Y-120561000I0J200000D01*
G01*
G37*
G36*
G01*
X140629000Y-120561000D02*
X140629000Y-118961000D01*
G75*
G02*
X140829000Y-118761000I200000J0D01*
G01*
X141229000Y-118761000D01*
G75*
G02*
X141429000Y-118961000I0J-200000D01*
G01*
X141429000Y-120561000D01*
G75*
G02*
X141229000Y-120761000I-200000J0D01*
G01*
X140829000Y-120761000D01*
G75*
G02*
X140629000Y-120561000I0J200000D01*
G01*
G37*
%TD*%
%TO.C,.3*%
G36*
G01*
X100379000Y-120561000D02*
X100379000Y-118961000D01*
G75*
G02*
X100579000Y-118761000I200000J0D01*
G01*
X100979000Y-118761000D01*
G75*
G02*
X101179000Y-118961000I0J-200000D01*
G01*
X101179000Y-120561000D01*
G75*
G02*
X100979000Y-120761000I-200000J0D01*
G01*
X100579000Y-120761000D01*
G75*
G02*
X100379000Y-120561000I0J200000D01*
G01*
G37*
G36*
G01*
X96179000Y-120561000D02*
X96179000Y-118961000D01*
G75*
G02*
X96379000Y-118761000I200000J0D01*
G01*
X96779000Y-118761000D01*
G75*
G02*
X96979000Y-118961000I0J-200000D01*
G01*
X96979000Y-120561000D01*
G75*
G02*
X96779000Y-120761000I-200000J0D01*
G01*
X96379000Y-120761000D01*
G75*
G02*
X96179000Y-120561000I0J200000D01*
G01*
G37*
%TD*%
%TO.C,\u002C1*%
G36*
G01*
X132691500Y-139611000D02*
X132691500Y-138011000D01*
G75*
G02*
X132891500Y-137811000I200000J0D01*
G01*
X133291500Y-137811000D01*
G75*
G02*
X133491500Y-138011000I0J-200000D01*
G01*
X133491500Y-139611000D01*
G75*
G02*
X133291500Y-139811000I-200000J0D01*
G01*
X132891500Y-139811000D01*
G75*
G02*
X132691500Y-139611000I0J200000D01*
G01*
G37*
G36*
G01*
X136891500Y-139611000D02*
X136891500Y-138011000D01*
G75*
G02*
X137091500Y-137811000I200000J0D01*
G01*
X137491500Y-137811000D01*
G75*
G02*
X137691500Y-138011000I0J-200000D01*
G01*
X137691500Y-139611000D01*
G75*
G02*
X137491500Y-139811000I-200000J0D01*
G01*
X137091500Y-139811000D01*
G75*
G02*
X136891500Y-139611000I0J200000D01*
G01*
G37*
%TD*%
%TO.C,.10*%
G36*
G01*
X139041500Y-139611000D02*
X139041500Y-138011000D01*
G75*
G02*
X139241500Y-137811000I200000J0D01*
G01*
X139641500Y-137811000D01*
G75*
G02*
X139841500Y-138011000I0J-200000D01*
G01*
X139841500Y-139611000D01*
G75*
G02*
X139641500Y-139811000I-200000J0D01*
G01*
X139241500Y-139811000D01*
G75*
G02*
X139041500Y-139611000I0J200000D01*
G01*
G37*
G36*
G01*
X143241500Y-139611000D02*
X143241500Y-138011000D01*
G75*
G02*
X143441500Y-137811000I200000J0D01*
G01*
X143841500Y-137811000D01*
G75*
G02*
X144041500Y-138011000I0J-200000D01*
G01*
X144041500Y-139611000D01*
G75*
G02*
X143841500Y-139811000I-200000J0D01*
G01*
X143441500Y-139811000D01*
G75*
G02*
X143241500Y-139611000I0J200000D01*
G01*
G37*
%TD*%
%TO.C,.9*%
G36*
G01*
X138479000Y-120561000D02*
X138479000Y-118961000D01*
G75*
G02*
X138679000Y-118761000I200000J0D01*
G01*
X139079000Y-118761000D01*
G75*
G02*
X139279000Y-118961000I0J-200000D01*
G01*
X139279000Y-120561000D01*
G75*
G02*
X139079000Y-120761000I-200000J0D01*
G01*
X138679000Y-120761000D01*
G75*
G02*
X138479000Y-120561000I0J200000D01*
G01*
G37*
G36*
G01*
X134279000Y-120561000D02*
X134279000Y-118961000D01*
G75*
G02*
X134479000Y-118761000I200000J0D01*
G01*
X134879000Y-118761000D01*
G75*
G02*
X135079000Y-118961000I0J-200000D01*
G01*
X135079000Y-120561000D01*
G75*
G02*
X134879000Y-120761000I-200000J0D01*
G01*
X134479000Y-120761000D01*
G75*
G02*
X134279000Y-120561000I0J200000D01*
G01*
G37*
%TD*%
%TO.C,.8*%
G36*
G01*
X132129000Y-120561000D02*
X132129000Y-118961000D01*
G75*
G02*
X132329000Y-118761000I200000J0D01*
G01*
X132729000Y-118761000D01*
G75*
G02*
X132929000Y-118961000I0J-200000D01*
G01*
X132929000Y-120561000D01*
G75*
G02*
X132729000Y-120761000I-200000J0D01*
G01*
X132329000Y-120761000D01*
G75*
G02*
X132129000Y-120561000I0J200000D01*
G01*
G37*
G36*
G01*
X127929000Y-120561000D02*
X127929000Y-118961000D01*
G75*
G02*
X128129000Y-118761000I200000J0D01*
G01*
X128529000Y-118761000D01*
G75*
G02*
X128729000Y-118961000I0J-200000D01*
G01*
X128729000Y-120561000D01*
G75*
G02*
X128529000Y-120761000I-200000J0D01*
G01*
X128129000Y-120761000D01*
G75*
G02*
X127929000Y-120561000I0J200000D01*
G01*
G37*
%TD*%
%TO.C,U2*%
G36*
G01*
X133189000Y-89173500D02*
X133189000Y-89323500D01*
G75*
G02*
X133114000Y-89398500I-75000J0D01*
G01*
X131664000Y-89398500D01*
G75*
G02*
X131589000Y-89323500I0J75000D01*
G01*
X131589000Y-89173500D01*
G75*
G02*
X131664000Y-89098500I75000J0D01*
G01*
X133114000Y-89098500D01*
G75*
G02*
X133189000Y-89173500I0J-75000D01*
G01*
G37*
G36*
G01*
X133189000Y-88673500D02*
X133189000Y-88823500D01*
G75*
G02*
X133114000Y-88898500I-75000J0D01*
G01*
X131664000Y-88898500D01*
G75*
G02*
X131589000Y-88823500I0J75000D01*
G01*
X131589000Y-88673500D01*
G75*
G02*
X131664000Y-88598500I75000J0D01*
G01*
X133114000Y-88598500D01*
G75*
G02*
X133189000Y-88673500I0J-75000D01*
G01*
G37*
G36*
G01*
X133189000Y-88173500D02*
X133189000Y-88323500D01*
G75*
G02*
X133114000Y-88398500I-75000J0D01*
G01*
X131664000Y-88398500D01*
G75*
G02*
X131589000Y-88323500I0J75000D01*
G01*
X131589000Y-88173500D01*
G75*
G02*
X131664000Y-88098500I75000J0D01*
G01*
X133114000Y-88098500D01*
G75*
G02*
X133189000Y-88173500I0J-75000D01*
G01*
G37*
G36*
G01*
X133189000Y-87673500D02*
X133189000Y-87823500D01*
G75*
G02*
X133114000Y-87898500I-75000J0D01*
G01*
X131664000Y-87898500D01*
G75*
G02*
X131589000Y-87823500I0J75000D01*
G01*
X131589000Y-87673500D01*
G75*
G02*
X131664000Y-87598500I75000J0D01*
G01*
X133114000Y-87598500D01*
G75*
G02*
X133189000Y-87673500I0J-75000D01*
G01*
G37*
G36*
G01*
X133189000Y-87173500D02*
X133189000Y-87323500D01*
G75*
G02*
X133114000Y-87398500I-75000J0D01*
G01*
X131664000Y-87398500D01*
G75*
G02*
X131589000Y-87323500I0J75000D01*
G01*
X131589000Y-87173500D01*
G75*
G02*
X131664000Y-87098500I75000J0D01*
G01*
X133114000Y-87098500D01*
G75*
G02*
X133189000Y-87173500I0J-75000D01*
G01*
G37*
G36*
G01*
X133189000Y-86673500D02*
X133189000Y-86823500D01*
G75*
G02*
X133114000Y-86898500I-75000J0D01*
G01*
X131664000Y-86898500D01*
G75*
G02*
X131589000Y-86823500I0J75000D01*
G01*
X131589000Y-86673500D01*
G75*
G02*
X131664000Y-86598500I75000J0D01*
G01*
X133114000Y-86598500D01*
G75*
G02*
X133189000Y-86673500I0J-75000D01*
G01*
G37*
G36*
G01*
X133189000Y-86173500D02*
X133189000Y-86323500D01*
G75*
G02*
X133114000Y-86398500I-75000J0D01*
G01*
X131664000Y-86398500D01*
G75*
G02*
X131589000Y-86323500I0J75000D01*
G01*
X131589000Y-86173500D01*
G75*
G02*
X131664000Y-86098500I75000J0D01*
G01*
X133114000Y-86098500D01*
G75*
G02*
X133189000Y-86173500I0J-75000D01*
G01*
G37*
G36*
G01*
X133189000Y-85673500D02*
X133189000Y-85823500D01*
G75*
G02*
X133114000Y-85898500I-75000J0D01*
G01*
X131664000Y-85898500D01*
G75*
G02*
X131589000Y-85823500I0J75000D01*
G01*
X131589000Y-85673500D01*
G75*
G02*
X131664000Y-85598500I75000J0D01*
G01*
X133114000Y-85598500D01*
G75*
G02*
X133189000Y-85673500I0J-75000D01*
G01*
G37*
G36*
G01*
X133189000Y-85173500D02*
X133189000Y-85323500D01*
G75*
G02*
X133114000Y-85398500I-75000J0D01*
G01*
X131664000Y-85398500D01*
G75*
G02*
X131589000Y-85323500I0J75000D01*
G01*
X131589000Y-85173500D01*
G75*
G02*
X131664000Y-85098500I75000J0D01*
G01*
X133114000Y-85098500D01*
G75*
G02*
X133189000Y-85173500I0J-75000D01*
G01*
G37*
G36*
G01*
X133189000Y-84673500D02*
X133189000Y-84823500D01*
G75*
G02*
X133114000Y-84898500I-75000J0D01*
G01*
X131664000Y-84898500D01*
G75*
G02*
X131589000Y-84823500I0J75000D01*
G01*
X131589000Y-84673500D01*
G75*
G02*
X131664000Y-84598500I75000J0D01*
G01*
X133114000Y-84598500D01*
G75*
G02*
X133189000Y-84673500I0J-75000D01*
G01*
G37*
G36*
G01*
X133189000Y-84173500D02*
X133189000Y-84323500D01*
G75*
G02*
X133114000Y-84398500I-75000J0D01*
G01*
X131664000Y-84398500D01*
G75*
G02*
X131589000Y-84323500I0J75000D01*
G01*
X131589000Y-84173500D01*
G75*
G02*
X131664000Y-84098500I75000J0D01*
G01*
X133114000Y-84098500D01*
G75*
G02*
X133189000Y-84173500I0J-75000D01*
G01*
G37*
G36*
G01*
X133189000Y-83673500D02*
X133189000Y-83823500D01*
G75*
G02*
X133114000Y-83898500I-75000J0D01*
G01*
X131664000Y-83898500D01*
G75*
G02*
X131589000Y-83823500I0J75000D01*
G01*
X131589000Y-83673500D01*
G75*
G02*
X131664000Y-83598500I75000J0D01*
G01*
X133114000Y-83598500D01*
G75*
G02*
X133189000Y-83673500I0J-75000D01*
G01*
G37*
G36*
G01*
X133189000Y-83173500D02*
X133189000Y-83323500D01*
G75*
G02*
X133114000Y-83398500I-75000J0D01*
G01*
X131664000Y-83398500D01*
G75*
G02*
X131589000Y-83323500I0J75000D01*
G01*
X131589000Y-83173500D01*
G75*
G02*
X131664000Y-83098500I75000J0D01*
G01*
X133114000Y-83098500D01*
G75*
G02*
X133189000Y-83173500I0J-75000D01*
G01*
G37*
G36*
G01*
X133189000Y-82673500D02*
X133189000Y-82823500D01*
G75*
G02*
X133114000Y-82898500I-75000J0D01*
G01*
X131664000Y-82898500D01*
G75*
G02*
X131589000Y-82823500I0J75000D01*
G01*
X131589000Y-82673500D01*
G75*
G02*
X131664000Y-82598500I75000J0D01*
G01*
X133114000Y-82598500D01*
G75*
G02*
X133189000Y-82673500I0J-75000D01*
G01*
G37*
G36*
G01*
X133189000Y-82173500D02*
X133189000Y-82323500D01*
G75*
G02*
X133114000Y-82398500I-75000J0D01*
G01*
X131664000Y-82398500D01*
G75*
G02*
X131589000Y-82323500I0J75000D01*
G01*
X131589000Y-82173500D01*
G75*
G02*
X131664000Y-82098500I75000J0D01*
G01*
X133114000Y-82098500D01*
G75*
G02*
X133189000Y-82173500I0J-75000D01*
G01*
G37*
G36*
G01*
X133189000Y-81673500D02*
X133189000Y-81823500D01*
G75*
G02*
X133114000Y-81898500I-75000J0D01*
G01*
X131664000Y-81898500D01*
G75*
G02*
X131589000Y-81823500I0J75000D01*
G01*
X131589000Y-81673500D01*
G75*
G02*
X131664000Y-81598500I75000J0D01*
G01*
X133114000Y-81598500D01*
G75*
G02*
X133189000Y-81673500I0J-75000D01*
G01*
G37*
G36*
G01*
X133189000Y-81173500D02*
X133189000Y-81323500D01*
G75*
G02*
X133114000Y-81398500I-75000J0D01*
G01*
X131664000Y-81398500D01*
G75*
G02*
X131589000Y-81323500I0J75000D01*
G01*
X131589000Y-81173500D01*
G75*
G02*
X131664000Y-81098500I75000J0D01*
G01*
X133114000Y-81098500D01*
G75*
G02*
X133189000Y-81173500I0J-75000D01*
G01*
G37*
G36*
G01*
X133189000Y-80673500D02*
X133189000Y-80823500D01*
G75*
G02*
X133114000Y-80898500I-75000J0D01*
G01*
X131664000Y-80898500D01*
G75*
G02*
X131589000Y-80823500I0J75000D01*
G01*
X131589000Y-80673500D01*
G75*
G02*
X131664000Y-80598500I75000J0D01*
G01*
X133114000Y-80598500D01*
G75*
G02*
X133189000Y-80673500I0J-75000D01*
G01*
G37*
G36*
G01*
X133189000Y-80173500D02*
X133189000Y-80323500D01*
G75*
G02*
X133114000Y-80398500I-75000J0D01*
G01*
X131664000Y-80398500D01*
G75*
G02*
X131589000Y-80323500I0J75000D01*
G01*
X131589000Y-80173500D01*
G75*
G02*
X131664000Y-80098500I75000J0D01*
G01*
X133114000Y-80098500D01*
G75*
G02*
X133189000Y-80173500I0J-75000D01*
G01*
G37*
G36*
G01*
X133189000Y-79673500D02*
X133189000Y-79823500D01*
G75*
G02*
X133114000Y-79898500I-75000J0D01*
G01*
X131664000Y-79898500D01*
G75*
G02*
X131589000Y-79823500I0J75000D01*
G01*
X131589000Y-79673500D01*
G75*
G02*
X131664000Y-79598500I75000J0D01*
G01*
X133114000Y-79598500D01*
G75*
G02*
X133189000Y-79673500I0J-75000D01*
G01*
G37*
G36*
G01*
X133189000Y-79173500D02*
X133189000Y-79323500D01*
G75*
G02*
X133114000Y-79398500I-75000J0D01*
G01*
X131664000Y-79398500D01*
G75*
G02*
X131589000Y-79323500I0J75000D01*
G01*
X131589000Y-79173500D01*
G75*
G02*
X131664000Y-79098500I75000J0D01*
G01*
X133114000Y-79098500D01*
G75*
G02*
X133189000Y-79173500I0J-75000D01*
G01*
G37*
G36*
G01*
X133189000Y-78673500D02*
X133189000Y-78823500D01*
G75*
G02*
X133114000Y-78898500I-75000J0D01*
G01*
X131664000Y-78898500D01*
G75*
G02*
X131589000Y-78823500I0J75000D01*
G01*
X131589000Y-78673500D01*
G75*
G02*
X131664000Y-78598500I75000J0D01*
G01*
X133114000Y-78598500D01*
G75*
G02*
X133189000Y-78673500I0J-75000D01*
G01*
G37*
G36*
G01*
X133189000Y-78173500D02*
X133189000Y-78323500D01*
G75*
G02*
X133114000Y-78398500I-75000J0D01*
G01*
X131664000Y-78398500D01*
G75*
G02*
X131589000Y-78323500I0J75000D01*
G01*
X131589000Y-78173500D01*
G75*
G02*
X131664000Y-78098500I75000J0D01*
G01*
X133114000Y-78098500D01*
G75*
G02*
X133189000Y-78173500I0J-75000D01*
G01*
G37*
G36*
G01*
X133189000Y-77673500D02*
X133189000Y-77823500D01*
G75*
G02*
X133114000Y-77898500I-75000J0D01*
G01*
X131664000Y-77898500D01*
G75*
G02*
X131589000Y-77823500I0J75000D01*
G01*
X131589000Y-77673500D01*
G75*
G02*
X131664000Y-77598500I75000J0D01*
G01*
X133114000Y-77598500D01*
G75*
G02*
X133189000Y-77673500I0J-75000D01*
G01*
G37*
G36*
G01*
X133189000Y-77173500D02*
X133189000Y-77323500D01*
G75*
G02*
X133114000Y-77398500I-75000J0D01*
G01*
X131664000Y-77398500D01*
G75*
G02*
X131589000Y-77323500I0J75000D01*
G01*
X131589000Y-77173500D01*
G75*
G02*
X131664000Y-77098500I75000J0D01*
G01*
X133114000Y-77098500D01*
G75*
G02*
X133189000Y-77173500I0J-75000D01*
G01*
G37*
G36*
G01*
X130864000Y-74848500D02*
X130864000Y-76298500D01*
G75*
G02*
X130789000Y-76373500I-75000J0D01*
G01*
X130639000Y-76373500D01*
G75*
G02*
X130564000Y-76298500I0J75000D01*
G01*
X130564000Y-74848500D01*
G75*
G02*
X130639000Y-74773500I75000J0D01*
G01*
X130789000Y-74773500D01*
G75*
G02*
X130864000Y-74848500I0J-75000D01*
G01*
G37*
G36*
G01*
X130364000Y-74848500D02*
X130364000Y-76298500D01*
G75*
G02*
X130289000Y-76373500I-75000J0D01*
G01*
X130139000Y-76373500D01*
G75*
G02*
X130064000Y-76298500I0J75000D01*
G01*
X130064000Y-74848500D01*
G75*
G02*
X130139000Y-74773500I75000J0D01*
G01*
X130289000Y-74773500D01*
G75*
G02*
X130364000Y-74848500I0J-75000D01*
G01*
G37*
G36*
G01*
X129864000Y-74848500D02*
X129864000Y-76298500D01*
G75*
G02*
X129789000Y-76373500I-75000J0D01*
G01*
X129639000Y-76373500D01*
G75*
G02*
X129564000Y-76298500I0J75000D01*
G01*
X129564000Y-74848500D01*
G75*
G02*
X129639000Y-74773500I75000J0D01*
G01*
X129789000Y-74773500D01*
G75*
G02*
X129864000Y-74848500I0J-75000D01*
G01*
G37*
G36*
G01*
X129364000Y-74848500D02*
X129364000Y-76298500D01*
G75*
G02*
X129289000Y-76373500I-75000J0D01*
G01*
X129139000Y-76373500D01*
G75*
G02*
X129064000Y-76298500I0J75000D01*
G01*
X129064000Y-74848500D01*
G75*
G02*
X129139000Y-74773500I75000J0D01*
G01*
X129289000Y-74773500D01*
G75*
G02*
X129364000Y-74848500I0J-75000D01*
G01*
G37*
G36*
G01*
X128864000Y-74848500D02*
X128864000Y-76298500D01*
G75*
G02*
X128789000Y-76373500I-75000J0D01*
G01*
X128639000Y-76373500D01*
G75*
G02*
X128564000Y-76298500I0J75000D01*
G01*
X128564000Y-74848500D01*
G75*
G02*
X128639000Y-74773500I75000J0D01*
G01*
X128789000Y-74773500D01*
G75*
G02*
X128864000Y-74848500I0J-75000D01*
G01*
G37*
G36*
G01*
X128364000Y-74848500D02*
X128364000Y-76298500D01*
G75*
G02*
X128289000Y-76373500I-75000J0D01*
G01*
X128139000Y-76373500D01*
G75*
G02*
X128064000Y-76298500I0J75000D01*
G01*
X128064000Y-74848500D01*
G75*
G02*
X128139000Y-74773500I75000J0D01*
G01*
X128289000Y-74773500D01*
G75*
G02*
X128364000Y-74848500I0J-75000D01*
G01*
G37*
G36*
G01*
X127864000Y-74848500D02*
X127864000Y-76298500D01*
G75*
G02*
X127789000Y-76373500I-75000J0D01*
G01*
X127639000Y-76373500D01*
G75*
G02*
X127564000Y-76298500I0J75000D01*
G01*
X127564000Y-74848500D01*
G75*
G02*
X127639000Y-74773500I75000J0D01*
G01*
X127789000Y-74773500D01*
G75*
G02*
X127864000Y-74848500I0J-75000D01*
G01*
G37*
G36*
G01*
X127364000Y-74848500D02*
X127364000Y-76298500D01*
G75*
G02*
X127289000Y-76373500I-75000J0D01*
G01*
X127139000Y-76373500D01*
G75*
G02*
X127064000Y-76298500I0J75000D01*
G01*
X127064000Y-74848500D01*
G75*
G02*
X127139000Y-74773500I75000J0D01*
G01*
X127289000Y-74773500D01*
G75*
G02*
X127364000Y-74848500I0J-75000D01*
G01*
G37*
G36*
G01*
X126864000Y-74848500D02*
X126864000Y-76298500D01*
G75*
G02*
X126789000Y-76373500I-75000J0D01*
G01*
X126639000Y-76373500D01*
G75*
G02*
X126564000Y-76298500I0J75000D01*
G01*
X126564000Y-74848500D01*
G75*
G02*
X126639000Y-74773500I75000J0D01*
G01*
X126789000Y-74773500D01*
G75*
G02*
X126864000Y-74848500I0J-75000D01*
G01*
G37*
G36*
G01*
X126364000Y-74848500D02*
X126364000Y-76298500D01*
G75*
G02*
X126289000Y-76373500I-75000J0D01*
G01*
X126139000Y-76373500D01*
G75*
G02*
X126064000Y-76298500I0J75000D01*
G01*
X126064000Y-74848500D01*
G75*
G02*
X126139000Y-74773500I75000J0D01*
G01*
X126289000Y-74773500D01*
G75*
G02*
X126364000Y-74848500I0J-75000D01*
G01*
G37*
G36*
G01*
X125864000Y-74848500D02*
X125864000Y-76298500D01*
G75*
G02*
X125789000Y-76373500I-75000J0D01*
G01*
X125639000Y-76373500D01*
G75*
G02*
X125564000Y-76298500I0J75000D01*
G01*
X125564000Y-74848500D01*
G75*
G02*
X125639000Y-74773500I75000J0D01*
G01*
X125789000Y-74773500D01*
G75*
G02*
X125864000Y-74848500I0J-75000D01*
G01*
G37*
G36*
G01*
X125364000Y-74848500D02*
X125364000Y-76298500D01*
G75*
G02*
X125289000Y-76373500I-75000J0D01*
G01*
X125139000Y-76373500D01*
G75*
G02*
X125064000Y-76298500I0J75000D01*
G01*
X125064000Y-74848500D01*
G75*
G02*
X125139000Y-74773500I75000J0D01*
G01*
X125289000Y-74773500D01*
G75*
G02*
X125364000Y-74848500I0J-75000D01*
G01*
G37*
G36*
G01*
X124864000Y-74848500D02*
X124864000Y-76298500D01*
G75*
G02*
X124789000Y-76373500I-75000J0D01*
G01*
X124639000Y-76373500D01*
G75*
G02*
X124564000Y-76298500I0J75000D01*
G01*
X124564000Y-74848500D01*
G75*
G02*
X124639000Y-74773500I75000J0D01*
G01*
X124789000Y-74773500D01*
G75*
G02*
X124864000Y-74848500I0J-75000D01*
G01*
G37*
G36*
G01*
X124364000Y-74848500D02*
X124364000Y-76298500D01*
G75*
G02*
X124289000Y-76373500I-75000J0D01*
G01*
X124139000Y-76373500D01*
G75*
G02*
X124064000Y-76298500I0J75000D01*
G01*
X124064000Y-74848500D01*
G75*
G02*
X124139000Y-74773500I75000J0D01*
G01*
X124289000Y-74773500D01*
G75*
G02*
X124364000Y-74848500I0J-75000D01*
G01*
G37*
G36*
G01*
X123864000Y-74848500D02*
X123864000Y-76298500D01*
G75*
G02*
X123789000Y-76373500I-75000J0D01*
G01*
X123639000Y-76373500D01*
G75*
G02*
X123564000Y-76298500I0J75000D01*
G01*
X123564000Y-74848500D01*
G75*
G02*
X123639000Y-74773500I75000J0D01*
G01*
X123789000Y-74773500D01*
G75*
G02*
X123864000Y-74848500I0J-75000D01*
G01*
G37*
G36*
G01*
X123364000Y-74848500D02*
X123364000Y-76298500D01*
G75*
G02*
X123289000Y-76373500I-75000J0D01*
G01*
X123139000Y-76373500D01*
G75*
G02*
X123064000Y-76298500I0J75000D01*
G01*
X123064000Y-74848500D01*
G75*
G02*
X123139000Y-74773500I75000J0D01*
G01*
X123289000Y-74773500D01*
G75*
G02*
X123364000Y-74848500I0J-75000D01*
G01*
G37*
G36*
G01*
X122864000Y-74848500D02*
X122864000Y-76298500D01*
G75*
G02*
X122789000Y-76373500I-75000J0D01*
G01*
X122639000Y-76373500D01*
G75*
G02*
X122564000Y-76298500I0J75000D01*
G01*
X122564000Y-74848500D01*
G75*
G02*
X122639000Y-74773500I75000J0D01*
G01*
X122789000Y-74773500D01*
G75*
G02*
X122864000Y-74848500I0J-75000D01*
G01*
G37*
G36*
G01*
X122364000Y-74848500D02*
X122364000Y-76298500D01*
G75*
G02*
X122289000Y-76373500I-75000J0D01*
G01*
X122139000Y-76373500D01*
G75*
G02*
X122064000Y-76298500I0J75000D01*
G01*
X122064000Y-74848500D01*
G75*
G02*
X122139000Y-74773500I75000J0D01*
G01*
X122289000Y-74773500D01*
G75*
G02*
X122364000Y-74848500I0J-75000D01*
G01*
G37*
G36*
G01*
X121864000Y-74848500D02*
X121864000Y-76298500D01*
G75*
G02*
X121789000Y-76373500I-75000J0D01*
G01*
X121639000Y-76373500D01*
G75*
G02*
X121564000Y-76298500I0J75000D01*
G01*
X121564000Y-74848500D01*
G75*
G02*
X121639000Y-74773500I75000J0D01*
G01*
X121789000Y-74773500D01*
G75*
G02*
X121864000Y-74848500I0J-75000D01*
G01*
G37*
G36*
G01*
X121364000Y-74848500D02*
X121364000Y-76298500D01*
G75*
G02*
X121289000Y-76373500I-75000J0D01*
G01*
X121139000Y-76373500D01*
G75*
G02*
X121064000Y-76298500I0J75000D01*
G01*
X121064000Y-74848500D01*
G75*
G02*
X121139000Y-74773500I75000J0D01*
G01*
X121289000Y-74773500D01*
G75*
G02*
X121364000Y-74848500I0J-75000D01*
G01*
G37*
G36*
G01*
X120864000Y-74848500D02*
X120864000Y-76298500D01*
G75*
G02*
X120789000Y-76373500I-75000J0D01*
G01*
X120639000Y-76373500D01*
G75*
G02*
X120564000Y-76298500I0J75000D01*
G01*
X120564000Y-74848500D01*
G75*
G02*
X120639000Y-74773500I75000J0D01*
G01*
X120789000Y-74773500D01*
G75*
G02*
X120864000Y-74848500I0J-75000D01*
G01*
G37*
G36*
G01*
X120364000Y-74848500D02*
X120364000Y-76298500D01*
G75*
G02*
X120289000Y-76373500I-75000J0D01*
G01*
X120139000Y-76373500D01*
G75*
G02*
X120064000Y-76298500I0J75000D01*
G01*
X120064000Y-74848500D01*
G75*
G02*
X120139000Y-74773500I75000J0D01*
G01*
X120289000Y-74773500D01*
G75*
G02*
X120364000Y-74848500I0J-75000D01*
G01*
G37*
G36*
G01*
X119864000Y-74848500D02*
X119864000Y-76298500D01*
G75*
G02*
X119789000Y-76373500I-75000J0D01*
G01*
X119639000Y-76373500D01*
G75*
G02*
X119564000Y-76298500I0J75000D01*
G01*
X119564000Y-74848500D01*
G75*
G02*
X119639000Y-74773500I75000J0D01*
G01*
X119789000Y-74773500D01*
G75*
G02*
X119864000Y-74848500I0J-75000D01*
G01*
G37*
G36*
G01*
X119364000Y-74848500D02*
X119364000Y-76298500D01*
G75*
G02*
X119289000Y-76373500I-75000J0D01*
G01*
X119139000Y-76373500D01*
G75*
G02*
X119064000Y-76298500I0J75000D01*
G01*
X119064000Y-74848500D01*
G75*
G02*
X119139000Y-74773500I75000J0D01*
G01*
X119289000Y-74773500D01*
G75*
G02*
X119364000Y-74848500I0J-75000D01*
G01*
G37*
G36*
G01*
X118864000Y-74848500D02*
X118864000Y-76298500D01*
G75*
G02*
X118789000Y-76373500I-75000J0D01*
G01*
X118639000Y-76373500D01*
G75*
G02*
X118564000Y-76298500I0J75000D01*
G01*
X118564000Y-74848500D01*
G75*
G02*
X118639000Y-74773500I75000J0D01*
G01*
X118789000Y-74773500D01*
G75*
G02*
X118864000Y-74848500I0J-75000D01*
G01*
G37*
G36*
G01*
X117839000Y-77173500D02*
X117839000Y-77323500D01*
G75*
G02*
X117764000Y-77398500I-75000J0D01*
G01*
X116314000Y-77398500D01*
G75*
G02*
X116239000Y-77323500I0J75000D01*
G01*
X116239000Y-77173500D01*
G75*
G02*
X116314000Y-77098500I75000J0D01*
G01*
X117764000Y-77098500D01*
G75*
G02*
X117839000Y-77173500I0J-75000D01*
G01*
G37*
G36*
G01*
X117839000Y-77673500D02*
X117839000Y-77823500D01*
G75*
G02*
X117764000Y-77898500I-75000J0D01*
G01*
X116314000Y-77898500D01*
G75*
G02*
X116239000Y-77823500I0J75000D01*
G01*
X116239000Y-77673500D01*
G75*
G02*
X116314000Y-77598500I75000J0D01*
G01*
X117764000Y-77598500D01*
G75*
G02*
X117839000Y-77673500I0J-75000D01*
G01*
G37*
G36*
G01*
X117839000Y-78173500D02*
X117839000Y-78323500D01*
G75*
G02*
X117764000Y-78398500I-75000J0D01*
G01*
X116314000Y-78398500D01*
G75*
G02*
X116239000Y-78323500I0J75000D01*
G01*
X116239000Y-78173500D01*
G75*
G02*
X116314000Y-78098500I75000J0D01*
G01*
X117764000Y-78098500D01*
G75*
G02*
X117839000Y-78173500I0J-75000D01*
G01*
G37*
G36*
G01*
X117839000Y-78673500D02*
X117839000Y-78823500D01*
G75*
G02*
X117764000Y-78898500I-75000J0D01*
G01*
X116314000Y-78898500D01*
G75*
G02*
X116239000Y-78823500I0J75000D01*
G01*
X116239000Y-78673500D01*
G75*
G02*
X116314000Y-78598500I75000J0D01*
G01*
X117764000Y-78598500D01*
G75*
G02*
X117839000Y-78673500I0J-75000D01*
G01*
G37*
G36*
G01*
X117839000Y-79173500D02*
X117839000Y-79323500D01*
G75*
G02*
X117764000Y-79398500I-75000J0D01*
G01*
X116314000Y-79398500D01*
G75*
G02*
X116239000Y-79323500I0J75000D01*
G01*
X116239000Y-79173500D01*
G75*
G02*
X116314000Y-79098500I75000J0D01*
G01*
X117764000Y-79098500D01*
G75*
G02*
X117839000Y-79173500I0J-75000D01*
G01*
G37*
G36*
G01*
X117839000Y-79673500D02*
X117839000Y-79823500D01*
G75*
G02*
X117764000Y-79898500I-75000J0D01*
G01*
X116314000Y-79898500D01*
G75*
G02*
X116239000Y-79823500I0J75000D01*
G01*
X116239000Y-79673500D01*
G75*
G02*
X116314000Y-79598500I75000J0D01*
G01*
X117764000Y-79598500D01*
G75*
G02*
X117839000Y-79673500I0J-75000D01*
G01*
G37*
G36*
G01*
X117839000Y-80173500D02*
X117839000Y-80323500D01*
G75*
G02*
X117764000Y-80398500I-75000J0D01*
G01*
X116314000Y-80398500D01*
G75*
G02*
X116239000Y-80323500I0J75000D01*
G01*
X116239000Y-80173500D01*
G75*
G02*
X116314000Y-80098500I75000J0D01*
G01*
X117764000Y-80098500D01*
G75*
G02*
X117839000Y-80173500I0J-75000D01*
G01*
G37*
G36*
G01*
X117839000Y-80673500D02*
X117839000Y-80823500D01*
G75*
G02*
X117764000Y-80898500I-75000J0D01*
G01*
X116314000Y-80898500D01*
G75*
G02*
X116239000Y-80823500I0J75000D01*
G01*
X116239000Y-80673500D01*
G75*
G02*
X116314000Y-80598500I75000J0D01*
G01*
X117764000Y-80598500D01*
G75*
G02*
X117839000Y-80673500I0J-75000D01*
G01*
G37*
G36*
G01*
X117839000Y-81173500D02*
X117839000Y-81323500D01*
G75*
G02*
X117764000Y-81398500I-75000J0D01*
G01*
X116314000Y-81398500D01*
G75*
G02*
X116239000Y-81323500I0J75000D01*
G01*
X116239000Y-81173500D01*
G75*
G02*
X116314000Y-81098500I75000J0D01*
G01*
X117764000Y-81098500D01*
G75*
G02*
X117839000Y-81173500I0J-75000D01*
G01*
G37*
G36*
G01*
X117839000Y-81673500D02*
X117839000Y-81823500D01*
G75*
G02*
X117764000Y-81898500I-75000J0D01*
G01*
X116314000Y-81898500D01*
G75*
G02*
X116239000Y-81823500I0J75000D01*
G01*
X116239000Y-81673500D01*
G75*
G02*
X116314000Y-81598500I75000J0D01*
G01*
X117764000Y-81598500D01*
G75*
G02*
X117839000Y-81673500I0J-75000D01*
G01*
G37*
G36*
G01*
X117839000Y-82173500D02*
X117839000Y-82323500D01*
G75*
G02*
X117764000Y-82398500I-75000J0D01*
G01*
X116314000Y-82398500D01*
G75*
G02*
X116239000Y-82323500I0J75000D01*
G01*
X116239000Y-82173500D01*
G75*
G02*
X116314000Y-82098500I75000J0D01*
G01*
X117764000Y-82098500D01*
G75*
G02*
X117839000Y-82173500I0J-75000D01*
G01*
G37*
G36*
G01*
X117839000Y-82673500D02*
X117839000Y-82823500D01*
G75*
G02*
X117764000Y-82898500I-75000J0D01*
G01*
X116314000Y-82898500D01*
G75*
G02*
X116239000Y-82823500I0J75000D01*
G01*
X116239000Y-82673500D01*
G75*
G02*
X116314000Y-82598500I75000J0D01*
G01*
X117764000Y-82598500D01*
G75*
G02*
X117839000Y-82673500I0J-75000D01*
G01*
G37*
G36*
G01*
X117839000Y-83173500D02*
X117839000Y-83323500D01*
G75*
G02*
X117764000Y-83398500I-75000J0D01*
G01*
X116314000Y-83398500D01*
G75*
G02*
X116239000Y-83323500I0J75000D01*
G01*
X116239000Y-83173500D01*
G75*
G02*
X116314000Y-83098500I75000J0D01*
G01*
X117764000Y-83098500D01*
G75*
G02*
X117839000Y-83173500I0J-75000D01*
G01*
G37*
G36*
G01*
X117839000Y-83673500D02*
X117839000Y-83823500D01*
G75*
G02*
X117764000Y-83898500I-75000J0D01*
G01*
X116314000Y-83898500D01*
G75*
G02*
X116239000Y-83823500I0J75000D01*
G01*
X116239000Y-83673500D01*
G75*
G02*
X116314000Y-83598500I75000J0D01*
G01*
X117764000Y-83598500D01*
G75*
G02*
X117839000Y-83673500I0J-75000D01*
G01*
G37*
G36*
G01*
X117839000Y-84173500D02*
X117839000Y-84323500D01*
G75*
G02*
X117764000Y-84398500I-75000J0D01*
G01*
X116314000Y-84398500D01*
G75*
G02*
X116239000Y-84323500I0J75000D01*
G01*
X116239000Y-84173500D01*
G75*
G02*
X116314000Y-84098500I75000J0D01*
G01*
X117764000Y-84098500D01*
G75*
G02*
X117839000Y-84173500I0J-75000D01*
G01*
G37*
G36*
G01*
X117839000Y-84673500D02*
X117839000Y-84823500D01*
G75*
G02*
X117764000Y-84898500I-75000J0D01*
G01*
X116314000Y-84898500D01*
G75*
G02*
X116239000Y-84823500I0J75000D01*
G01*
X116239000Y-84673500D01*
G75*
G02*
X116314000Y-84598500I75000J0D01*
G01*
X117764000Y-84598500D01*
G75*
G02*
X117839000Y-84673500I0J-75000D01*
G01*
G37*
G36*
G01*
X117839000Y-85173500D02*
X117839000Y-85323500D01*
G75*
G02*
X117764000Y-85398500I-75000J0D01*
G01*
X116314000Y-85398500D01*
G75*
G02*
X116239000Y-85323500I0J75000D01*
G01*
X116239000Y-85173500D01*
G75*
G02*
X116314000Y-85098500I75000J0D01*
G01*
X117764000Y-85098500D01*
G75*
G02*
X117839000Y-85173500I0J-75000D01*
G01*
G37*
G36*
G01*
X117839000Y-85673500D02*
X117839000Y-85823500D01*
G75*
G02*
X117764000Y-85898500I-75000J0D01*
G01*
X116314000Y-85898500D01*
G75*
G02*
X116239000Y-85823500I0J75000D01*
G01*
X116239000Y-85673500D01*
G75*
G02*
X116314000Y-85598500I75000J0D01*
G01*
X117764000Y-85598500D01*
G75*
G02*
X117839000Y-85673500I0J-75000D01*
G01*
G37*
G36*
G01*
X117839000Y-86173500D02*
X117839000Y-86323500D01*
G75*
G02*
X117764000Y-86398500I-75000J0D01*
G01*
X116314000Y-86398500D01*
G75*
G02*
X116239000Y-86323500I0J75000D01*
G01*
X116239000Y-86173500D01*
G75*
G02*
X116314000Y-86098500I75000J0D01*
G01*
X117764000Y-86098500D01*
G75*
G02*
X117839000Y-86173500I0J-75000D01*
G01*
G37*
G36*
G01*
X117839000Y-86673500D02*
X117839000Y-86823500D01*
G75*
G02*
X117764000Y-86898500I-75000J0D01*
G01*
X116314000Y-86898500D01*
G75*
G02*
X116239000Y-86823500I0J75000D01*
G01*
X116239000Y-86673500D01*
G75*
G02*
X116314000Y-86598500I75000J0D01*
G01*
X117764000Y-86598500D01*
G75*
G02*
X117839000Y-86673500I0J-75000D01*
G01*
G37*
G36*
G01*
X117839000Y-87173500D02*
X117839000Y-87323500D01*
G75*
G02*
X117764000Y-87398500I-75000J0D01*
G01*
X116314000Y-87398500D01*
G75*
G02*
X116239000Y-87323500I0J75000D01*
G01*
X116239000Y-87173500D01*
G75*
G02*
X116314000Y-87098500I75000J0D01*
G01*
X117764000Y-87098500D01*
G75*
G02*
X117839000Y-87173500I0J-75000D01*
G01*
G37*
G36*
G01*
X117839000Y-87673500D02*
X117839000Y-87823500D01*
G75*
G02*
X117764000Y-87898500I-75000J0D01*
G01*
X116314000Y-87898500D01*
G75*
G02*
X116239000Y-87823500I0J75000D01*
G01*
X116239000Y-87673500D01*
G75*
G02*
X116314000Y-87598500I75000J0D01*
G01*
X117764000Y-87598500D01*
G75*
G02*
X117839000Y-87673500I0J-75000D01*
G01*
G37*
G36*
G01*
X117839000Y-88173500D02*
X117839000Y-88323500D01*
G75*
G02*
X117764000Y-88398500I-75000J0D01*
G01*
X116314000Y-88398500D01*
G75*
G02*
X116239000Y-88323500I0J75000D01*
G01*
X116239000Y-88173500D01*
G75*
G02*
X116314000Y-88098500I75000J0D01*
G01*
X117764000Y-88098500D01*
G75*
G02*
X117839000Y-88173500I0J-75000D01*
G01*
G37*
G36*
G01*
X117839000Y-88673500D02*
X117839000Y-88823500D01*
G75*
G02*
X117764000Y-88898500I-75000J0D01*
G01*
X116314000Y-88898500D01*
G75*
G02*
X116239000Y-88823500I0J75000D01*
G01*
X116239000Y-88673500D01*
G75*
G02*
X116314000Y-88598500I75000J0D01*
G01*
X117764000Y-88598500D01*
G75*
G02*
X117839000Y-88673500I0J-75000D01*
G01*
G37*
G36*
G01*
X117839000Y-89173500D02*
X117839000Y-89323500D01*
G75*
G02*
X117764000Y-89398500I-75000J0D01*
G01*
X116314000Y-89398500D01*
G75*
G02*
X116239000Y-89323500I0J75000D01*
G01*
X116239000Y-89173500D01*
G75*
G02*
X116314000Y-89098500I75000J0D01*
G01*
X117764000Y-89098500D01*
G75*
G02*
X117839000Y-89173500I0J-75000D01*
G01*
G37*
G36*
G01*
X118864000Y-90198500D02*
X118864000Y-91648500D01*
G75*
G02*
X118789000Y-91723500I-75000J0D01*
G01*
X118639000Y-91723500D01*
G75*
G02*
X118564000Y-91648500I0J75000D01*
G01*
X118564000Y-90198500D01*
G75*
G02*
X118639000Y-90123500I75000J0D01*
G01*
X118789000Y-90123500D01*
G75*
G02*
X118864000Y-90198500I0J-75000D01*
G01*
G37*
G36*
G01*
X119364000Y-90198500D02*
X119364000Y-91648500D01*
G75*
G02*
X119289000Y-91723500I-75000J0D01*
G01*
X119139000Y-91723500D01*
G75*
G02*
X119064000Y-91648500I0J75000D01*
G01*
X119064000Y-90198500D01*
G75*
G02*
X119139000Y-90123500I75000J0D01*
G01*
X119289000Y-90123500D01*
G75*
G02*
X119364000Y-90198500I0J-75000D01*
G01*
G37*
G36*
G01*
X119864000Y-90198500D02*
X119864000Y-91648500D01*
G75*
G02*
X119789000Y-91723500I-75000J0D01*
G01*
X119639000Y-91723500D01*
G75*
G02*
X119564000Y-91648500I0J75000D01*
G01*
X119564000Y-90198500D01*
G75*
G02*
X119639000Y-90123500I75000J0D01*
G01*
X119789000Y-90123500D01*
G75*
G02*
X119864000Y-90198500I0J-75000D01*
G01*
G37*
G36*
G01*
X120364000Y-90198500D02*
X120364000Y-91648500D01*
G75*
G02*
X120289000Y-91723500I-75000J0D01*
G01*
X120139000Y-91723500D01*
G75*
G02*
X120064000Y-91648500I0J75000D01*
G01*
X120064000Y-90198500D01*
G75*
G02*
X120139000Y-90123500I75000J0D01*
G01*
X120289000Y-90123500D01*
G75*
G02*
X120364000Y-90198500I0J-75000D01*
G01*
G37*
G36*
G01*
X120864000Y-90198500D02*
X120864000Y-91648500D01*
G75*
G02*
X120789000Y-91723500I-75000J0D01*
G01*
X120639000Y-91723500D01*
G75*
G02*
X120564000Y-91648500I0J75000D01*
G01*
X120564000Y-90198500D01*
G75*
G02*
X120639000Y-90123500I75000J0D01*
G01*
X120789000Y-90123500D01*
G75*
G02*
X120864000Y-90198500I0J-75000D01*
G01*
G37*
G36*
G01*
X121364000Y-90198500D02*
X121364000Y-91648500D01*
G75*
G02*
X121289000Y-91723500I-75000J0D01*
G01*
X121139000Y-91723500D01*
G75*
G02*
X121064000Y-91648500I0J75000D01*
G01*
X121064000Y-90198500D01*
G75*
G02*
X121139000Y-90123500I75000J0D01*
G01*
X121289000Y-90123500D01*
G75*
G02*
X121364000Y-90198500I0J-75000D01*
G01*
G37*
G36*
G01*
X121864000Y-90198500D02*
X121864000Y-91648500D01*
G75*
G02*
X121789000Y-91723500I-75000J0D01*
G01*
X121639000Y-91723500D01*
G75*
G02*
X121564000Y-91648500I0J75000D01*
G01*
X121564000Y-90198500D01*
G75*
G02*
X121639000Y-90123500I75000J0D01*
G01*
X121789000Y-90123500D01*
G75*
G02*
X121864000Y-90198500I0J-75000D01*
G01*
G37*
G36*
G01*
X122364000Y-90198500D02*
X122364000Y-91648500D01*
G75*
G02*
X122289000Y-91723500I-75000J0D01*
G01*
X122139000Y-91723500D01*
G75*
G02*
X122064000Y-91648500I0J75000D01*
G01*
X122064000Y-90198500D01*
G75*
G02*
X122139000Y-90123500I75000J0D01*
G01*
X122289000Y-90123500D01*
G75*
G02*
X122364000Y-90198500I0J-75000D01*
G01*
G37*
G36*
G01*
X122864000Y-90198500D02*
X122864000Y-91648500D01*
G75*
G02*
X122789000Y-91723500I-75000J0D01*
G01*
X122639000Y-91723500D01*
G75*
G02*
X122564000Y-91648500I0J75000D01*
G01*
X122564000Y-90198500D01*
G75*
G02*
X122639000Y-90123500I75000J0D01*
G01*
X122789000Y-90123500D01*
G75*
G02*
X122864000Y-90198500I0J-75000D01*
G01*
G37*
G36*
G01*
X123364000Y-90198500D02*
X123364000Y-91648500D01*
G75*
G02*
X123289000Y-91723500I-75000J0D01*
G01*
X123139000Y-91723500D01*
G75*
G02*
X123064000Y-91648500I0J75000D01*
G01*
X123064000Y-90198500D01*
G75*
G02*
X123139000Y-90123500I75000J0D01*
G01*
X123289000Y-90123500D01*
G75*
G02*
X123364000Y-90198500I0J-75000D01*
G01*
G37*
G36*
G01*
X123864000Y-90198500D02*
X123864000Y-91648500D01*
G75*
G02*
X123789000Y-91723500I-75000J0D01*
G01*
X123639000Y-91723500D01*
G75*
G02*
X123564000Y-91648500I0J75000D01*
G01*
X123564000Y-90198500D01*
G75*
G02*
X123639000Y-90123500I75000J0D01*
G01*
X123789000Y-90123500D01*
G75*
G02*
X123864000Y-90198500I0J-75000D01*
G01*
G37*
G36*
G01*
X124364000Y-90198500D02*
X124364000Y-91648500D01*
G75*
G02*
X124289000Y-91723500I-75000J0D01*
G01*
X124139000Y-91723500D01*
G75*
G02*
X124064000Y-91648500I0J75000D01*
G01*
X124064000Y-90198500D01*
G75*
G02*
X124139000Y-90123500I75000J0D01*
G01*
X124289000Y-90123500D01*
G75*
G02*
X124364000Y-90198500I0J-75000D01*
G01*
G37*
G36*
G01*
X124864000Y-90198500D02*
X124864000Y-91648500D01*
G75*
G02*
X124789000Y-91723500I-75000J0D01*
G01*
X124639000Y-91723500D01*
G75*
G02*
X124564000Y-91648500I0J75000D01*
G01*
X124564000Y-90198500D01*
G75*
G02*
X124639000Y-90123500I75000J0D01*
G01*
X124789000Y-90123500D01*
G75*
G02*
X124864000Y-90198500I0J-75000D01*
G01*
G37*
G36*
G01*
X125364000Y-90198500D02*
X125364000Y-91648500D01*
G75*
G02*
X125289000Y-91723500I-75000J0D01*
G01*
X125139000Y-91723500D01*
G75*
G02*
X125064000Y-91648500I0J75000D01*
G01*
X125064000Y-90198500D01*
G75*
G02*
X125139000Y-90123500I75000J0D01*
G01*
X125289000Y-90123500D01*
G75*
G02*
X125364000Y-90198500I0J-75000D01*
G01*
G37*
G36*
G01*
X125864000Y-90198500D02*
X125864000Y-91648500D01*
G75*
G02*
X125789000Y-91723500I-75000J0D01*
G01*
X125639000Y-91723500D01*
G75*
G02*
X125564000Y-91648500I0J75000D01*
G01*
X125564000Y-90198500D01*
G75*
G02*
X125639000Y-90123500I75000J0D01*
G01*
X125789000Y-90123500D01*
G75*
G02*
X125864000Y-90198500I0J-75000D01*
G01*
G37*
G36*
G01*
X126364000Y-90198500D02*
X126364000Y-91648500D01*
G75*
G02*
X126289000Y-91723500I-75000J0D01*
G01*
X126139000Y-91723500D01*
G75*
G02*
X126064000Y-91648500I0J75000D01*
G01*
X126064000Y-90198500D01*
G75*
G02*
X126139000Y-90123500I75000J0D01*
G01*
X126289000Y-90123500D01*
G75*
G02*
X126364000Y-90198500I0J-75000D01*
G01*
G37*
G36*
G01*
X126864000Y-90198500D02*
X126864000Y-91648500D01*
G75*
G02*
X126789000Y-91723500I-75000J0D01*
G01*
X126639000Y-91723500D01*
G75*
G02*
X126564000Y-91648500I0J75000D01*
G01*
X126564000Y-90198500D01*
G75*
G02*
X126639000Y-90123500I75000J0D01*
G01*
X126789000Y-90123500D01*
G75*
G02*
X126864000Y-90198500I0J-75000D01*
G01*
G37*
G36*
G01*
X127364000Y-90198500D02*
X127364000Y-91648500D01*
G75*
G02*
X127289000Y-91723500I-75000J0D01*
G01*
X127139000Y-91723500D01*
G75*
G02*
X127064000Y-91648500I0J75000D01*
G01*
X127064000Y-90198500D01*
G75*
G02*
X127139000Y-90123500I75000J0D01*
G01*
X127289000Y-90123500D01*
G75*
G02*
X127364000Y-90198500I0J-75000D01*
G01*
G37*
G36*
G01*
X127864000Y-90198500D02*
X127864000Y-91648500D01*
G75*
G02*
X127789000Y-91723500I-75000J0D01*
G01*
X127639000Y-91723500D01*
G75*
G02*
X127564000Y-91648500I0J75000D01*
G01*
X127564000Y-90198500D01*
G75*
G02*
X127639000Y-90123500I75000J0D01*
G01*
X127789000Y-90123500D01*
G75*
G02*
X127864000Y-90198500I0J-75000D01*
G01*
G37*
G36*
G01*
X128364000Y-90198500D02*
X128364000Y-91648500D01*
G75*
G02*
X128289000Y-91723500I-75000J0D01*
G01*
X128139000Y-91723500D01*
G75*
G02*
X128064000Y-91648500I0J75000D01*
G01*
X128064000Y-90198500D01*
G75*
G02*
X128139000Y-90123500I75000J0D01*
G01*
X128289000Y-90123500D01*
G75*
G02*
X128364000Y-90198500I0J-75000D01*
G01*
G37*
G36*
G01*
X128864000Y-90198500D02*
X128864000Y-91648500D01*
G75*
G02*
X128789000Y-91723500I-75000J0D01*
G01*
X128639000Y-91723500D01*
G75*
G02*
X128564000Y-91648500I0J75000D01*
G01*
X128564000Y-90198500D01*
G75*
G02*
X128639000Y-90123500I75000J0D01*
G01*
X128789000Y-90123500D01*
G75*
G02*
X128864000Y-90198500I0J-75000D01*
G01*
G37*
G36*
G01*
X129364000Y-90198500D02*
X129364000Y-91648500D01*
G75*
G02*
X129289000Y-91723500I-75000J0D01*
G01*
X129139000Y-91723500D01*
G75*
G02*
X129064000Y-91648500I0J75000D01*
G01*
X129064000Y-90198500D01*
G75*
G02*
X129139000Y-90123500I75000J0D01*
G01*
X129289000Y-90123500D01*
G75*
G02*
X129364000Y-90198500I0J-75000D01*
G01*
G37*
G36*
G01*
X129864000Y-90198500D02*
X129864000Y-91648500D01*
G75*
G02*
X129789000Y-91723500I-75000J0D01*
G01*
X129639000Y-91723500D01*
G75*
G02*
X129564000Y-91648500I0J75000D01*
G01*
X129564000Y-90198500D01*
G75*
G02*
X129639000Y-90123500I75000J0D01*
G01*
X129789000Y-90123500D01*
G75*
G02*
X129864000Y-90198500I0J-75000D01*
G01*
G37*
G36*
G01*
X130364000Y-90198500D02*
X130364000Y-91648500D01*
G75*
G02*
X130289000Y-91723500I-75000J0D01*
G01*
X130139000Y-91723500D01*
G75*
G02*
X130064000Y-91648500I0J75000D01*
G01*
X130064000Y-90198500D01*
G75*
G02*
X130139000Y-90123500I75000J0D01*
G01*
X130289000Y-90123500D01*
G75*
G02*
X130364000Y-90198500I0J-75000D01*
G01*
G37*
G36*
G01*
X130864000Y-90198500D02*
X130864000Y-91648500D01*
G75*
G02*
X130789000Y-91723500I-75000J0D01*
G01*
X130639000Y-91723500D01*
G75*
G02*
X130564000Y-91648500I0J75000D01*
G01*
X130564000Y-90198500D01*
G75*
G02*
X130639000Y-90123500I75000J0D01*
G01*
X130789000Y-90123500D01*
G75*
G02*
X130864000Y-90198500I0J-75000D01*
G01*
G37*
%TD*%
%TO.C,C16*%
G36*
G01*
X104429500Y-81103000D02*
X104739500Y-81103000D01*
G75*
G02*
X104894500Y-81258000I0J-155000D01*
G01*
X104894500Y-81683000D01*
G75*
G02*
X104739500Y-81838000I-155000J0D01*
G01*
X104429500Y-81838000D01*
G75*
G02*
X104274500Y-81683000I0J155000D01*
G01*
X104274500Y-81258000D01*
G75*
G02*
X104429500Y-81103000I155000J0D01*
G01*
G37*
G36*
G01*
X104429500Y-79968000D02*
X104739500Y-79968000D01*
G75*
G02*
X104894500Y-80123000I0J-155000D01*
G01*
X104894500Y-80548000D01*
G75*
G02*
X104739500Y-80703000I-155000J0D01*
G01*
X104429500Y-80703000D01*
G75*
G02*
X104274500Y-80548000I0J155000D01*
G01*
X104274500Y-80123000D01*
G75*
G02*
X104429500Y-79968000I155000J0D01*
G01*
G37*
%TD*%
%TO.C,C15*%
G36*
G01*
X96727000Y-81187000D02*
X97202000Y-81187000D01*
G75*
G02*
X97439500Y-81424500I0J-237500D01*
G01*
X97439500Y-82024500D01*
G75*
G02*
X97202000Y-82262000I-237500J0D01*
G01*
X96727000Y-82262000D01*
G75*
G02*
X96489500Y-82024500I0J237500D01*
G01*
X96489500Y-81424500D01*
G75*
G02*
X96727000Y-81187000I237500J0D01*
G01*
G37*
G36*
G01*
X96727000Y-79462000D02*
X97202000Y-79462000D01*
G75*
G02*
X97439500Y-79699500I0J-237500D01*
G01*
X97439500Y-80299500D01*
G75*
G02*
X97202000Y-80537000I-237500J0D01*
G01*
X96727000Y-80537000D01*
G75*
G02*
X96489500Y-80299500I0J237500D01*
G01*
X96489500Y-79699500D01*
G75*
G02*
X96727000Y-79462000I237500J0D01*
G01*
G37*
%TD*%
M02*
